<?xml version="1.0" encoding="utf-8"?>
<!-- Generator: Adobe Illustrator 26.5.0, SVG Export Plug-In . SVG Version: 6.00 Build 0)  -->
<svg version="1.1" id="_x3C_레이어_x3E_" xmlns="http://www.w3.org/2000/svg" xmlns:xlink="http://www.w3.org/1999/xlink"
	 x="0px" y="0px" viewBox="0 0 102.57 123.81" style="enable-background:new 0 0 102.57 123.81;" xml:space="preserve">
<style type="text/css">
	.st0{fill:#FFFFFF;}
</style>
<g>
	<g>
		<g>
			<path class="st0" d="M51.28,123.81L15.02,87.54C5.34,77.86,0,64.98,0,51.28c0-13.7,5.34-26.58,15.02-36.26
				C24.71,5.33,37.59,0,51.28,0c13.39,0,25.99,5.09,35.59,14.36l0.03,0.01l0.65,0.65c9.68,9.69,15.01,22.57,15.01,36.26
				c0,13.7-5.34,26.57-15.02,36.26L51.28,123.81z M51.28,11.25c-10.7,0-20.75,4.16-28.3,11.72c-7.56,7.56-11.73,17.62-11.73,28.31
				c0,10.69,4.17,20.74,11.72,28.31l28.31,28.31l28.31-28.31c7.56-7.56,11.72-17.62,11.72-28.31c0-10.52-4.04-20.44-11.38-27.97
				l-0.35-0.35C72.03,15.41,61.98,11.25,51.28,11.25z"/>
		</g>
	</g>
	<g>
		<path class="st0" d="M51.28,75.68c-6.51,0-12.64-2.54-17.25-7.14l0,0c-4.61-4.62-7.15-10.74-7.15-17.26
			c0-6.52,2.54-12.64,7.15-17.25c4.61-4.61,10.74-7.15,17.25-7.15s12.65,2.54,17.25,7.15c4.61,4.61,7.15,10.74,7.15,17.25
			c0,6.52-2.54,12.64-7.14,17.26C63.93,73.15,57.8,75.68,51.28,75.68z M41.99,60.58c4.97,4.97,13.63,4.97,18.6,0
			c2.48-2.48,3.85-5.79,3.85-9.3c0-3.51-1.37-6.81-3.85-9.3c-4.97-4.97-13.63-4.97-18.6,0c-2.49,2.49-3.85,5.79-3.85,9.3
			C38.13,54.79,39.5,58.09,41.99,60.58z"/>
	</g>
</g>
</svg>
