<?xml version="1.0" encoding="utf-8"?>
<!-- Generator: Adobe Illustrator 26.5.0, SVG Export Plug-In . SVG Version: 6.00 Build 0)  -->
<svg version="1.1" id="레이어_1" xmlns="http://www.w3.org/2000/svg" xmlns:xlink="http://www.w3.org/1999/xlink" x="0px"
	 y="0px" viewBox="0 0 43.1 42" style="enable-background:new 0 0 43.1 42;" xml:space="preserve">
<style type="text/css">
	.st0{fill:url(#SVGID_1_);}
	.st1{fill:#FFFFFF;}
</style>
<g>
	<radialGradient id="SVGID_1_" cx="30.3377" cy="8.817" r="37.1291" gradientUnits="userSpaceOnUse">
		<stop  offset="0" style="stop-color:#BAE3F9"/>
		<stop  offset="0.2" style="stop-color:#00AFEC"/>
		<stop  offset="0.8" style="stop-color:#0055A2"/>
		<stop  offset="0.8249" style="stop-color:#0059A5"/>
		<stop  offset="0.8609" style="stop-color:#0064AE"/>
		<stop  offset="0.9035" style="stop-color:#0077BE"/>
		<stop  offset="0.9512" style="stop-color:#0091D4"/>
		<stop  offset="1" style="stop-color:#00AFEC"/>
	</radialGradient>
	<path class="st0" d="M42.8,17.2c-0.6-3.1-1.8-5.8-3.4-8.1l0,0c-0.4-0.6-0.8-1-1.2-1.5l0,0c-4.3-5-10-7.5-16.6-7.5l0,0
		C16.4,0,11.9,1.6,8,4.6l0,0C4,7.7,1,12.1,0.2,18.1l0,0c-0.8,6,1.1,11.9,5,16.5l0,0c4,4.5,9.7,7.3,16.4,7.4l0,0
		c11.1-0.1,19.8-8.3,21.3-18.2l0,0c0.3-1.9,0.3-3.7,0-5.6l0,0C42.9,17.8,42.8,17.5,42.8,17.2z"/>
	<path class="st1" d="M27.8,19.3c5.3-3,8.7-6.4,8.3-8.6c-0.6-3-8.1-2.6-16.9,0.8c-8.7,3.4-15.4,8.6-14.8,11.6
		c0.4,2.1,5.1,2.6,10.4,1.4l1.2-1c-2.5,0.3-5.5,0-5.8-1.2c-0.5-2.1,4.2-5.9,10.3-8.5c6.2-2.6,11.6-3.1,12-1c0.3,1.5-1.9,3.8-5.3,5.9
		c-0.3,0.2-0.1,0.5-0.1,0.5S27.4,19.5,27.8,19.3z"/>
	<path class="st1" d="M33.6,28.1c-2.6-0.2-5.9-3.2-10.4-7.9c-0.1-0.1-0.2-0.3-0.4-0.4c0,0,0,0,0-0.1c0.5-1,0.8-2.1,1.1-3.2
		c0.3-1.4,0.5-3.1,0.4-4.5c-0.1-1.6-0.5-3.1-1-4.6l0,0c0,0,0,0,0-0.1c-0.4-0.9-1.3-1.5-2.3-1.4c-1.2,0.1-2.2,1.2-2.1,2.5
		c0,0.2,0.1,0.5,0.2,0.7c1.1,2.6,1.3,6.9-0.4,10.4c-1.4,2.8-3.5,5.1-6.4,6.6c-1.4,0.7-2.4,1.2-2.9,1.8c-0.2,0.3-0.4,0.8-0.1,1.4
		c0,0.1,2.9,4,3.1,4c0.4,0.1,0.6-0.1,0.8-0.7c0.5-1.3,1.7-2.3,2.7-3.3c2.1-2.1,3.8-4,5.2-6.1c2.4,2.7,6.6,7.6,6.6,7.6
		c1,1.2,1.8,1.9,2.5,2.3c0.3,0.1,0.9,0.2,1.4-0.3c0,0,3-3.9,3-4.1C34.5,28.3,34.2,28.1,33.6,28.1z"/>
</g>
<g>
	<path class="st1" d="M75.4,12.5v2.4h6.7v1.4H66.8v-1.4h6.8v-2.4H75.4z M68.5,7.3h11.8v1.4h-4.9c0.1,0.4,0.3,0.8,0.7,1.2
		c0.4,0.4,0.8,0.7,1.3,1c0.5,0.3,1.1,0.5,1.7,0.7c0.6,0.2,1.2,0.3,1.7,0.4l-0.5,1.3c-0.6-0.1-1.1-0.2-1.7-0.4
		c-0.6-0.2-1.1-0.4-1.7-0.7c-0.5-0.3-1-0.6-1.4-0.9c-0.4-0.3-0.7-0.7-1-1.1c-0.2,0.4-0.6,0.7-1,1.1c-0.4,0.3-0.9,0.6-1.4,0.9
		c-0.5,0.3-1.1,0.5-1.8,0.7c-0.6,0.2-1.3,0.3-2,0.4L67.9,12c0.6-0.1,1.2-0.2,1.8-0.4c0.6-0.2,1.2-0.4,1.7-0.7c0.5-0.3,0.9-0.6,1.3-1
		c0.4-0.4,0.6-0.8,0.7-1.2h-4.8V7.3z M79.6,20.5c0,0.5-0.1,0.9-0.4,1.3c-0.2,0.4-0.6,0.8-1,1.1c-0.4,0.3-1,0.6-1.6,0.7
		c-0.6,0.2-1.4,0.3-2.2,0.3c-0.8,0-1.5-0.1-2.1-0.3c-0.6-0.2-1.2-0.4-1.6-0.7c-0.4-0.3-0.8-0.7-1-1.1c-0.2-0.4-0.4-0.8-0.4-1.3
		c0-0.5,0.1-0.9,0.4-1.3c0.2-0.4,0.6-0.8,1-1.1c0.4-0.3,1-0.5,1.6-0.7c0.6-0.2,1.4-0.3,2.1-0.3c0.8,0,1.5,0.1,2.2,0.3
		c0.6,0.2,1.2,0.4,1.6,0.7c0.4,0.3,0.8,0.7,1,1.1C79.5,19.6,79.6,20,79.6,20.5z M74.5,18.6c-1,0-1.8,0.2-2.4,0.5
		c-0.6,0.4-0.9,0.8-0.9,1.4c0,0.3,0.1,0.5,0.2,0.8c0.2,0.2,0.4,0.4,0.7,0.6c0.3,0.2,0.6,0.3,1,0.4c0.4,0.1,0.9,0.2,1.4,0.2
		c0.5,0,1-0.1,1.4-0.2c0.4-0.1,0.8-0.2,1-0.4c0.3-0.2,0.5-0.4,0.7-0.6c0.1-0.2,0.2-0.5,0.2-0.8c0-0.6-0.3-1-0.9-1.4
		C76.3,18.8,75.5,18.6,74.5,18.6z"/>
	<path class="st1" d="M168.6,13.6v5.3h1.9v-5.3h1.8v5.3h5.6v1.4h-15.4v-1.4h4.2v-5.3H168.6z M173.8,10c0-0.2,0-0.3-0.1-0.4
		c-0.1-0.1-0.2-0.1-0.4-0.1h-8.4V8.1h9.5c0.5,0,0.8,0.1,1,0.3c0.2,0.2,0.3,0.6,0.3,1v7.2h-1.9V10z"/>
	<path class="st1" d="M191,23.5h-1.9v-3.6c0-0.2,0-0.3-0.1-0.4c-0.1-0.1-0.2-0.1-0.4-0.1h-8.7V18h2.4v-2h-4.4v-1.4h15.4V16H189v2
		h0.4c0.6,0,1,0.1,1.3,0.3c0.2,0.2,0.4,0.6,0.4,1.1V23.5z M180.4,10.2c0-0.5,0.1-1,0.4-1.4c0.3-0.4,0.7-0.7,1.1-1
		c0.5-0.3,1-0.5,1.7-0.6c0.6-0.1,1.3-0.2,2-0.2c0.7,0,1.4,0.1,2,0.2c0.6,0.1,1.2,0.3,1.7,0.6c0.5,0.3,0.9,0.6,1.1,1
		c0.3,0.4,0.4,0.9,0.4,1.4c0,0.5-0.1,1-0.4,1.4c-0.3,0.4-0.7,0.7-1.1,1c-0.5,0.3-1,0.5-1.7,0.6c-0.6,0.1-1.3,0.2-2,0.2
		c-0.7,0-1.4-0.1-2-0.2c-0.6-0.1-1.2-0.3-1.7-0.6c-0.5-0.3-0.9-0.6-1.1-1C180.5,11.2,180.4,10.7,180.4,10.2z M182.3,10.2
		c0,0.3,0.1,0.6,0.3,0.8c0.2,0.2,0.4,0.4,0.8,0.5c0.3,0.1,0.7,0.2,1.1,0.3c0.4,0.1,0.8,0.1,1.2,0.1c0.4,0,0.8,0,1.2-0.1
		c0.4-0.1,0.8-0.2,1.1-0.3c0.3-0.1,0.6-0.3,0.8-0.5c0.2-0.2,0.3-0.5,0.3-0.8c0-0.3-0.1-0.6-0.3-0.8c-0.2-0.2-0.4-0.4-0.8-0.5
		c-0.3-0.1-0.7-0.2-1.1-0.3c-0.4-0.1-0.8-0.1-1.2-0.1c-0.4,0-0.8,0-1.2,0.1c-0.4,0.1-0.8,0.2-1.1,0.3c-0.3,0.1-0.6,0.3-0.8,0.5
		C182.4,9.6,182.3,9.9,182.3,10.2z M184.1,18h3v-2h-3V18z"/>
	<path class="st1" d="M94.9,18.3h-9.7v1.4h8.7c0.2,0,0.4,0,0.4,0.1c0.1,0.1,0.1,0.2,0.1,0.4v3.2h1.9v-3.7c0-0.4-0.1-0.8-0.3-1
		C95.7,18.5,95.4,18.3,94.9,18.3z"/>
	<rect x="83.1" y="15.3" class="st1" width="15.4" height="1.3"/>
	<path class="st1" d="M87.8,12.3c-0.2,0-0.3,0-0.4-0.1c-0.1-0.1-0.1-0.2-0.1-0.4v-0.8H96V9.7h-8.7V8.5h8.8V7.1H85.1
		c0.1,0.4,0.4,0.9,0.4,1.5v3.6c0,0.5,0.1,0.8,0.4,1.1c0.2,0.2,0.5,0.3,0.9,0.3h9.5v-1.3H87.8z"/>
	<path class="st1" d="M111.1,8.2v0.6h-3.3V8.7h-1.9v0.9h-4.3V9.3h-1.9v3.9c0,0.3,0,0.5,0.1,0.7c0.1,0.2,0.2,0.4,0.3,0.5
		c0.1,0.1,0.3,0.2,0.4,0.3c0.2,0.1,0.3,0.1,0.5,0.1h6.7v-1.6h3.3v2.2h1.9V8.2H111.1z M105.9,13.4H102c-0.2,0-0.3,0-0.4-0.1
		c-0.1-0.1-0.1-0.2-0.1-0.4v-2h4.3V13.4z M111.1,11.8h-3.3v-1.6h3.3V11.8z"/>
	<path class="st1" d="M102.4,20.7v1.4c0,0.5,0.1,0.8,0.4,1c0.2,0.2,0.6,0.4,1,0.4h9.3v-1.4h-8.3c-0.2,0-0.3,0-0.4-0.1
		c-0.1-0.1-0.1-0.2-0.1-0.3v-1h8.7v-3.3c0-0.3-0.1-0.5-0.2-0.7c-0.1-0.2-0.4-0.3-0.7-0.3h-9.6v1.4h8.3c0.3,0,0.4,0.1,0.4,0.3v1.1
		h-8.7V20.7z"/>
	<path class="st1" d="M101.6,7.1h-2.2c0.1,0.4,0.4,0.9,0.4,1.5v0.8h1.9V7.1z"/>
	<path class="st1" d="M107.8,7.1h-2.2c0.1,0.4,0.4,0.9,0.4,1.5v0.8h1.9V7.1z"/>
	<path class="st1" d="M112.9,6.7h-2.2c0.1,0.4,0.4,0.9,0.4,1.5V9h1.9V6.7z"/>
	<path class="st1" d="M122.3,14.7c-0.4-0.6-0.6-1.2-0.8-1.9c-0.2-0.7-0.3-1.4-0.3-2.2V9.6h3.4V8.2h-8.8v1.4h3.4v1
		c0,1.5-0.3,2.9-1,4.1c-0.7,1.2-1.7,2.2-3.2,3.1l1,1.3c1-0.6,1.9-1.3,2.6-2.1c0.7-0.8,1.3-1.7,1.6-2.8c0.1,0.4,0.4,0.8,0.6,1.3
		c0.3,0.4,0.6,0.9,1,1.3c0.4,0.4,0.8,0.8,1.2,1.1c0.4,0.3,0.8,0.6,1.2,0.9l0.9-1.2c-0.6-0.4-1.2-0.8-1.7-1.3
		C123,15.8,122.6,15.3,122.3,14.7z"/>
	<polygon class="st1" points="128.5,12.6 128.5,8.6 126.6,8.6 126.6,22.9 128.5,22.9 128.5,14.1 131.1,14.1 131.1,12.6 	"/>
	<path class="st1" d="M128.5,6.7h-2.2c0.1,0.4,0.4,0.9,0.4,1.5V9h1.9V6.7z"/>
	<path class="st1" d="M202.2,13.9c-0.5-0.3-0.9-0.7-1.2-1.1c-0.4-0.4-0.7-0.8-0.9-1.3c-0.2-0.5-0.4-0.9-0.4-1.4h3.5V8.7h-3.5V8.5
		h-1.9v0.2h-3.4v1.4h3.4c0,0.6-0.1,1.1-0.3,1.6c-0.2,0.5-0.5,0.9-0.8,1.3c-0.3,0.4-0.8,0.8-1.2,1.1c-0.5,0.3-1,0.6-1.6,0.9l0.9,1.3
		c0.5-0.2,0.9-0.4,1.3-0.7c0.4-0.2,0.8-0.5,1.2-0.8c0.4-0.3,0.7-0.7,1-1c0.3-0.4,0.5-0.8,0.7-1.2c0.2,0.4,0.4,0.7,0.7,1
		c0.3,0.3,0.6,0.6,1,0.9c0.4,0.3,0.7,0.5,1.1,0.8c0.4,0.2,0.8,0.4,1.2,0.6l0.8-1.2C203.1,14.5,202.6,14.2,202.2,13.9z"/>
	<path class="st1" d="M207.3,18.8c-0.2-0.4-0.6-0.8-1-1.1c-0.4-0.3-1-0.5-1.6-0.7c-0.6-0.2-1.3-0.3-2-0.3c-0.7,0-1.4,0.1-2,0.3
		c-0.6,0.2-1.1,0.4-1.6,0.7c-0.4,0.3-0.8,0.7-1,1.1c-0.2,0.4-0.3,0.9-0.3,1.4c0,0.5,0.1,1,0.3,1.4c0.2,0.4,0.6,0.8,1,1.1
		c0.4,0.3,1,0.6,1.6,0.7c0.6,0.2,1.3,0.3,2,0.3c0.8,0,1.4-0.1,2-0.3c0.6-0.2,1.1-0.4,1.6-0.7c0.4-0.3,0.8-0.7,1-1.1
		c0.2-0.4,0.4-0.9,0.4-1.4C207.7,19.6,207.6,19.2,207.3,18.8z M205.6,21c-0.1,0.2-0.3,0.5-0.6,0.7c-0.3,0.2-0.6,0.3-1,0.4
		c-0.4,0.1-0.8,0.2-1.3,0.2c-0.5,0-0.9,0-1.3-0.2c-0.4-0.1-0.7-0.2-1-0.4c-0.3-0.2-0.5-0.4-0.6-0.7c-0.1-0.2-0.2-0.5-0.2-0.8
		c0-0.6,0.3-1.1,0.8-1.5c0.6-0.4,1.3-0.6,2.3-0.6c1,0,1.7,0.2,2.3,0.6c0.6,0.4,0.8,0.9,0.8,1.5C205.8,20.5,205.8,20.7,205.6,21z"/>
	<polygon class="st1" points="205.8,8.5 205.8,11.3 202.4,11.3 202.4,12.7 205.8,12.7 205.8,16.4 207.6,16.4 207.6,8.5 	"/>
	<path class="st1" d="M199.7,7h-2.3c0.1,0.4,0.4,0.9,0.4,1.5V9h2V7z"/>
	<path class="st1" d="M207.6,6.7h-2.2c0.1,0.4,0.4,0.9,0.4,1.5v0.5h1.9V6.7z"/>
	<path class="st1" d="M336.4,9.9h-3.6c0.2,0.7,0.6,1.5,0.6,2.5v0.8h3V9.9z"/>
	<path class="st1" d="M315.7,9.9h-3.6c0.2,0.7,0.6,1.5,0.6,2.5v0.8h3V9.9z"/>
	<path class="st1" d="M294.7,9.9h-3.6c0.2,0.7,0.6,1.5,0.6,2.5v0.8h3V9.9z"/>
	<path class="st1" d="M153.4,14.6c-0.4-0.6-0.6-1.2-0.8-1.9c-0.2-0.7-0.3-1.4-0.3-2.2V9.8h-1.9v0.8c0,1.5-0.3,2.9-1,4.1
		c-0.7,1.2-1.7,2.3-3.2,3.2l1.1,1.3c1-0.6,1.9-1.3,2.6-2.2c0.7-0.8,1.3-1.8,1.6-2.9c0.1,0.4,0.4,0.9,0.6,1.3
		c0.3,0.4,0.6,0.9,0.9,1.3c0.4,0.4,0.7,0.8,1.1,1.2c0.4,0.4,0.8,0.7,1.2,0.9l0.9-1.2c-0.6-0.4-1.2-0.8-1.6-1.3
		C154.2,15.8,153.8,15.2,153.4,14.6z"/>
	<rect x="158.2" y="8.4" class="st1" width="1.9" height="14.4"/>
	<path class="st1" d="M152.3,8H150c0.1,0.4,0.4,0.9,0.4,1.5v0.6h1.9V8z"/>
	<path class="st1" d="M160.1,6.7h-2.2c0.1,0.4,0.3,0.9,0.3,1.5v0.6h1.9V6.7z"/>
	<path class="st1" d="M138.2,15.1c-0.4-0.6-0.6-1.3-0.8-2c-0.2-0.7-0.3-1.8-0.3-2.6h3.6V9.1h-3.6V8.8h-2v0.4h-3.5v1.4h3.4
		c0,1.6-0.3,3.4-1,4.6c-0.7,1.2-1.7,2.3-3.2,3.1c0.2,0.2,0.4,0.5,0.6,0.7c0.2,0.2,0.4,0.5,0.6,0.7c1-0.6,1.9-1.3,2.6-2.1
		c0.7-0.8,1.3-1.7,1.6-2.8c0.1,0.4,0.3,0.9,0.6,1.3c0.3,0.4,0.6,0.9,0.9,1.3c0.4,0.4,0.7,0.8,1.1,1.1c0.4,0.4,0.8,0.7,1.2,0.9
		c0.2-0.2,0.3-0.4,0.5-0.6c0.2-0.2,0.3-0.4,0.5-0.6c-0.6-0.4-1.1-0.8-1.6-1.3C139,16.3,138.6,15.7,138.2,15.1z"/>
	<rect x="142.8" y="8.5" class="st1" width="1.9" height="14.4"/>
	<path class="st1" d="M137.1,7.1h-2.3c0.1,0.4,0.4,0.9,0.4,1.5v0.5h2V7.1z"/>
	<path class="st1" d="M144.7,6.7h-2.2c0.1,0.4,0.3,0.9,0.3,1.5v0.6h1.9V6.7z"/>
	<path class="st1" d="M56.4,14.5c-0.5-1.2-0.7-2.6-0.7-4v-0.3h-1.9v0.3c0,0.7-0.1,1.4-0.2,2.1c-0.1,0.7-0.3,1.3-0.6,1.9
		c-0.3,0.6-0.6,1.2-1.1,1.7c-0.4,0.5-1,1-1.6,1.5l1.1,1.2c0.4-0.3,0.8-0.6,1.2-0.9c0.4-0.3,0.7-0.7,1-1.1c0.3-0.4,0.5-0.8,0.8-1.1
		c0.2-0.4,0.4-0.8,0.5-1.2c0.1,0.4,0.3,0.8,0.5,1.2c0.2,0.4,0.5,0.8,0.7,1.1c0.3,0.4,0.6,0.7,0.9,1c0.3,0.3,0.6,0.6,0.9,0.8l1-1.1
		C57.7,16.6,56.9,15.7,56.4,14.5z"/>
	<polygon class="st1" points="59.8,12.1 57.4,12.1 57.4,13.5 59.8,13.5 59.8,22.5 61.6,22.5 61.6,8.9 59.8,8.9 	"/>
	<rect x="63.2" y="8.9" class="st1" width="1.8" height="14"/>
	<path class="st1" d="M65,6.7h-2.2c0.1,0.4,0.4,0.9,0.4,1.5V9H65V6.7z"/>
	<path class="st1" d="M61.6,7h-2.2c0.1,0.4,0.4,0.9,0.4,1.5v0.8h1.8V7z"/>
	<path class="st1" d="M55.7,8.1h-2.3c0.1,0.4,0.4,1,0.4,1.6v0.8h1.9V8.1z"/>
	<g>
		<path class="st1" d="M52.1,33.7c0,0,0.8,0.8,1.8,0.8c0.5,0,0.9-0.4,0.9-0.8c0-1.1-2.8-1.2-2.8-3.1c0-1.1,0.8-1.9,2-1.9
			c0.8,0,1.5,0.3,1.8,0.5l-0.2,1c0,0-0.6-0.5-1.6-0.5c-0.4,0-0.8,0.3-0.8,0.7c0,1.1,2.8,1.1,2.8,3.1c0,1.1-0.8,2-2,2
			c-1.3,0-2-0.7-2-0.7L52.1,33.7z"/>
		<path class="st1" d="M57.3,29.8l-0.1-1h3.7v1h-2.3v1.7h2l-0.2,1h-1.8v1.9H61l-0.2,1h-3.5V29.8z"/>
		<path class="st1" d="M63.7,34.8c0,1.3-0.6,2.4-2.1,2.4c-0.2,0-0.4,0-0.7-0.1l0.1-1.1c0,0,0.3,0.1,0.7,0.1c0.5,0,0.8-0.6,0.8-1.4
			v-5.1l-0.1-1h1.4V34.8z"/>
		<path class="st1" d="M71,32c0,2-1.4,3.4-3.1,3.4c-1.9,0-3-1.5-3-3.3c0-1.9,1.3-3.4,3.1-3.4C70,28.7,71,30,71,32z M68,34.5
			c1,0,1.7-1,1.7-2.4c0-1.4-0.7-2.4-1.7-2.4c-1,0-1.7,1-1.7,2.4C66.3,33.5,66.9,34.5,68,34.5z"/>
		<path class="st1" d="M77.7,34.5l0.1,0.8h-0.8l-3.3-3.7L73.3,31v3.5l0.1,0.8h-1.2v-5.5l-0.1-1h1l3.2,3.8l0.4,0.6v-3.4l-0.1-1h1.3
			V34.5z"/>
		<path class="st1" d="M83.8,30.4c-0.5-0.6-1.1-0.8-1.7-0.8c-1.1,0-1.9,1.1-1.9,2.5c0,1.5,1,2.4,2,2.4c0.5,0,1-0.1,1-0.1V33L83,32.1
			h1.4l0,2.9c0,0-1.1,0.4-2.4,0.4c-1.6,0-3.1-1.1-3.1-3.3c0-2.1,1.4-3.5,3.2-3.5c0.9,0,1.6,0.3,2.2,0.8L83.8,30.4z"/>
		<path class="st1" d="M92.6,30.4c-0.5-0.6-1.1-0.8-1.7-0.8c-1.1,0-1.9,1.1-1.9,2.5c0,1.5,1,2.4,2,2.4c0.7,0,1.4-0.3,2-0.9l0.2,1
			c-0.6,0.6-1.6,0.9-2.4,0.9c-1.6,0-3.1-1.1-3.1-3.3c0-2.1,1.4-3.5,3.2-3.5c0.9,0,1.6,0.3,2.2,0.8L92.6,30.4z"/>
		<path class="st1" d="M95.5,34.5l0.1,0.8h-1.4v-5.5l-0.1-1h1.4V34.5z"/>
		<path class="st1" d="M96.5,28.8h5.4v1h-2.1v4.7l0.1,0.8h-1.4v-5.6h-2V28.8z"/>
		<path class="st1" d="M105.2,34.5l0.1,0.8H104v-2.8l-1.5-2.9l-0.6-0.8h1.5l1.1,2.2l0.1,0.4l0.1-0.4l1.1-2.2h1.3l-2,3.6V34.5z"/>
		<path class="st1" d="M116.1,32c0,2-1.4,3.4-3.1,3.4c-1.9,0-3-1.5-3-3.3c0-1.9,1.3-3.4,3.1-3.4C115.1,28.7,116.1,30,116.1,32z
			 M113,34.5c1,0,1.7-1,1.7-2.4c0-1.4-0.7-2.4-1.7-2.4c-1,0-1.7,1-1.7,2.4C111.3,33.5,112,34.5,113,34.5z"/>
		<path class="st1" d="M117.2,28.8h3.7v1h-2.3v1.7h2l-0.2,1h-1.8v2l0.1,0.8h-1.4v-5.5L117.2,28.8z"/>
		<path class="st1" d="M121.9,28.8h3.7v1h-2.3v1.7h2.1l-0.2,1h-1.8v2l0.1,0.8H122v-5.5L121.9,28.8z"/>
		<path class="st1" d="M128,34.5l0.1,0.8h-1.4v-5.5l-0.1-1h1.4V34.5z"/>
		<path class="st1" d="M134.2,30.4c-0.5-0.6-1.1-0.8-1.7-0.8c-1.1,0-1.9,1.1-1.9,2.5c0,1.5,1,2.4,2,2.4c0.7,0,1.4-0.3,2-0.9l0.2,1
			c-0.6,0.6-1.6,0.9-2.4,0.9c-1.6,0-3.1-1.1-3.1-3.3c0-2.1,1.4-3.5,3.2-3.5c0.9,0,1.6,0.3,2.2,0.8L134.2,30.4z"/>
		<path class="st1" d="M135.9,29.8l-0.1-1h3.7v1h-2.3v1.7h2l-0.2,1h-1.8v1.9h2.4l-0.2,1h-3.5V29.8z"/>
		<path class="st1" d="M148.7,32c0,2-1.4,3.4-3.1,3.4c-1.9,0-3-1.5-3-3.3c0-1.9,1.3-3.4,3.1-3.4C147.8,28.7,148.7,30,148.7,32z
			 M145.7,34.5c1,0,1.7-1,1.7-2.4c0-1.4-0.7-2.4-1.7-2.4c-1,0-1.7,1-1.7,2.4C144,33.5,144.7,34.5,145.7,34.5z"/>
		<path class="st1" d="M149.8,28.8h3.7v1h-2.3v1.7h2.1l-0.2,1h-1.8v2l0.1,0.8H150v-5.5L149.8,28.8z"/>
		<path class="st1" d="M157.1,29.8l-0.1-1h3.7v1h-2.3v1.7h2l-0.2,1h-1.8v1.9h2.4l-0.2,1h-3.5V29.8z"/>
		<path class="st1" d="M164.5,28.8c1.4,0,2.9,1,2.9,3.2c0,1.9-1.2,3.3-3.2,3.3h-2.2v-5.5l-0.1-1H164.5z M163.3,34.4h1
			c1,0,1.7-1,1.7-2.3c0-1.3-0.7-2.3-1.7-2.3h-1V34.4z"/>
		<path class="st1" d="M172.9,29.8l-0.1-1h1.3v3.9c0,1.6-1.1,2.8-2.8,2.8c-2.5,0-2.5-2.3-2.5-2.5v-3.2l-0.1-1h1.4v4.1
			c0,1,0.6,1.6,1.5,1.6c0.8,0,1.5-0.7,1.5-1.7V29.8z"/>
		<path class="st1" d="M180,30.4c-0.5-0.6-1.1-0.8-1.7-0.8c-1.1,0-1.9,1.1-1.9,2.5c0,1.5,1,2.4,2,2.4c0.7,0,1.4-0.3,2-0.9l0.2,1
			c-0.6,0.6-1.6,0.9-2.4,0.9c-1.6,0-3.1-1.1-3.1-3.3c0-2.1,1.4-3.5,3.2-3.5c0.9,0,1.6,0.3,2.2,0.8L180,30.4z"/>
		<path class="st1" d="M183.3,28.8l0.8-0.2l2,5.5l0.5,1.2h-1.4l-0.6-1.5h-2.1l-0.6,1.5h-1.2L183.3,28.8z M182.9,32.8h1.6l-0.7-1.9
			l-0.1-0.4l-0.1,0.4L182.9,32.8z"/>
		<path class="st1" d="M186.2,28.8h5.4v1h-2.1v4.7l0.1,0.8h-1.4v-5.6h-2V28.8z"/>
		<path class="st1" d="M193.8,34.5l0.1,0.8h-1.4v-5.5l-0.1-1h1.4V34.5z"/>
		<path class="st1" d="M201.2,32c0,2-1.4,3.4-3.1,3.4c-1.9,0-3-1.5-3-3.3c0-1.9,1.3-3.4,3.1-3.4C200.2,28.7,201.2,30,201.2,32z
			 M198.2,34.5c1,0,1.7-1,1.7-2.4c0-1.4-0.7-2.4-1.7-2.4c-1,0-1.7,1-1.7,2.4C196.4,33.5,197.1,34.5,198.2,34.5z"/>
		<path class="st1" d="M207.6,34.5l0.1,0.8h-0.8l-3.3-3.7l-0.4-0.6v3.5l0.1,0.8h-1.2v-5.5l-0.1-1h1l3.2,3.8l0.4,0.6v-3.4l-0.1-1h1.3
			V34.5z"/>
	</g>
	<rect x="222.6" y="6.7" class="st1" width="0.9" height="28.7"/>
	<g>
		<path class="st1" d="M252.6,13.5h-12.7v2.7h12.9v2.2h-6.3v1.7h7.2v2.2h-17.7v-2.2h7.6v-1.7h-4c-0.8,0-1.5-0.2-1.9-0.6
			c-0.4-0.4-0.6-0.9-0.6-1.7v-4.8h15.7V13.5z M252.6,23.8v6.8h-3v-4.5h-12.7v-2.3H252.6z"/>
		<path class="st1" d="M264.3,27v-5.1h3V27h7.2v2.2h-17.7V27H264.3z M273.6,13.5h-12.7v5.8h12.9v2.2h-13.4c-0.8,0-1.5-0.2-1.9-0.6
			c-0.4-0.4-0.6-0.9-0.6-1.7v-7.8h15.7V13.5z"/>
		<path class="st1" d="M289.3,11.3v2.2h-4c0,1.9,0.5,3.6,1.6,5c0.8,1.1,2,2,3.4,2.8l-1.4,1.8c-1.1-0.5-2-1.1-2.9-1.8
			c-1-0.8-1.7-1.5-2.2-2.3c-0.5,0.7-1.2,1.5-2.2,2.3c-0.9,0.7-1.9,1.3-2.9,1.8l-1.2-1.8c1.4-0.7,2.5-1.6,3.3-2.8
			c1-1.4,1.5-3.1,1.5-5h-3.7v-2.2H289.3z M282.5,28.2h12.3v2.2h-12.7c-1,0-1.7-0.2-2.1-0.5c-0.4-0.3-0.6-0.9-0.6-1.7v-4.2h3V28.2z
			 M294.7,25.3h-3v-7.4h-3.3v-2.2h3.3v-3.7h3V25.3z"/>
		<path class="st1" d="M305.8,11.1v7.2c0,1.8,0.7,3.7,2,5.7c0.9,1.4,2,2.7,3.2,3.7l-1.9,1.6c-1.1-0.8-2-1.7-2.8-2.8
			c-1-1.4-1.6-2.8-1.9-4.2c-0.3,1.4-1,2.8-2,4.2c-0.8,1.1-1.8,2.1-2.8,2.8l-1.6-1.6c1-0.8,2-2,3-3.6c1.3-2.1,1.9-4,1.9-5.8v-7.2
			H305.8z M315.7,11.9v18.7h-3V11.9H315.7z"/>
		<path class="st1" d="M333.3,11.9h3v4.6h2.1v2.3h-2.1v6.3h-3v-3.1h-13.8v-2.2h2.5v-3.7h3v3.7h2.2c0.1-0.6,0.2-1.2,0.3-1.8
			c0.1-0.6,0.1-1.3,0.1-2v-2.5h-7.4v-2.2h10.4v4c0,0.8,0,1.6-0.1,2.3c-0.1,0.8-0.2,1.5-0.4,2.2h3.2V11.9z M324.5,28.2h12v2.2h-12.3
			c-1,0-1.7-0.2-2.1-0.5c-0.4-0.3-0.6-0.9-0.6-1.7v-4.5h3V28.2z"/>
	</g>
</g>
</svg>
