<?xml version="1.0" encoding="utf-8"?>
<!-- Generator: Adobe Illustrator 23.0.3, SVG Export Plug-In . SVG Version: 6.00 Build 0)  -->
<svg version="1.1" xmlns="http://www.w3.org/2000/svg" xmlns:xlink="http://www.w3.org/1999/xlink" x="0px" y="0px"
	 viewBox="0 0 390.6 275.6" style="enable-background:new 0 0 390.6 275.6;" xml:space="preserve">
<style type="text/css">
	.st0{clip-path:url(#SVGID_2_);fill-rule:evenodd;clip-rule:evenodd;fill:#FFFFFF;}
	.st1{clip-path:url(#SVGID_2_);fill:none;stroke:#88BF43;stroke-width:2;}
	.st2{clip-path:url(#SVGID_2_);fill-rule:evenodd;clip-rule:evenodd;fill:#8DC63F;}
	.st3{clip-path:url(#SVGID_2_);fill-rule:evenodd;clip-rule:evenodd;fill:#88BF43;}
	.st4{clip-path:url(#SVGID_2_);fill-rule:evenodd;clip-rule:evenodd;fill:#378840;}
	.st5{font-family:'NanumBarunGothic';}
	.st6{font-size:32px;}
	.st7{clip-path:url(#SVGID_4_);fill:none;stroke:#000000;stroke-linecap:round;stroke-linejoin:round;}
	.st8{clip-path:url(#SVGID_6_);fill:none;stroke:#000000;stroke-linecap:round;stroke-linejoin:round;}
	.st9{clip-path:url(#SVGID_8_);fill:none;stroke:#000000;stroke-linecap:round;stroke-linejoin:round;}
	.st10{font-size:29px;}
	.st11{clip-path:url(#SVGID_10_);fill:none;stroke:#000000;stroke-linecap:round;stroke-linejoin:round;}
	.st12{clip-path:url(#SVGID_12_);fill:none;stroke:#000000;stroke-linecap:round;stroke-linejoin:round;}
	.st13{fill:none;stroke:#000000;stroke-linecap:round;stroke-linejoin:round;}
	.st14{fill:#388840;}
	.st15{fill-rule:evenodd;clip-rule:evenodd;fill:#FFFFFF;}
	.st16{fill:none;}
	.st17{fill:#FFFFFF;}
	.st18{display:none;}
	.st19{display:inline;}
</style>
<g id="레이어_1">
	<g>
		<defs>
			<rect id="SVGID_1_" width="390.6" height="275.6"/>
		</defs>
		<clipPath id="SVGID_2_">
			<use xlink:href="#SVGID_1_"  style="overflow:visible;"/>
		</clipPath>
		<path class="st0" d="M382.8,126.1c0,67.5-83.9,122.2-187.5,122.2C91.8,248.3,7.8,193.6,7.8,126.1C7.8,58.6,91.8,3.8,195.3,3.8
			C298.9,3.8,382.8,58.6,382.8,126.1"/>
		<ellipse class="st1" cx="195.3" cy="126.1" rx="187.5" ry="122.2"/>
		<path class="st2" d="M260.8,100c4.7,0,8.6-3.7,8.6-8.4c0-4.6-3.8-8.4-8.6-8.4c-4.7,0-8.6,3.8-8.6,8.4
			C252.2,96.3,256.1,100,260.8,100"/>
		<path class="st2" d="M288,116.7c1.8,2.7,3.5,5.2,5,7.4c7.5,3.6,12.7,11.2,12.7,20.1c0,12.3-10,22.3-22.3,22.3
			c-12.3,0-22.3-10-22.3-22.3c0-0.5,0-0.9,0.1-1.4H260c-0.2,0.4-1.9,3.1-4,6.5c2.4,13,13.8,22.8,27.4,22.8
			c15.4,0,27.9-12.5,27.9-27.9C311.3,130.4,301.2,118.9,288,116.7"/>
		<path class="st2" d="M246.1,163.1l13.2-21.5h28.6c3.3,0,11.4-5.6,7.3-12.1c0,0-18-27-19.5-28.5c-1.5-1.5-6.2-2.9-10.3-0.1
			c-3.2,2.2-10,17.5-10,17.5s-7.7,0.1-10.1,0c-2.3-0.1-3,7.8-0.1,7.8h14l5.2-9.1l10.9,16.6h-22.1l-17.3,29.3c-1,1.8-0.8,4.4,2.6,4.4
			C241.7,167.4,243.8,166,246.1,163.1"/>
		<rect x="235.7" y="121.9" class="st2" width="24.9" height="6.9"/>
		<polygon class="st2" points="238.5,122.3 235.8,124.2 221.3,103.4 224,101.5 		"/>
		<path class="st3" d="M119.1,190.5c22,8.3,49,13.1,77.8,13.1c76,0,137.7-33.5,137.7-75c0-21.2-19.5-48.8-69.3-48.8
			c-36.1,0-67.5,15.9-67.5,35.5c0,3.4,2,7.3,4.6,9.9c4,4.6,5.2,10.3,5.2,15.5c0,24-35.7,43.3-79.6,43.3c-29,0-55.6-8.1-68.7-21.2
			c-10.5-10.5-13.9-22.4-13.9-34.3c0-45.8,67.9-82.8,151.6-82.8c83.9,0,151.8,37.1,151.8,82.8c0,45.8-67.9,82.8-151.8,82.8
			c-33.1,0-63.7-5.8-88.5-15.5L119.1,190.5z"/>
		<path class="st4" d="M118.1,183.7c22,8.3,49,13.1,77.8,13.1c76,0,137.7-33.5,137.7-75c0-21.2-19.5-48.8-69.3-48.8
			c-36.1,0-67.5,15.9-67.5,35.5c0,3.4,2,7.3,4.6,9.9c4,4.6,5.2,10.3,5.2,15.5c0,24-35.7,43.3-79.6,43.3c-29,0-55.6-8.1-68.7-21.2
			c-10.5-10.5-13.9-22.4-13.9-34.3c0-45.8,67.9-82.8,151.6-82.8c83.9,0,151.8,37.1,151.8,82.8c0,45.8-67.9,82.8-151.8,82.8
			c-33.1,0-63.7-5.8-88.5-15.5L118.1,183.7z"/>
	</g>
	<text transform="matrix(0.9606 0.2779 -0.2779 0.9606 110.7272 226.7483)" class="st5 st6">W</text>
	<g>
		<defs>
			<rect id="SVGID_3_" width="390.6" height="275.6"/>
		</defs>
		<clipPath id="SVGID_4_">
			<use xlink:href="#SVGID_3_"  style="overflow:visible;"/>
		</clipPath>
		<polygon class="st7" points="130.1,233.6 133.2,234.5 145.8,212.9 143.2,212.2 132.6,230.8 133.3,209.3 130.5,208.5 119.7,226.9 
			120.6,205.6 117.9,204.8 117.1,229.8 120.1,230.7 130.8,212.5 		"/>
	</g>
	<text transform="matrix(0.9855 0.1694 -0.1694 0.9855 141.7954 235.3219)" class="st5 st6">E</text>
	<g>
		<defs>
			<rect id="SVGID_5_" width="390.6" height="275.6"/>
		</defs>
		<clipPath id="SVGID_6_">
			<use xlink:href="#SVGID_5_"  style="overflow:visible;"/>
		</clipPath>
		<polygon class="st8" points="159.5,237.1 147.5,235 149.1,225.5 160.3,227.5 160.7,225.1 149.5,223.2 150.8,215.9 162.8,218 
			163.2,215.6 148.4,213 144.3,236.9 159.1,239.5 		"/>
	</g>
	<text transform="matrix(0.9961 8.876999e-02 -8.876999e-02 0.9961 161.7712 238.6853)" class="st5 st6">B</text>
	<g>
		<defs>
			<rect id="SVGID_7_" width="390.6" height="275.6"/>
		</defs>
		<clipPath id="SVGID_8_">
			<use xlink:href="#SVGID_7_"  style="overflow:visible;"/>
		</clipPath>
		<path class="st9" d="M176.1,240.5c1-0.3,1.9-0.8,2.7-1.4c0.7-0.6,1.3-1.3,1.7-2.1c0.4-0.8,0.6-1.7,0.7-2.5c0.1-0.8,0-1.6-0.2-2.3
			c-0.2-0.7-0.5-1.4-1-1.9c-0.4-0.6-1-1-1.6-1.4c-0.6-0.4-1.4-0.7-2.2-0.9l0-0.1c1.4-0.3,2.5-0.8,3.3-1.7c0.9-0.9,1.3-2,1.5-3.4
			c0.1-0.7,0-1.5-0.3-2.1c-0.2-0.7-0.6-1.3-1.2-1.8c-0.6-0.5-1.2-1-2.1-1.4c-0.8-0.4-1.8-0.6-2.9-0.7l-8.1-0.7l-2.2,24.1l8.2,0.7
			C173.9,241,175.1,240.9,176.1,240.5z M177,230.5c0.9,0.9,1.3,2.1,1.1,3.7c-0.1,1.4-0.7,2.6-1.7,3.3c-1,0.8-2.3,1.1-4,0.9l-5-0.4
			l0.8-9.5l4.4,0.4C174.6,229,176.1,229.6,177,230.5z M177.1,220.1c0.7,0.6,1,1.6,0.9,2.8c-0.1,1.5-0.7,2.5-1.6,3
			c-1,0.5-2.2,0.7-3.8,0.6l-4.2-0.4l0.7-7.6l4.5,0.4C175.2,219.1,176.3,219.5,177.1,220.1z"/>
	</g>
	<text transform="matrix(0.9994 3.444000e-02 -3.444000e-02 0.9994 182.5016 240.4133)" class="st5 st6"> </text>
	<text transform="matrix(0.9996 -2.967000e-02 2.967000e-02 0.9996 190.3768 240.9097)" class="st5 st10">접</text>
	<g>
		<defs>
			<rect id="SVGID_9_" width="390.6" height="275.6"/>
		</defs>
		<clipPath id="SVGID_10_">
			<use xlink:href="#SVGID_9_"  style="overflow:visible;"/>
		</clipPath>
		<path class="st11" d="M198.9,241.9l-0.1-3.6l11.7-0.3l0.1,3.6L198.9,241.9z M212.8,233.4l-2.5,0.1l0.1,2.4l-11.7,0.3l-0.1-2.3
			l-2.5,0.1l0.3,10.1l16.6-0.5L212.8,233.4z M210.1,225.8l0.2,6.2l2.5-0.1l-0.4-14.3l-2.5,0.1l0.2,5.9l-4.7,0.1l0.1,2.2L210.1,225.8
			z M203.4,222.6c0.5-1.1,0.8-2.4,0.9-3.6c-1.4,0.1-2.6,0.1-3.9,0.2c-1.2,0-2.5,0.1-3.7,0.1l-4.4,0.1l0.1,2.1l2.6-0.1
			c1,0,2.1-0.1,3.1-0.1c1,0,2.1-0.1,3.1-0.2c-0.2,1-0.7,2-1.3,3c-0.6,1-1.4,1.9-2.4,2.8c-0.9,0.9-2,1.7-3.1,2.4
			c-1.2,0.7-2.4,1.4-3.6,1.8l1.7,1.7c1.2-0.5,2.5-1.2,3.9-2.1c1.4-0.9,2.7-2,3.9-3.3c0.9,0.9,1.8,1.7,2.9,2.5
			c1.1,0.7,2.1,1.4,3.2,1.9l1.5-1.9c-0.5-0.2-1.1-0.5-1.6-0.8c-0.6-0.3-1.1-0.6-1.7-1c-0.6-0.4-1.1-0.7-1.6-1.2
			c-0.5-0.4-0.9-0.8-1.3-1.3C202.3,224.9,202.9,223.8,203.4,222.6z"/>
	</g>
	<text transform="matrix(0.991 -0.134 0.134 0.991 217.7285 240.0404)" class="st5 st10">근</text>
	<g>
		<defs>
			<rect id="SVGID_11_" width="390.6" height="275.6"/>
		</defs>
		<clipPath id="SVGID_12_">
			<use xlink:href="#SVGID_11_"  style="overflow:visible;"/>
		</clipPath>
		<path class="st12" d="M239.6,238.4l-14.9,2l-0.9-6.6l-2.5,0.3l1.2,8.7l17.4-2.4L239.6,238.4z M216.6,229.4l0.3,2.1l25-3.4
			l-0.3-2.1l-4.9,0.7c0-0.7,0-1.5-0.1-2.3c0-0.9-0.1-1.8-0.1-2.7c-0.1-1-0.1-1.9-0.2-3c-0.1-1-0.2-2-0.3-3.1l-17.1,2.3l0.3,2.2
			l14.6-2c0.2,1.4,0.3,2.9,0.4,4.5c0.1,1.5,0.1,3,0.1,4.5L216.6,229.4z"/>
	</g>
	<text transform="matrix(0.9697 -0.2442 0.2442 0.9697 244.8563 236.3047)" class="st5 st10">성</text>
	<path class="st13" d="M264.2,231.5c-0.1,0.4-0.4,0.8-0.9,1.2c-0.4,0.4-1,0.8-1.7,1.1c-0.7,0.4-1.6,0.7-2.6,0.9
		c-1,0.3-1.9,0.4-2.7,0.4c-0.8,0-1.5,0-2-0.2c-0.6-0.1-1-0.4-1.3-0.7c-0.3-0.3-0.5-0.6-0.6-1c-0.1-0.4-0.1-0.8,0.1-1.2
		c0.1-0.4,0.4-0.8,0.9-1.2c0.4-0.4,1-0.8,1.7-1.1c0.7-0.4,1.6-0.7,2.6-0.9c1-0.3,1.9-0.4,2.8-0.4c0.8,0,1.5,0,2.1,0.2
		c0.6,0.2,1,0.4,1.3,0.7c0.3,0.3,0.5,0.6,0.6,1C264.4,230.7,264.3,231.1,264.2,231.5z M265.8,227.8c-0.5-0.5-1.2-0.9-2-1.2
		c-0.8-0.3-1.8-0.4-2.9-0.4c-1.1,0-2.4,0.2-3.8,0.6c-1.4,0.4-2.6,0.8-3.6,1.3c-1,0.5-1.8,1.1-2.4,1.7c-0.6,0.6-1,1.3-1.2,2
		c-0.2,0.7-0.2,1.4,0,2.1c0.2,0.7,0.5,1.3,1,1.8c0.5,0.5,1.2,0.9,2,1.2c0.8,0.3,1.8,0.4,2.9,0.4c1.1,0,2.4-0.2,3.8-0.5
		c1.4-0.4,2.6-0.8,3.6-1.3c1-0.5,1.8-1.1,2.4-1.7c0.6-0.6,1-1.3,1.2-2c0.2-0.7,0.2-1.4,0-2.1S266.3,228.4,265.8,227.8z M260.8,217.1
		l2,7.8l2.4-0.6l-3.9-15.4l-2.4,0.6l1.4,5.5l-5.2,1.3l0.5,2.2L260.8,217.1z M247.3,213.1c0.9,2.8,0.9,5.3,0.2,7.6
		c-0.7,2.3-2.1,4.4-4.2,6.4l2.1,1.2c1.2-1.1,2.2-2.4,3-3.8c0.8-1.4,1.4-2.8,1.7-4.4c1,1,2.2,1.9,3.5,2.6c1.3,0.7,2.7,1.3,4.2,1.6
		l1.1-2.1c-1.8-0.4-3.3-1-4.7-1.8c-1.4-0.8-2.6-1.8-3.8-3.1c0-0.8,0-1.5-0.1-2.3c-0.1-0.8-0.3-1.6-0.5-2.5L247.3,213.1z"/>
	<path class="st14" d="M75.2,53.9c-1.4-3.5-2.8-5.9-3.9-7.9l-8.3,5l-1.5-2.5l11.4-6.8l1.1,1.8c1.3,2.2,2.9,4.9,4.5,8.9L75.2,53.9z
		 M75.1,57.7c2.1-1.4,4.2-2.8,6.1-4.3l1.5,2.2c-4,3.5-9,6.5-12.8,8.9l-1.9-2.4c1.2-0.7,2.6-1.5,4-2.4l-3.9-6.6l3.1-1.9L75.1,57.7z
		 M86.6,46.2l-3,1.8L90,58.6l-3.2,1.9L73.4,38.2l3.2-1.9l5.4,9l3-1.8L86.6,46.2z"/>
	<path class="st14" d="M104.6,29.8l-14.2,5.5l-1.1-2.7l5.4-2.1l-0.9-2.3l3.5-1.3l0.9,2.3l5.4-2.1L104.6,29.8z M101.2,42.2
		c-3.5,1.3-6.6,0.5-7.7-2.2c-1-2.6,0.8-5.4,4.2-6.7c3.5-1.3,6.6-0.5,7.6,2.2C106.4,38.1,104.7,40.9,101.2,42.2 M100.2,39.6
		c1.5-0.6,2.4-1.6,1.9-2.9c-0.5-1.2-1.8-1.4-3.3-0.8c-1.6,0.6-2.4,1.6-1.9,2.8C97.3,40,98.6,40.2,100.2,39.6 M97.6,45.5l16.1-6.2
		l3.1,8.1l-3.5,1.3l-2-5.3l-12.6,4.9L97.6,45.5z M114.2,31l-3.2,1.2l2.3,6.1l-3.5,1.3L104,24.4l3.5-1.3l2.4,6.2l3.2-1.2L114.2,31z"
		/>
	<path class="st14" d="M133.5,18.7c1.8,7.7,0.7,14.7-7.2,21.1l-2.6-2.4c5.7-4.6,7.6-9.2,6.8-14.9l-8.4,2l-0.7-2.9L133.5,18.7z
		 M140.4,14.3l5.9,25.3l-3.6,0.9l-5.9-25.3L140.4,14.3z"/>
	<path class="st14" d="M166.2,23.9l0.2,1.7l7-0.8l0.8,6.7L160,33l0.2,1.5l14.8-1.7l0.3,2.8l-18.4,2.1l-0.8-6.8l14.1-1.6l-0.2-1.4
		l-14.1,1.6l-0.3-2.7l7.1-0.8l-0.2-1.7l-9.8,1.1l-0.3-2.9l23.2-2.7l0.3,2.9L166.2,23.9z M173.1,19c-4.5,0-7.9-1.3-9.8-3.5
		c-1.4,2.5-4.4,4.6-8.8,5.6l-1.5-2.6c5.7-1.2,8.2-4.1,7.9-6.6l-0.1-0.5l3.8-0.4l0.1,0.5c0.3,2.5,3.4,4.8,9.2,4.7L173.1,19z"/>
	<path class="st14" d="M197.3,23.8c-2.8-0.9-4.8-2.7-5.9-5c-1.1,2.6-3.1,4.8-6.1,5.8l-1.9-2.9c4.1-1.5,5.9-4.8,6-8l-5.1,0l0-3
		l13.9-0.1l0,3l-5,0c0.1,3,2,6,5.9,7.2L197.3,23.8z M205.3,30c0,3.2-3.3,5-8.8,5.1c-5.5,0.1-8.9-1.8-8.9-4.9c0-3.2,3.3-5,8.8-5.1
		C201.9,25.1,205.3,26.9,205.3,30 M201.6,30.1c0-1.5-1.8-2.2-5.2-2.1c-3.4,0-5.2,0.8-5.2,2.2c0,1.5,1.8,2.2,5.2,2.1
		C199.9,32.3,201.6,31.5,201.6,30.1 M201.4,15.3l-0.1-6.3l3.7,0l0.1,15.5l-3.7,0l-0.1-6.2l-3.9,0l0-3L201.4,15.3z"/>
	<path class="st14" d="M237.1,31.6l-0.3,3l-23.3-2.4l0.3-3l9.8,1l0.5-4.7l-7.3-0.7l1.4-13.5l3.7,0.4l-0.4,4l11,1.1l0.4-4l3.6,0.4
		l-1.4,13.5l-7.3-0.7l-0.5,4.7L237.1,31.6z M220.7,22.2l11,1.1l0.4-3.6l-11-1.1L220.7,22.2z"/>
	<path class="st14" d="M268,31.3l-0.6,2.8l-22.9-5l0.6-2.8l9.6,2.1l0.3-1.6l-6.8-1.5l2.4-10.9l17.4,3.8l-0.6,2.8l-13.8-3l-0.3,1.3
		l13.2,2.9l-0.6,2.6L252.9,22l-0.3,1.4l14,3.1l-0.6,2.8l-7.2-1.6l-0.3,1.6L268,31.3z M263.6,38.9c-0.6,2.7-4.1,3.5-9.7,2.2
		c-5.5-1.2-8.4-3.4-7.8-6.1c0.6-2.7,4.1-3.5,9.7-2.2C261.3,34,264.2,36.1,263.6,38.9 M259.9,38.1c0.2-1-1.3-1.8-4.8-2.6
		c-3.5-0.8-5.2-0.7-5.4,0.4c-0.2,1,1.3,1.9,4.8,2.6C258,39.2,259.7,39.1,259.9,38.1"/>
	<path class="st14" d="M293.1,49.6l-1,2.8l-16.8-6.1l2.9-7.9l3.5,1.3l-1.9,5.1L293.1,49.6z M288,39.7c-2.4-1.9-3.5-4.4-3.8-7.1
		c-2,2.1-4.6,3.4-7.8,3.3l-0.8-3.4c4.5,0.1,7.5-2.7,8.7-5.9l0.9-2.4l3.5,1.3l-0.9,2.4c-1.2,3.2-0.6,6.9,2.9,9.7L288,39.7z M293.8,46
		l-3.5-1.3l6.5-17.8l3.5,1.3L293.8,46z"/>
	<path class="st14" d="M322.8,60.1l-8.7-4.9l-4,7l-3.2-1.8l4-7l-8.5-4.8l1.5-2.6l20.4,11.6L322.8,60.1z M323.1,54.1l-15.6-8.9
		l5.7-10l3.2,1.8l-1.5,2.6l9.3,5.3l1.5-2.6l3.2,1.8L323.1,54.1z M322.7,47.4l-9.3-5.3l-1.3,2.3l9.3,5.3L322.7,47.4z"/>
	<polygon class="st15" points="124,149.7 111.7,149.7 110,109.3 83.9,149.7 71.6,149.7 71.5,83.1 86.9,83.1 85.9,125.1 112.4,83.1 
		123.4,83.1 124.6,125.1 149,83.1 164.4,83.1 	"/>
	<path class="st15" d="M174.5,150.3l0.2-11.8h-18.6l-6.5,11.8h-17.8l40.2-66.8h17.6l2.8,66.8H174.5z M175.6,103.2l-13.7,24.3h13.4
		L175.6,103.2z"/>
	<rect class="st16" width="390.6" height="275.6"/>
</g>
<g id="나눔바른고딕_1_">
	<g>
		<path class="st17" d="M33.2,224.2l-9-7.4l3.8-4.6l1.8,1.5l-0.7,0.8l5.4,4.5l0.9-1l1.8,1.5L33.2,224.2z M32.6,221.2l0.8-0.9
			l-5.4-4.5l-0.8,0.9L32.6,221.2z M30.1,213.3l-1.6-1.4l1.8-2.2c-0.2-0.2-0.5-0.4-0.7-0.5c-0.2-0.2-0.4-0.4-0.6-0.5l-1.4-1.2
			l1.2-1.4l1.4,1.2c0.4,0.3,0.8,0.7,1.3,1c0.5,0.4,0.9,0.7,1.4,1.1c0.5,0.4,1,0.7,1.5,1.1c0.5,0.4,1,0.7,1.5,1l-1.1,1.4
			c-0.4-0.3-0.9-0.5-1.3-0.8c-0.4-0.3-0.9-0.6-1.4-0.9L30.1,213.3z M32.7,208.4c-0.4-0.4-0.8-0.7-1-1.1c-0.3-0.4-0.4-0.8-0.5-1.2
			c-0.1-0.4-0.1-0.8,0-1.2c0.1-0.4,0.3-0.8,0.6-1.1c0.3-0.3,0.6-0.6,1-0.8s0.8-0.3,1.2-0.3c0.4,0,0.9,0.1,1.3,0.2s0.9,0.4,1.3,0.8
			c0.4,0.3,0.7,0.7,1,1.1c0.3,0.4,0.4,0.8,0.5,1.3c0.1,0.4,0.1,0.9,0,1.3c-0.1,0.4-0.3,0.8-0.6,1.1c-0.3,0.3-0.6,0.6-1,0.8
			c-0.4,0.2-0.8,0.3-1.2,0.3c-0.4,0-0.8-0.1-1.3-0.3C33.6,209,33.1,208.7,32.7,208.4z M31.6,213.4l1-1.3l2,1.6l5.8-7l1.6,1.4l-7.4,9
			l-1.6-1.4l0.5-0.7L31.6,213.4z M33.8,207.1c0.4,0.3,0.8,0.5,1.1,0.5s0.7-0.2,0.9-0.5c0.2-0.3,0.3-0.6,0.3-1s-0.2-0.7-0.6-1
			s-0.7-0.4-1.1-0.4s-0.7,0.2-0.9,0.5c-0.2,0.3-0.3,0.6-0.3,1C33.2,206.4,33.4,206.8,33.8,207.1z M43.1,208.7l1.7,1.4l-7.3,8.8
			l-1.7-1.4L43.1,208.7z"/>
		<path class="st17" d="M43.4,216.1c0.4-0.5,0.8-1,1.3-1.3s1.1-0.6,1.6-0.7c0.6-0.1,1.2-0.1,1.8,0c0.6,0.1,1.2,0.4,1.7,0.7
			s1,0.8,1.3,1.3c0.3,0.5,0.6,1,0.7,1.6c0.1,0.6,0.1,1.2,0,1.8c-0.1,0.6-0.4,1.2-0.7,1.7c-0.3,0.5-0.7,0.8-1.1,1.1
			c-0.4,0.3-0.8,0.5-1.3,0.7c-0.5,0.1-0.9,0.2-1.4,0.2c-0.5,0-1-0.1-1.4-0.3l-1.5,2.2c0.7,0.4,1.3,0.8,2,1.1c0.7,0.4,1.3,0.7,1.9,1
			l-1.1,1.7c-0.6-0.3-1.2-0.6-1.9-1c-0.7-0.4-1.3-0.7-2-1.1c-0.7-0.4-1.3-0.8-2-1.2s-1.3-0.8-1.8-1.2l-2-1.4l1.2-1.7l2,1.3
			c0.3,0.2,0.6,0.4,0.9,0.6s0.6,0.4,0.9,0.6l1.5-2.2c-0.4-0.4-0.6-0.8-0.8-1.3c-0.2-0.5-0.3-0.9-0.4-1.4c0-0.5,0-1,0.1-1.5
			C42.8,217,43,216.5,43.4,216.1z M45.3,217.4c-0.4,0.7-0.6,1.3-0.5,1.9c0.1,0.6,0.4,1.1,1,1.4c0.6,0.4,1.1,0.5,1.7,0.4
			c0.6-0.1,1.1-0.5,1.6-1.2c0.5-0.7,0.6-1.3,0.5-1.9c-0.1-0.6-0.4-1.1-1-1.5c-0.5-0.4-1.1-0.5-1.7-0.4
			C46.3,216.3,45.8,216.7,45.3,217.4z M54.4,227.7l-2.1-1.4l-5.3,7.8l-1.9-1.3l10.4-15.4l1.9,1.3l-4,5.9l2.1,1.4L54.4,227.7z"/>
		<path class="st17" d="M61.7,231.8c0.1,1,0.2,1.9,0.5,2.7c0.3,0.8,0.6,1.7,1,2.6l-2.2,0.8c-0.4-0.9-0.6-1.7-0.9-2.5
			s-0.4-1.6-0.5-2.5c-1,0.4-2.1,0.7-3.1,0.9s-2.1,0.3-3.2,0.3l-0.5-2.2c1,0,2,0,2.9-0.2s1.9-0.4,2.7-0.7c0.8-0.3,1.6-0.7,2.3-1.1
			s1.2-0.9,1.6-1.4c-0.4-0.2-0.8-0.4-1.4-0.7c-0.6-0.3-1.2-0.7-1.8-1l-1.7-1l1-1.8l2.6,1.5c0.7,0.4,1.4,0.8,2.2,1.2
			c0.8,0.4,1.6,0.9,2.6,1.4c-0.6,0.8-1.2,1.5-1.9,2.2C63.2,230.8,62.5,231.4,61.7,231.8z M60.3,223.7l1-1.8l5,2.8l-1,1.8L60.3,223.7
			z M70.2,226.1l2,1.1l-9,16.2l-2-1.1L70.2,226.1z"/>
		<path class="st17" d="M72,237.5c0.4-0.8,0.8-1.5,1.4-2.2c0.5-0.7,1.1-1.3,1.8-1.9c0.7-0.6,1.4-1.1,2.1-1.6
			c0.7-0.5,1.5-0.9,2.3-1.2l1.7,0.8c-1,0.5-1.8,1.1-2.6,1.6c-0.7,0.6-1.4,1.1-2,1.7c-0.6,0.6-1.1,1.2-1.5,1.8
			c-0.4,0.6-0.8,1.3-1.1,1.9c-0.6,1.3-1,2.7-1.3,4.4c-0.2,1.6-0.2,3.5,0.1,5.6l-1.7-0.8c-0.2-0.8-0.4-1.6-0.5-2.5
			c-0.1-0.9-0.1-1.8-0.1-2.7c0-0.9,0.2-1.8,0.4-2.6C71.3,239.1,71.6,238.2,72,237.5z"/>
		<path class="st17" d="M90.1,236.6l-2,10.9l-0.4,1.6l0.9-1.4l6.2-9.1l2.3,0.9l-9.3,12.9l-2.3-1l2-11.1l0.4-1.6l-0.9,1.4l-6.4,9.2
			l-2.3-1l2.5-15.7l2.3,0.9l-2.1,10.8l-0.4,1.6l0.9-1.4l6.3-9.1L90.1,236.6z"/>
		<path class="st17" d="M101.7,253.9c0.1,0,0.1,0,0.2,0s0.1,0.1,0,0.2l-0.7,1.9c-0.5,0.3-1.1,0.5-1.9,0.5c-0.8,0-1.6-0.2-2.4-0.5
			c-0.7-0.3-1.3-0.6-1.9-1.1c-0.5-0.5-0.9-1-1.2-1.6c-0.3-0.6-0.4-1.3-0.4-2.1s0.1-1.6,0.5-2.4c0.3-0.8,0.7-1.5,1.2-2.1
			c0.5-0.6,1-1.1,1.6-1.4c0.6-0.3,1.2-0.6,1.9-0.6c0.7-0.1,1.4,0,2.1,0.3c1.4,0.5,2.4,1.4,2.8,2.5s0.3,2.6-0.3,4.4l-0.3,0.8
			l-7.1-2.5l0,0.1c-0.3,1.1-0.3,1.9,0.1,2.7c0.3,0.7,1,1.2,1.8,1.5c0.6,0.2,1.3,0.3,2,0.2S101.1,254.2,101.7,253.9z M96.7,248.2
			l4.6,1.6l0-0.1c0.3-0.8,0.3-1.5,0.1-2.1c-0.2-0.6-0.7-1-1.3-1.2c-0.6-0.2-1.2-0.2-1.9,0.1C97.6,246.9,97.1,247.5,96.7,248.2
			L96.7,248.2z"/>
		<path class="st17" d="M111.7,248.3c0.5,0.2,1,0.4,1.4,0.8c0.4,0.4,0.7,0.8,1,1.4c0.2,0.6,0.4,1.2,0.4,1.9c0,0.7-0.1,1.6-0.4,2.5
			c-0.3,1-0.7,1.8-1.1,2.5s-0.9,1.2-1.5,1.5c-0.5,0.4-1.1,0.6-1.7,0.7c-0.6,0.1-1.2,0-1.9-0.2c-0.5-0.2-1-0.4-1.4-0.8
			c-0.4-0.4-0.6-0.8-0.7-1.4l0,0l-0.5,1.2l-2.2-0.7l4.8-15.8l2.3,0.7l-1.9,6.1l0,0c0.5-0.4,1-0.6,1.6-0.7
			C110.6,248.1,111.1,248.2,111.7,248.3z M107.2,252.4l-0.5,1.7c-0.3,0.9-0.2,1.6,0.1,2.2c0.3,0.6,0.8,0.9,1.4,1.1
			c0.8,0.2,1.4,0.1,2-0.4c0.6-0.5,1.1-1.4,1.5-2.8c0.4-1.2,0.4-2.1,0.2-2.8c-0.2-0.7-0.6-1.2-1.3-1.4c-0.3-0.1-0.7-0.1-1-0.1
			s-0.7,0.2-1,0.4c-0.3,0.2-0.6,0.5-0.8,0.8C107.6,251.6,107.4,252,107.2,252.4z"/>
		<path class="st17" d="M127,248.4l-0.3,11l-0.1,1.6l0.6-1.5l4.7-10l2.4,0.6l-7.3,14.1l-2.5-0.6l0.3-11.3l0.1-1.6l-0.6,1.5
			l-4.9,10.1l-2.5-0.6L117,246l2.4,0.6l-0.4,11l-0.1,1.6l0.6-1.5l4.8-9.9L127,248.4z"/>
		<path class="st17" d="M134,257.5c-0.1,0-0.1,0-0.2,0c-0.1,0-0.1-0.1-0.1-0.2l0.4-2.1c0.7-0.3,1.4-0.5,2.1-0.6
			c0.7-0.1,1.5-0.1,2.3,0.1c1.3,0.2,2.1,0.7,2.6,1.5c0.5,0.8,0.6,1.8,0.3,3.2l-1.4,7.5l-2.1-0.4l0.1-1.4l0,0
			c-0.4,0.4-0.9,0.7-1.5,0.9c-0.6,0.2-1.2,0.2-1.9,0.1c-1.1-0.2-1.9-0.7-2.4-1.4c-0.5-0.7-0.6-1.6-0.4-2.6c0.2-1,0.7-1.8,1.4-2.4
			c0.8-0.6,1.7-0.8,2.9-0.8l2.9,0.1l0-0.1c0.1-0.7,0.1-1.2-0.1-1.6s-0.6-0.6-1.3-0.7c-0.6-0.1-1.2-0.1-1.8,0S134.8,257.1,134,257.5z
			 M138.7,262.1l0.2-1.2l-2.3-0.1c-0.6,0-1.2,0.1-1.6,0.4c-0.4,0.3-0.7,0.7-0.8,1.3c-0.1,0.5,0,0.9,0.2,1.2c0.2,0.3,0.6,0.5,1.1,0.6
			c0.3,0.1,0.7,0.1,1,0s0.7-0.2,1-0.4c0.3-0.2,0.5-0.5,0.8-0.7C138.5,262.7,138.6,262.4,138.7,262.1z"/>
		<path class="st17" d="M147.9,265.8c0.1,0,0.1,0,0.2,0c0.1,0,0.1,0.1,0.1,0.2l-0.3,1.7c-0.3,0.2-0.7,0.3-1.1,0.4
			c-0.4,0-0.8,0-1.3,0c-0.9-0.2-1.6-0.5-1.9-1.1s-0.4-1.3-0.3-2.2l1.1-6.7l-1.7-0.3l0.3-1.9l1.7,0.3l0.4-2.6l2.3,0.4l-0.4,2.6
			l2.6,0.4l-0.3,1.9l-2.6-0.4l-1,6.4c-0.1,0.4,0,0.7,0.1,0.9s0.3,0.3,0.6,0.4c0.3,0.1,0.6,0.1,0.9,0
			C147.4,266.1,147.7,266,147.9,265.8z"/>
		<path class="st17" d="M158,261.4c-0.3-0.5-0.7-0.9-1.2-1.2c-0.4-0.3-1-0.5-1.6-0.6c-0.5-0.1-1,0-1.4,0.1c-0.4,0.1-0.8,0.4-1,0.7
			s-0.5,0.7-0.7,1.2s-0.3,1-0.4,1.5c-0.2,1.2,0,2.1,0.4,2.9s1.1,1.2,2.2,1.3c0.6,0.1,1.2,0,1.7-0.2s1-0.5,1.5-1
			c0.1-0.1,0.1-0.1,0.2,0c0.1,0,0.1,0.1,0.1,0.2l-0.3,2.2c-0.5,0.4-1.1,0.7-1.6,0.8s-1.2,0.1-1.9,0c-0.8-0.1-1.5-0.3-2.1-0.7
			c-0.6-0.3-1.2-0.8-1.6-1.3c-0.4-0.5-0.7-1.2-0.9-2c-0.2-0.8-0.2-1.6-0.1-2.6c0.1-0.9,0.4-1.7,0.7-2.4c0.4-0.7,0.8-1.3,1.3-1.7
			s1.2-0.8,1.9-1c0.7-0.2,1.5-0.2,2.3-0.1c0.6,0.1,1.2,0.3,1.7,0.5c0.5,0.3,1,0.6,1.4,1.1l-0.3,2.1c0,0.1,0,0.1-0.1,0.1
			C158.1,261.5,158.1,261.4,158,261.4z"/>
		<path class="st17" d="M159,269.7l1.6-16.5l2.4,0.2l-0.7,6.6l0,0c0.4-0.4,0.8-0.8,1.4-1s1.2-0.4,1.8-0.3c1.2,0.1,2.1,0.6,2.6,1.4
			s0.7,2,0.6,3.5l-0.7,7l-2.3-0.2l0.7-7.1c0.1-0.9,0-1.6-0.3-2c-0.3-0.4-0.7-0.6-1.3-0.7c-0.3,0-0.7,0-1,0.1
			c-0.3,0.1-0.6,0.3-0.9,0.6c-0.3,0.3-0.5,0.6-0.6,1c-0.2,0.4-0.3,0.9-0.3,1.4l-0.6,6.1L159,269.7z"/>
		<path class="st17" d="M175.7,263.9c-0.1,0.8-0.2,1.7-0.5,2.5c-0.3,0.9-0.6,1.7-1,2.5c-0.4,0.8-0.9,1.5-1.4,2.3
			c-0.5,0.7-1.1,1.4-1.6,1.9l-1.9-0.1c1.3-1.7,2.3-3.3,2.9-4.8c0.6-1.5,1-3,1-4.4c0-0.7,0-1.5,0-2.2s-0.2-1.5-0.4-2.3
			c-0.2-0.8-0.5-1.6-0.9-2.5c-0.4-0.9-0.8-1.7-1.4-2.7l1.9,0.1c0.5,0.7,1,1.4,1.4,2.2c0.4,0.8,0.8,1.6,1.1,2.4
			c0.3,0.8,0.5,1.7,0.6,2.5C175.7,262.1,175.8,263,175.7,263.9z"/>
		<path class="st17" d="M184.3,259.6c-0.1,0.1-0.1,0.1-0.2,0c-0.1,0-0.1-0.1-0.1-0.2l0-2c0.6-0.5,1.2-0.9,1.9-1.2
			c0.7-0.3,1.5-0.5,2.3-0.4c1.4,0,2.5,0.4,3.3,1.1c0.8,0.7,1.1,1.8,1.1,3.2c0,0.5-0.1,0.9-0.2,1.4c-0.2,0.5-0.4,0.9-0.6,1.4
			c-0.3,0.5-0.6,0.9-0.9,1.3c-0.4,0.4-0.7,0.9-1.1,1.3l-3.7,3.9l0,0l6.6,0.1l0,2l-9.3-0.2l0-1.9l4.5-5c0.5-0.5,0.9-1,1.2-1.4
			c0.3-0.4,0.5-0.8,0.7-1.2c0.2-0.4,0.3-0.7,0.4-1c0.1-0.3,0.1-0.6,0.1-0.9c0-0.6-0.2-1.2-0.5-1.6c-0.3-0.4-0.9-0.6-1.6-0.7
			c-0.6,0-1.3,0.1-1.9,0.4C185.6,258.5,185,259,184.3,259.6z"/>
		<path class="st17" d="M194.4,264c0-2.8,0.4-4.8,1.2-6.1c0.8-1.3,2-1.9,3.6-2s2.8,0.6,3.7,1.9s1.3,3.3,1.4,6.1s-0.3,4.8-1.2,6.1
			c-0.8,1.3-2,1.9-3.6,2s-2.8-0.6-3.7-1.9S194.4,266.8,194.4,264z M196.8,263.9c0,2.1,0.3,3.7,0.8,4.6c0.5,0.9,1.1,1.4,1.9,1.4
			c0.8,0,1.4-0.5,1.9-1.5c0.4-1,0.6-2.5,0.6-4.6c0-2.1-0.3-3.7-0.8-4.6c-0.5-0.9-1.1-1.4-1.9-1.4c-0.8,0-1.4,0.5-1.9,1.5
			C196.9,260.3,196.7,261.8,196.8,263.9z"/>
		<path class="st17" d="M206.4,259.5c-0.1,0.1-0.1,0.1-0.2,0c-0.1,0-0.1-0.1-0.1-0.2l-0.1-2c0.5-0.5,1.1-1,1.8-1.4
			c0.7-0.4,1.5-0.6,2.3-0.6c1.4-0.1,2.5,0.2,3.4,0.9c0.8,0.6,1.3,1.7,1.3,3.1c0,0.5,0,0.9-0.1,1.4c-0.1,0.5-0.3,1-0.5,1.4
			c-0.2,0.5-0.5,0.9-0.8,1.4c-0.3,0.5-0.7,0.9-1,1.4l-3.4,4.2l0,0l6.6-0.3l0.1,2l-9.3,0.5l-0.1-1.9l4.2-5.3c0.4-0.5,0.8-1,1-1.5
			c0.3-0.4,0.5-0.8,0.6-1.2c0.2-0.4,0.3-0.7,0.3-1c0-0.3,0.1-0.6,0-0.9c0-0.6-0.2-1.2-0.6-1.5c-0.4-0.4-0.9-0.6-1.7-0.5
			c-0.6,0-1.3,0.2-1.9,0.6C207.6,258.3,207,258.8,206.4,259.5z"/>
		<path class="st17" d="M217.8,267c0.8,0.6,1.5,1,2.2,1.3c0.7,0.2,1.4,0.3,2.2,0.2c0.4,0,0.7-0.1,1-0.3s0.6-0.3,0.8-0.6
			s0.4-0.5,0.5-0.8c0.1-0.3,0.1-0.7,0.1-1.1c-0.1-0.9-0.4-1.6-0.9-2c-0.5-0.4-1.4-0.5-2.6-0.4l-0.5,0l-0.2-2l0.5,0
			c0.4-0.1,0.8-0.1,1.1-0.2s0.6-0.3,0.9-0.5s0.4-0.5,0.6-0.8c0.1-0.3,0.2-0.8,0.1-1.3c-0.1-0.8-0.3-1.3-0.8-1.6s-1-0.4-1.7-0.4
			c-0.3,0-0.6,0.1-0.9,0.2s-0.6,0.2-0.9,0.3c-0.3,0.2-0.6,0.3-0.9,0.6c-0.3,0.2-0.6,0.5-0.9,0.9c-0.1,0.1-0.1,0.1-0.2,0
			c-0.1,0-0.1-0.1-0.1-0.2l-0.2-2c0.4-0.4,0.9-0.8,1.6-1.2c0.7-0.4,1.4-0.6,2.3-0.7c1.5-0.1,2.6,0.1,3.5,0.7
			c0.9,0.6,1.4,1.6,1.5,2.8c0,0.5,0,0.9-0.1,1.3c-0.1,0.4-0.3,0.8-0.5,1.1c-0.2,0.3-0.5,0.6-0.8,0.9s-0.7,0.4-1.1,0.5l0,0
			c1,0.1,1.8,0.5,2.4,1c0.6,0.6,1,1.4,1.1,2.4c0.1,0.6,0,1.2-0.2,1.7s-0.5,1.1-0.8,1.5s-0.9,0.8-1.5,1.2c-0.6,0.3-1.3,0.5-2.1,0.6
			c-0.9,0.1-1.7,0-2.5-0.2c-0.8-0.2-1.5-0.6-2.1-1.1l-0.2-2.1c0-0.1,0-0.1,0.1-0.2C217.6,267,217.7,267,217.8,267z"/>
		<path class="st17" d="M230.4,266.6c0.5-0.1,0.9,0.1,1.2,0.3s0.5,0.7,0.6,1.1c0.1,0.4-0.1,0.8-0.3,1.2c-0.3,0.4-0.6,0.6-1.1,0.6
			c-0.5,0.1-0.9-0.1-1.2-0.3c-0.3-0.3-0.5-0.6-0.6-1.1c-0.1-0.4,0.1-0.8,0.3-1.2C229.6,266.8,230,266.6,230.4,266.6z"/>
		<path class="st17" d="M234.7,257.3c-0.1,0.1-0.2,0-0.3-0.1l-0.2-1.4c0.5-0.3,0.9-0.7,1.3-1.1c0.4-0.4,0.7-0.9,1-1.4l2.3-0.3
			l2.3,15.3l-2.3,0.3l-1.9-12.9l0,0c-0.3,0.4-0.7,0.7-1.1,1C235.5,256.8,235.1,257,234.7,257.3z"/>
		<path class="st17" d="M247.4,264.1c0.5-0.1,0.9,0,1.2,0.3c0.4,0.3,0.6,0.6,0.7,1.1c0.1,0.4,0,0.8-0.3,1.2
			c-0.3,0.4-0.6,0.6-1.1,0.7c-0.5,0.1-0.9,0-1.2-0.3c-0.4-0.3-0.6-0.6-0.7-1c-0.1-0.4,0-0.8,0.3-1.2S247,264.1,247.4,264.1z"/>
		<path class="st17" d="M250.4,254.5c-0.1,0.1-0.1,0.1-0.2,0.1c-0.1,0-0.1-0.1-0.1-0.1l-0.4-1.9c0.4-0.6,1-1.2,1.6-1.6
			s1.4-0.8,2.2-0.9c1.4-0.3,2.5-0.2,3.4,0.3c0.9,0.5,1.5,1.5,1.8,2.8c0.1,0.5,0.1,0.9,0.1,1.4s-0.2,1-0.3,1.5
			c-0.2,0.5-0.4,1-0.6,1.5s-0.5,1-0.8,1.5l-2.7,4.7l0,0l6.5-1.3l0.4,2l-9.1,1.9l-0.4-1.8l3.3-5.9c0.3-0.6,0.6-1.1,0.8-1.6
			s0.3-0.9,0.4-1.3c0.1-0.4,0.1-0.7,0.1-1.1s0-0.6-0.1-0.9c-0.1-0.6-0.4-1.1-0.8-1.4c-0.4-0.3-1-0.4-1.8-0.3
			c-0.6,0.1-1.2,0.4-1.8,0.8C251.4,253.1,250.9,253.7,250.4,254.5z"/>
		<path class="st17" d="M267.1,262.9l-2.4,0.6l2.1-14.3l-7,1.7l-0.5-1.9l9.4-2.3l0.5,1.9L267.1,262.9z"/>
		<path class="st17" d="M275.7,252.6c-0.4,0.1-0.8,0.4-1,0.8c-0.3,0.4-0.4,0.8-0.5,1.3c0,0.1-0.1,0.2-0.2,0.2c-0.1,0-0.2,0-0.2-0.2
			l-0.6-2c0.1-0.6,0.3-1,0.7-1.4c0.4-0.4,0.8-0.7,1.3-0.8c0.8-0.2,1.6-0.2,2.3,0.2c0.4,0.2,0.7,0.3,0.9,0.3c0.2,0.1,0.5,0.1,0.8,0
			c0.4-0.1,0.8-0.4,1-0.7s0.4-0.8,0.5-1.3c0-0.1,0.1-0.2,0.2-0.2c0.1,0,0.2,0,0.2,0.2l0.6,2c-0.1,0.6-0.3,1-0.7,1.4
			c-0.4,0.4-0.8,0.7-1.3,0.8c-0.4,0.1-0.8,0.2-1.2,0.1s-0.8-0.1-1.2-0.3c-0.4-0.2-0.7-0.3-0.9-0.4
			C276.3,252.5,276,252.5,275.7,252.6z"/>
		<path class="st17" d="M284,245.7c0,0.1-0.1,0.1-0.1,0.1s-0.1-0.1-0.1-0.1l-0.6-1.9c0.3-0.7,0.8-1.3,1.4-1.8c0.6-0.5,1.3-0.9,2-1.2
			c1.3-0.5,2.5-0.5,3.5-0.1c1,0.4,1.7,1.3,2.1,2.6c0.2,0.4,0.2,0.9,0.3,1.4s0,1-0.1,1.5c-0.1,0.5-0.2,1-0.4,1.6
			c-0.2,0.5-0.4,1.1-0.6,1.6l-2.1,5l0,0l6.3-2.2l0.7,1.9l-8.8,3.1l-0.6-1.8l2.5-6.3c0.3-0.6,0.5-1.2,0.6-1.7
			c0.1-0.5,0.2-0.9,0.3-1.3s0-0.8,0-1.1c0-0.3-0.1-0.6-0.2-0.9c-0.2-0.6-0.6-1-1-1.3c-0.5-0.3-1.1-0.3-1.8,0
			c-0.6,0.2-1.2,0.6-1.7,1.1C284.8,244.3,284.4,244.9,284,245.7z"/>
		<path class="st17" d="M295,246.3c-1-2.6-1.4-4.7-1.1-6.2c0.3-1.5,1.2-2.5,2.7-3.1c1.5-0.6,2.8-0.4,4.1,0.4s2.4,2.6,3.5,5.2
			c1,2.6,1.4,4.7,1.1,6.2c-0.3,1.5-1.2,2.5-2.7,3.1c-1.5,0.6-2.8,0.4-4.1-0.4S296,248.9,295,246.3z M297.2,245.4
			c0.8,2,1.6,3.3,2.3,4c0.8,0.7,1.5,0.9,2.3,0.6s1.1-1,1.2-2c0.1-1.1-0.3-2.6-1.1-4.5c-0.8-2-1.6-3.3-2.3-4
			c-0.8-0.7-1.5-0.9-2.3-0.6c-0.7,0.3-1.1,1-1.2,2S296.4,243.5,297.2,245.4z"/>
		<path class="st17" d="M304.6,237.9c0,0.1-0.1,0.1-0.1,0.1c-0.1,0-0.1,0-0.1-0.1l-0.8-1.8c0.3-0.7,0.7-1.3,1.2-1.9s1.2-1.1,1.9-1.4
			c1.3-0.6,2.4-0.7,3.4-0.4c1,0.3,1.8,1.1,2.4,2.4c0.2,0.4,0.3,0.9,0.4,1.4c0.1,0.5,0.1,1,0,1.5c0,0.5-0.1,1.1-0.3,1.6
			c-0.1,0.5-0.3,1.1-0.4,1.6l-1.6,5.1l0,0l6-2.7l0.8,1.8l-8.5,3.9l-0.8-1.7l1.9-6.5c0.2-0.7,0.3-1.2,0.4-1.8c0.1-0.5,0.1-1,0.1-1.4
			c0-0.4,0-0.8-0.1-1.1c-0.1-0.3-0.2-0.6-0.3-0.9c-0.3-0.6-0.6-1-1.1-1.2c-0.5-0.2-1.1-0.2-1.8,0.1c-0.6,0.3-1.1,0.7-1.6,1.2
			C305.3,236.4,304.9,237.1,304.6,237.9z"/>
		<path class="st17" d="M317.3,241.4l-1-1.8l1-11.8l2.2-1.1l4.6,9l1.8-1l0.9,1.8l-1.8,1l1.6,3l-2.1,1.1l-1.6-3L317.3,241.4z
			 M318.1,238.8L318.1,238.8l4.1-2.1l-3-5.7l-0.6-1.2l0,1.5L318.1,238.8z"/>
		<path class="st17" d="M329.6,235.4c0.4-0.2,0.8-0.3,1.3-0.2c0.4,0.1,0.8,0.4,1,0.8c0.2,0.4,0.3,0.8,0.2,1.2
			c-0.1,0.4-0.4,0.8-0.8,1c-0.4,0.2-0.8,0.3-1.2,0.2c-0.4-0.1-0.8-0.4-1-0.8s-0.3-0.8-0.2-1.2C328.9,235.9,329.2,235.6,329.6,235.4z
			"/>
		<path class="st17" d="M329.9,225.1c-0.1,0.1-0.2,0.1-0.3,0l-0.8-1.2c0.3-0.5,0.6-1,0.8-1.6c0.2-0.6,0.3-1.1,0.4-1.7l2-1.3
			l8.2,13.1l-2,1.3l-6.9-11.1l0,0c-0.2,0.5-0.3,0.9-0.6,1.3C330.4,224.4,330.2,224.8,329.9,225.1z"/>
		<path class="st17" d="M344.3,226.2c0.4-0.3,0.8-0.4,1.2-0.3c0.4,0.1,0.8,0.3,1,0.7c0.2,0.4,0.3,0.8,0.3,1.2
			c-0.1,0.4-0.3,0.8-0.7,1.1c-0.4,0.3-0.8,0.3-1.2,0.3c-0.4-0.1-0.8-0.3-1-0.7c-0.2-0.4-0.3-0.8-0.3-1.2
			C343.7,226.8,343.9,226.4,344.3,226.2z"/>
		<path class="st17" d="M343,216.2c0,0.1-0.1,0.1-0.1,0.1c-0.1,0-0.1,0-0.2-0.1l-1.2-1.6c0.1-0.7,0.4-1.5,0.8-2.2
			c0.4-0.7,0.9-1.3,1.6-1.8c1.1-0.9,2.2-1.2,3.3-1.2s2,0.7,2.8,1.8c0.3,0.4,0.5,0.8,0.7,1.3c0.2,0.5,0.3,1,0.4,1.5s0.1,1.1,0.1,1.6
			c0,0.6,0,1.1-0.1,1.7l-0.4,5.4l0,0l5.3-4l1.2,1.6l-7.5,5.6l-1.1-1.5l0.5-6.8c0.1-0.7,0.1-1.3,0-1.8c0-0.5-0.1-1-0.2-1.4
			c-0.1-0.4-0.2-0.7-0.3-1c-0.1-0.3-0.3-0.6-0.5-0.8c-0.4-0.5-0.8-0.8-1.4-0.9c-0.5-0.1-1.1,0.1-1.7,0.5c-0.5,0.4-0.9,0.9-1.3,1.5
			C343.4,214.6,343.1,215.4,343,216.2z"/>
		<path class="st17" d="M357.1,203.6c-0.4,0-0.9,0.1-1.3,0.3s-0.9,0.4-1.4,0.8c-0.4,0.3-0.7,0.7-0.8,1.2c-0.2,0.5-0.2,1-0.2,1.6
			c0,0.6,0.2,1.2,0.4,1.8s0.6,1.2,1,1.9l0,0c-0.1-0.7,0-1.3,0.2-1.9c0.3-0.6,0.6-1.1,1.1-1.5c0.5-0.4,1-0.7,1.6-0.9s1.1-0.2,1.7-0.1
			s1.2,0.3,1.7,0.7c0.6,0.4,1.1,0.8,1.6,1.4c0.5,0.6,0.9,1.2,1.2,1.9c0.3,0.7,0.4,1.3,0.4,1.9c0,0.6-0.2,1.3-0.4,1.8
			c-0.3,0.6-0.7,1.1-1.2,1.6c-0.7,0.6-1.3,0.9-2,1.1c-0.7,0.1-1.4,0.1-2.1-0.1c-0.7-0.2-1.4-0.6-2.1-1.1c-0.7-0.5-1.4-1.2-2.1-2
			c-0.9-1-1.6-2.1-2.1-3.1c-0.5-1-0.8-2-0.9-2.9c-0.1-0.9,0-1.8,0.3-2.6s0.8-1.5,1.4-2.1c0.5-0.4,1-0.8,1.5-1
			c0.5-0.2,0.9-0.4,1.4-0.4l1.2,1.4c0.1,0.1,0.1,0.1,0,0.2S357.2,203.6,357.1,203.6z M357.3,213.7c0.3,0.4,0.6,0.6,1,0.8
			s0.7,0.4,1.1,0.4c0.4,0.1,0.7,0.1,1.1,0s0.6-0.2,0.9-0.4c0.3-0.3,0.5-0.6,0.6-0.9c0.1-0.3,0.2-0.7,0.1-1c0-0.4-0.1-0.7-0.3-1.1
			s-0.4-0.8-0.7-1.1c-0.7-0.8-1.4-1.3-2.1-1.4c-0.7-0.1-1.3,0-1.9,0.5c-0.6,0.6-0.9,1.2-0.8,1.9S356.8,212.9,357.3,213.7z"/>
	</g>
</g>
<g id="나눔바른고딕_사본" class="st18">
	<g class="st19">
		<path id="SVGID_x5F_13_x5F_" class="st16" d="M405.1,163.8c0-80.7-95.8-146.1-213.9-146.1C73.1,17.7-22.7,83.1-22.7,163.8
			c0,80.7,95.8,146.1,213.9,146.1C309.3,309.9,405.1,244.5,405.1,163.8z"/>
		<text>		<textPath  xlink:href="#SVGID_x5F_13_x5F_" startOffset="217680.1719%">
<tspan  style="fill:#FFFFFF;stroke:#000000;stroke-linejoin:round;stroke-miterlimit:1; font-family:'NanumBarunGothicBold'; font-size:20px;">웹와치(WebWatch) 2023.1.26~2024.1.25</tspan>		</textPath>
</text>
	</g>
</g>
<g id="나눔바른고딕_outline">
	<g class="st18">
		<g class="st19">
			<path class="st17" d="M33.2,224.9c-0.2,0-0.3-0.1-0.5-0.2l-9-7.4c-0.1-0.1-0.2-0.3-0.3-0.5c0-0.2,0-0.4,0.2-0.5l3.8-4.6
				c0.1-0.2,0.3-0.2,0.5-0.3c0,0,1.4-1.7,1.4-1.7c0,0-2.2-1.8-2.2-1.8c-0.3-0.2-0.3-0.7-0.1-1l1.2-1.4c0.1-0.1,0.3-0.2,0.5-0.3
				c0,0,0,0,0.1,0c0.2,0,0.3,0.1,0.5,0.2c0,0,1.5,1.2,1.5,1.2c0-0.1-0.1-0.3-0.1-0.4c-0.1-0.5-0.1-1,0-1.5c0.1-0.5,0.4-1,0.7-1.4
				c0.3-0.4,0.8-0.7,1.2-1c0.5-0.2,1-0.3,1.5-0.4c0,0,0,0,0,0c0.6,0,1.1,0.1,1.5,0.3c0.5,0.2,1,0.5,1.5,0.9c0.5,0.4,0.9,0.8,1.1,1.3
				c0.3,0.5,0.5,1,0.6,1.5c0.1,0.5,0.1,1.1,0,1.6c0,0.1-0.1,0.2-0.1,0.3l1.2-1.5c0.1-0.2,0.3-0.3,0.5-0.3c0.2,0,0.3,0.1,0.5,0.2
				l1.6,1.4c0.1,0.1,0.2,0.3,0.3,0.5c0,0,0,0,0,0.1c0.1,0,0.2-0.1,0.3-0.1c0,0,0,0,0.1,0c0.2,0,0.3,0.1,0.5,0.2l1.7,1.4
				c0.3,0.2,0.3,0.7,0.1,1l-7.3,8.8c-0.1,0.1-0.2,0.2-0.3,0.2c0,0.1-0.1,0.2-0.1,0.3l-3.9,4.8C33.6,224.8,33.4,224.8,33.2,224.9
				C33.2,224.9,33.2,224.9,33.2,224.9z M34.4,217.9l0.2-0.2c-0.1,0-0.2-0.1-0.3-0.1l-1.6-1.4c-0.1-0.1-0.2-0.3-0.3-0.5
				c0-0.2,0-0.4,0.2-0.5l0.1-0.1l-1.4-1.2c-0.2-0.1-0.3-0.3-0.3-0.5l-0.2,0.3c-0.1,0.1-0.2,0.2-0.3,0.2c0,0.1-0.1,0.1-0.1,0.2
				l-0.2,0.3L34.4,217.9z M35.4,210.2c0.3,0.2,0.6,0.4,0.9,0.6l0.8-1c-0.1,0.1-0.2,0.1-0.3,0.1C36.3,210.1,35.9,210.2,35.4,210.2z
				 M34.5,205.3c-0.2,0-0.3,0.1-0.4,0.2c-0.2,0.2-0.2,0.3-0.2,0.4c0,0.2,0.2,0.4,0.4,0.5c0.2,0.2,0.4,0.3,0.6,0.3
				c0.1,0,0.3,0,0.4-0.2c0.1-0.1,0.2-0.3,0.1-0.5c0-0.1,0-0.3-0.4-0.6C34.8,205.4,34.7,205.3,34.5,205.3L34.5,205.3z"/>
			<path d="M34.1,202.7c0.4,0,0.8,0.1,1.2,0.2c0.4,0.2,0.9,0.4,1.3,0.8c0.4,0.3,0.7,0.7,1,1.1c0.3,0.4,0.4,0.8,0.5,1.3
				c0.1,0.4,0.1,0.9,0,1.3c-0.1,0.4-0.3,0.8-0.6,1.1c-0.3,0.3-0.6,0.6-1,0.8c-0.4,0.2-0.8,0.3-1.2,0.3c0,0,0,0,0,0
				c-0.4,0-0.8-0.1-1.3-0.3c-0.4-0.2-0.9-0.4-1.3-0.8c-0.4-0.4-0.8-0.7-1-1.1c-0.3-0.4-0.4-0.8-0.5-1.2c-0.1-0.4-0.1-0.8,0-1.2
				c0.1-0.4,0.3-0.8,0.6-1.1c0.3-0.3,0.6-0.6,1-0.8C33.2,202.8,33.6,202.7,34.1,202.7C34,202.7,34.1,202.7,34.1,202.7 M34.8,207.5
				C34.9,207.5,34.9,207.5,34.8,207.5c0.4,0,0.7-0.2,1-0.5c0.2-0.3,0.3-0.6,0.3-1s-0.2-0.7-0.6-1c-0.3-0.3-0.7-0.4-1-0.4
				c0,0-0.1,0-0.1,0c-0.4,0-0.7,0.2-0.9,0.5c-0.2,0.3-0.3,0.6-0.3,1c0,0.4,0.3,0.7,0.6,1C34.2,207.4,34.5,207.5,34.8,207.5
				 M28.7,206l1.4,1.2c0.4,0.3,0.8,0.7,1.3,1c0.5,0.4,0.9,0.7,1.4,1.1c0.5,0.4,1,0.7,1.5,1.1c0.5,0.4,1,0.7,1.5,1l-1.1,1.4
				c-0.4-0.3-0.9-0.5-1.3-0.8c-0.4-0.3-0.9-0.6-1.4-0.9l-1.9,2.3l-1.6-1.4l1.8-2.2c-0.2-0.2-0.5-0.4-0.7-0.5
				c-0.2-0.2-0.4-0.4-0.6-0.5l-1.4-1.2L28.7,206 M40.4,206.7l1.6,1.4l-7.4,9l-1.6-1.4l0.5-0.7l-2-1.6l1-1.3l2,1.6L40.4,206.7
				 M43.1,208.7l1.7,1.4l-7.3,8.8l-1.7-1.4L43.1,208.7 M28,212.2l1.8,1.5l-0.7,0.8l5.4,4.5l0.9-1l1.8,1.5l-3.9,4.8l-9-7.4L28,212.2
				 M32.6,221.2l0.8-0.9l-5.4-4.5l-0.8,0.9L32.6,221.2 M34.1,201.3l-0.1,0c-0.6,0-1.2,0.2-1.8,0.4c-0.6,0.3-1.1,0.7-1.5,1.2
				c-0.4,0.5-0.7,1.1-0.9,1.7c0,0.2-0.1,0.4-0.1,0.5l-0.1-0.1c-0.3-0.2-0.6-0.3-0.9-0.3c0,0-0.1,0-0.1,0c-0.4,0-0.7,0.2-1,0.5
				l-1.2,1.4c-0.5,0.6-0.4,1.5,0.2,2l1.4,1.2l0.2,0.2l-0.8,0.9c-0.3,0.1-0.5,0.2-0.7,0.5l-3.8,4.6c-0.2,0.3-0.4,0.7-0.3,1
				c0,0.4,0.2,0.7,0.5,1l9,7.4c0.3,0.2,0.6,0.3,0.9,0.3c0,0,0.1,0,0.1,0c0.4,0,0.7-0.2,1-0.5l3.9-4.8c0.1-0.1,0.1-0.2,0.2-0.3
				c0.1-0.1,0.2-0.1,0.2-0.2l7.3-8.8c0.5-0.6,0.4-1.5-0.2-2l-1.7-1.4c-0.2-0.2-0.5-0.3-0.8-0.3c-0.1-0.1-0.2-0.2-0.3-0.3l-1.6-1.4
				c-0.3-0.2-0.6-0.3-0.9-0.3c-0.4,0-0.7,0.1-1,0.4c-0.1-0.6-0.3-1.1-0.7-1.7c-0.3-0.5-0.8-1-1.3-1.5c-0.5-0.4-1.1-0.8-1.7-1
				C35.2,201.4,34.7,201.3,34.1,201.3L34.1,201.3z"/>
		</g>
		<g class="st19">
			<path class="st17" d="M47,234.8c-0.1,0-0.3,0-0.4-0.1l-1.9-1.3c-0.2-0.1-0.3-0.3-0.3-0.5s0-0.4,0.1-0.5l2-2.9
				c-0.5-0.3-1.1-0.6-1.7-0.9c-0.7-0.4-1.3-0.7-2-1.2c-0.7-0.4-1.3-0.8-2-1.2c-0.7-0.4-1.3-0.8-1.9-1.2l-2-1.4
				c-0.3-0.2-0.4-0.7-0.2-1l1.2-1.7c0.1-0.2,0.4-0.3,0.6-0.3c0.1,0,0.3,0,0.4,0.1c0,0,3.1,2.1,3.2,2.2l0.8-1.2
				c-0.2-0.3-0.4-0.7-0.6-1c-0.2-0.5-0.4-1.1-0.4-1.7c0-0.6,0-1.2,0.2-1.7c0.1-0.6,0.4-1.1,0.8-1.7c0.4-0.6,0.9-1.1,1.5-1.5
				s1.2-0.6,1.9-0.8c0.3-0.1,0.6-0.1,0.9-0.1c0.4,0,0.7,0,1.1,0.1c0.7,0.1,1.3,0.4,2,0.8c0.6,0.4,1.1,0.9,1.5,1.5
				c0.4,0.6,0.6,1.2,0.8,1.9c0.1,0.7,0.1,1.3,0,2c-0.1,0.7-0.4,1.4-0.8,2c-0.3,0.5-0.8,1-1.2,1.3c-0.5,0.4-1,0.6-1.5,0.8
				c-0.5,0.2-1,0.2-1.6,0.2c-0.4,0-0.8-0.1-1.2-0.2l-0.7,1.1c0.4,0.3,0.9,0.5,1.3,0.7c0.6,0.3,1.2,0.7,1.8,1l6.5-9.6
				c0.1-0.2,0.4-0.3,0.6-0.3c0.1,0,0.3,0,0.4,0.1l1.9,1.3c0.2,0.1,0.3,0.3,0.3,0.5s0,0.4-0.1,0.5l-3.6,5.3l1.5,1
				c0.3,0.2,0.4,0.7,0.2,1l-1.2,1.7c-0.1,0.2-0.3,0.3-0.5,0.3c0,0-0.1,0-0.1,0c-0.1,0-0.3,0-0.4-0.1l-1.5-1l-4.9,7.2
				C47.4,234.7,47.2,234.8,47,234.8z M47.4,216.8c-0.1,0-0.2,0-0.3,0c-0.4,0.1-0.8,0.4-1.1,0.9c-0.3,0.5-0.5,1-0.4,1.4
				c0.1,0.4,0.3,0.7,0.7,1c0.3,0.2,0.6,0.3,0.9,0.3c0.1,0,0.2,0,0.3,0c0.4-0.1,0.8-0.4,1.1-0.9c0.4-0.5,0.5-1,0.4-1.4
				c-0.1-0.4-0.3-0.7-0.7-1C47.9,216.9,47.7,216.8,47.4,216.8z"/>
			<path d="M47.1,214c0.3,0,0.6,0,1,0.1c0.6,0.1,1.2,0.4,1.7,0.7c0.5,0.4,1,0.8,1.3,1.3c0.3,0.5,0.6,1,0.7,1.6
				c0.1,0.6,0.1,1.2,0,1.8c-0.1,0.6-0.4,1.2-0.7,1.7c-0.3,0.5-0.7,0.8-1.1,1.1c-0.4,0.3-0.8,0.5-1.3,0.7c-0.4,0.1-0.9,0.2-1.3,0.2
				c0,0,0,0-0.1,0c-0.5,0-1-0.1-1.4-0.3l-1.5,2.2c0.7,0.4,1.3,0.8,2,1.1c0.7,0.4,1.3,0.7,1.9,1l-1.1,1.7c-0.6-0.3-1.2-0.6-1.9-1
				c-0.7-0.4-1.3-0.7-2-1.1c-0.7-0.4-1.3-0.8-2-1.2c-0.7-0.4-1.3-0.8-1.8-1.2l-2-1.4l1.2-1.7l2,1.3c0.3,0.2,0.6,0.4,0.9,0.6
				c0.3,0.2,0.6,0.4,0.9,0.6l1.5-2.2c-0.4-0.4-0.6-0.8-0.8-1.3c-0.2-0.5-0.3-0.9-0.4-1.4c0-0.5,0-1,0.1-1.5c0.1-0.5,0.4-1,0.7-1.4
				c0.4-0.5,0.8-1,1.3-1.3c0.5-0.3,1.1-0.6,1.6-0.7C46.6,214,46.8,214,47.1,214 M47.1,221.1c0.1,0,0.3,0,0.4,0
				c0.6-0.1,1.1-0.5,1.6-1.2c0.5-0.7,0.6-1.3,0.5-1.9c-0.1-0.6-0.4-1.1-1-1.5c-0.4-0.3-0.8-0.4-1.2-0.4c-0.2,0-0.3,0-0.5,0.1
				c-0.6,0.1-1.1,0.5-1.6,1.2c-0.4,0.7-0.6,1.3-0.5,1.9c0.1,0.6,0.4,1.1,1,1.4C46.2,221,46.7,221.1,47.1,221.1 M55.5,217.4l1.9,1.3
				l-4,5.9l2.1,1.4l-1.2,1.7l-2.1-1.4l-5.3,7.8l-1.9-1.3L55.5,217.4 M47.1,212.6C47.1,212.6,47.1,212.6,47.1,212.6
				c-0.4,0-0.7,0-1.1,0.1c-0.8,0.1-1.5,0.4-2.1,0.9c-0.7,0.4-1.2,1-1.7,1.7c-0.4,0.6-0.7,1.2-0.9,1.9c-0.2,0.7-0.2,1.3-0.2,2
				c0.1,0.7,0.2,1.3,0.5,1.9c0.1,0.2,0.2,0.5,0.4,0.7l-0.1,0.2l-0.5-0.3l-0.1-0.1l-2-1.3c-0.2-0.2-0.5-0.2-0.8-0.2
				c-0.1,0-0.2,0-0.3,0c-0.4,0.1-0.7,0.3-0.9,0.6l-1.2,1.7c-0.4,0.6-0.3,1.5,0.4,2l2,1.4c0.6,0.4,1.2,0.8,1.9,1.2
				c0.7,0.4,1.3,0.8,2,1.2c0.7,0.4,1.4,0.8,2.1,1.2c0.3,0.2,0.7,0.4,1,0.5l-1.5,2.3c-0.2,0.3-0.3,0.7-0.2,1.1
				c0.1,0.4,0.3,0.7,0.6,0.9l1.9,1.3c0.2,0.2,0.5,0.2,0.8,0.2c0.5,0,0.9-0.2,1.2-0.6l4.5-6.6l1,0.7c0.2,0.2,0.5,0.2,0.8,0.2
				c0.1,0,0.2,0,0.3,0c0.4-0.1,0.7-0.3,0.9-0.6l1.2-1.7c0.4-0.6,0.3-1.5-0.4-2l-1-0.6l3.2-4.7c0.2-0.3,0.3-0.7,0.2-1.1
				c-0.1-0.4-0.3-0.7-0.6-0.9l-1.9-1.3c-0.2-0.2-0.5-0.2-0.8-0.2c-0.5,0-0.9,0.2-1.2,0.6l-1.1,1.6c0-0.3,0-0.5-0.1-0.8
				c-0.2-0.7-0.4-1.5-0.9-2.1c-0.4-0.7-1-1.2-1.7-1.7c-0.7-0.5-1.4-0.8-2.2-0.9C47.9,212.6,47.5,212.6,47.1,212.6L47.1,212.6z
				 M47.1,219.7c-0.2,0-0.3-0.1-0.5-0.2c-0.3-0.2-0.4-0.4-0.4-0.5c0-0.3,0.1-0.6,0.3-0.8c0.2-0.4,0.5-0.6,0.7-0.6c0.1,0,0.1,0,0.2,0
				c0.1,0,0.2,0,0.5,0.2c0.3,0.2,0.4,0.4,0.4,0.5c0,0.2-0.1,0.5-0.3,0.9c-0.2,0.2-0.4,0.5-0.7,0.6C47.2,219.7,47.2,219.7,47.1,219.7
				L47.1,219.7z M47.3,224.7c0.6,0,1.2-0.1,1.8-0.3c0,0,0,0,0,0l-0.9,1.3c-0.4-0.2-0.8-0.4-1.2-0.7c-0.2-0.1-0.4-0.2-0.6-0.4l0-0.1
				C46.6,224.6,46.9,224.7,47.3,224.7L47.3,224.7L47.3,224.7z"/>
		</g>
		<g class="st19">
			<path class="st17" d="M63.2,244.1c-0.1,0-0.2,0-0.3-0.1l-2-1.1c-0.3-0.2-0.5-0.6-0.3-1l2.1-3.8l-1.4,0.5c-0.1,0-0.2,0-0.2,0
				c-0.3,0-0.5-0.2-0.7-0.4c-0.4-0.9-0.7-1.8-0.9-2.6c-0.2-0.6-0.3-1.1-0.4-1.7c-0.8,0.3-1.6,0.5-2.4,0.6c-1.1,0.2-2.2,0.3-3.3,0.3
				c0,0,0,0,0,0c-0.3,0-0.6-0.2-0.7-0.6l-0.5-2.2c0-0.2,0-0.4,0.1-0.6c0.1-0.2,0.3-0.3,0.5-0.3c0,0,0.4,0,0.4,0
				c0.8,0,1.7-0.1,2.5-0.2c0.9-0.1,1.8-0.4,2.6-0.7c0.8-0.3,1.5-0.6,2.1-1c0.3-0.2,0.6-0.4,0.8-0.6c-0.2-0.1-0.4-0.2-0.6-0.3l-3.5-2
				c-0.2-0.1-0.3-0.2-0.3-0.4c-0.1-0.2,0-0.4,0.1-0.5l1-1.8c0.1-0.2,0.2-0.3,0.4-0.3c0.1,0,0.1,0,0.2,0c0.1,0,0.2,0,0.3,0.1l0.8,0.5
				c0-0.2,0-0.3,0.1-0.5l1-1.8c0.1-0.2,0.2-0.3,0.4-0.3c0.1,0,0.1,0,0.2,0c0.1,0,0.2,0,0.3,0.1l5,2.8c0.3,0.2,0.5,0.6,0.3,1l-1,1.8
				c-0.1,0.1-0.2,0.3-0.4,0.3c0.2,0.1,0.3,0.2,0.5,0.3c0.2,0.1,0.3,0.3,0.4,0.5c0,0.2,0,0.4-0.1,0.6c-0.6,0.9-1.3,1.6-2,2.3
				c-0.6,0.5-1.2,1-1.9,1.5c0.1,0.8,0.2,1.5,0.4,2.2c0.2,0.6,0.4,1.3,0.7,2l5.9-10.6c0.1-0.2,0.4-0.4,0.6-0.4c0.1,0,0.2,0,0.3,0.1
				l2,1.1c0.2,0.1,0.3,0.2,0.3,0.4c0.1,0.2,0,0.4-0.1,0.5l-9,16.2c-0.1,0.2-0.2,0.3-0.4,0.3C63.3,244.1,63.2,244.1,63.2,244.1z"/>
			<path d="M61.3,221.8l5,2.8l-1,1.8l-5-2.8L61.3,221.8 M58.4,224l2.6,1.5c0.7,0.4,1.4,0.8,2.2,1.2c0.8,0.4,1.6,0.9,2.6,1.4
				c-0.6,0.8-1.2,1.5-1.9,2.2c-0.7,0.6-1.4,1.2-2.2,1.6c0.1,1,0.2,1.9,0.5,2.7c0.3,0.8,0.6,1.7,1,2.6l-2.2,0.8
				c-0.4-0.9-0.6-1.7-0.9-2.5c-0.2-0.8-0.4-1.6-0.5-2.5c-1,0.4-2.1,0.7-3.1,0.9s-2.1,0.3-3.2,0.3l-0.5-2.2c0.1,0,0.2,0,0.4,0
				c0.9,0,1.7-0.1,2.6-0.2c1-0.2,1.9-0.4,2.7-0.7c0.8-0.3,1.6-0.7,2.3-1.1c0.7-0.4,1.2-0.9,1.6-1.4c-0.4-0.2-0.8-0.4-1.4-0.7
				c-0.6-0.3-1.2-0.7-1.8-1l-1.8-1L58.4,224 M70.2,226.1l2,1.1l-9,16.2l-2-1.1L70.2,226.1 M61.3,220.4c-0.1,0-0.3,0-0.4,0.1
				c-0.4,0.1-0.7,0.3-0.9,0.7l-0.9,1.6l0,0c-0.2-0.1-0.5-0.2-0.7-0.2c-0.1,0-0.3,0-0.4,0.1c-0.4,0.1-0.7,0.3-0.9,0.7l-1,1.8
				c-0.2,0.3-0.2,0.7-0.1,1.1c0.1,0.4,0.3,0.7,0.7,0.9l1.8,1l0.5,0.3l0.9,0.5c-0.5,0.3-1.2,0.6-1.8,0.9c-0.8,0.3-1.6,0.5-2.5,0.6
				c-0.8,0.1-1.6,0.2-2.3,0.2c-0.1,0-0.2,0-0.3,0c0,0,0,0,0,0c-0.4,0-0.8,0.2-1.1,0.5c-0.3,0.3-0.4,0.8-0.3,1.2l0.5,2.2
				c0.1,0.7,0.7,1.1,1.4,1.1c0,0,0,0,0,0c1.1,0,2.3-0.1,3.4-0.3c0.6-0.1,1.2-0.2,1.8-0.4c0.1,0.3,0.2,0.7,0.2,1
				c0.2,0.9,0.5,1.8,0.9,2.7c0.2,0.6,0.8,0.9,1.3,0.9c0.1,0,0.1,0,0.2,0l-1.2,2.2c-0.4,0.7-0.1,1.5,0.5,1.9l2,1.1
				c0.2,0.1,0.5,0.2,0.7,0.2c0.1,0,0.3,0,0.4-0.1c0.4-0.1,0.7-0.3,0.9-0.7l9-16.2c0.2-0.3,0.2-0.7,0.1-1.1c-0.1-0.4-0.3-0.7-0.7-0.9
				l-2-1.1c-0.2-0.1-0.5-0.2-0.7-0.2c-0.5,0-1,0.3-1.2,0.7l-5.2,9.3c-0.1-0.2-0.1-0.3-0.2-0.5c-0.2-0.5-0.3-1-0.3-1.6
				c0.6-0.4,1.1-0.8,1.6-1.3c0.8-0.7,1.5-1.5,2.1-2.4c0.2-0.3,0.3-0.8,0.2-1.1c-0.1-0.3-0.2-0.6-0.5-0.8l0.9-1.6
				c0.4-0.7,0.1-1.5-0.5-1.9l-5-2.8C61.8,220.5,61.5,220.4,61.3,220.4L61.3,220.4z"/>
		</g>
		<g class="st19">
			<path class="st17" d="M73,249.2c-0.1,0-0.2,0-0.3-0.1l-1.7-0.8c-0.2-0.1-0.3-0.3-0.4-0.4c-0.2-0.8-0.4-1.7-0.5-2.6
				c-0.1-0.9-0.1-1.8-0.1-2.8c0-0.9,0.2-1.9,0.4-2.8c0.2-0.9,0.5-1.8,0.9-2.6c0.4-0.8,0.9-1.6,1.5-2.3c0.6-0.7,1.2-1.4,1.9-2
				c0.7-0.6,1.4-1.1,2.2-1.6c0.8-0.5,1.6-0.9,2.4-1.3c0.1,0,0.2-0.1,0.3-0.1c0.1,0,0.2,0,0.3,0.1l1.7,0.8c0.2,0.1,0.4,0.4,0.4,0.6
				c0,0.3-0.1,0.5-0.4,0.6c-0.9,0.5-1.7,1-2.5,1.6c-0.7,0.5-1.4,1.1-1.9,1.7c-0.5,0.6-1,1.1-1.4,1.7c-0.4,0.6-0.8,1.2-1.1,1.8
				c-0.6,1.2-1,2.6-1.2,4.2c-0.2,1.5-0.2,3.4,0.1,5.4c0,0.3-0.1,0.5-0.3,0.7C73.3,249.2,73.2,249.2,73,249.2z"/>
			<path d="M79.6,230.6l1.7,0.8c-1,0.5-1.8,1.1-2.6,1.6c-0.7,0.6-1.4,1.1-2,1.7c-0.6,0.6-1.1,1.2-1.5,1.8c-0.4,0.6-0.8,1.3-1.1,1.9
				c-0.6,1.3-1,2.7-1.3,4.4c-0.2,1.6-0.2,3.5,0.1,5.6l-1.7-0.8c-0.2-0.8-0.4-1.6-0.5-2.5c-0.1-0.9-0.1-1.8-0.1-2.7
				c0-0.9,0.2-1.8,0.4-2.6c0.2-0.9,0.5-1.7,0.8-2.4c0.4-0.8,0.8-1.5,1.4-2.2c0.5-0.7,1.1-1.3,1.8-1.9c0.7-0.6,1.4-1.1,2.1-1.6
				C78,231.4,78.8,231,79.6,230.6 M79.6,229.2c-0.2,0-0.4,0-0.6,0.1c-0.9,0.4-1.7,0.8-2.5,1.3c-0.8,0.5-1.6,1.1-2.3,1.7
				c-0.7,0.6-1.4,1.3-2,2.1c-0.6,0.8-1.1,1.6-1.5,2.5c-0.4,0.8-0.7,1.8-1,2.7c-0.2,0.9-0.4,1.9-0.4,2.9c0,1,0,1.9,0.1,2.9
				c0.1,1,0.3,1.9,0.5,2.7c0.1,0.4,0.4,0.7,0.7,0.9l1.7,0.8c0.2,0.1,0.4,0.1,0.6,0.1c0.3,0,0.6-0.1,0.8-0.3c0.4-0.3,0.6-0.8,0.6-1.4
				c-0.3-2-0.3-3.7-0.1-5.2c0.2-1.5,0.6-2.8,1.1-3.9c0.3-0.6,0.6-1.2,1-1.7c0.4-0.6,0.8-1.1,1.3-1.6c0.5-0.5,1.1-1.1,1.8-1.6
				c0.7-0.5,1.5-1,2.4-1.5c0.5-0.3,0.8-0.7,0.7-1.3c0-0.5-0.3-1-0.8-1.2l-1.7-0.8C80,229.3,79.8,229.2,79.6,229.2L79.6,229.2z"/>
		</g>
		<g class="st19">
			<path class="st17" d="M87.7,253.1c-0.1,0-0.2,0-0.3-0.1l-2.3-1c-0.3-0.1-0.5-0.5-0.4-0.8l1.7-9.1l-5.3,7.6
				c-0.1,0.2-0.4,0.3-0.6,0.3c-0.1,0-0.2,0-0.3-0.1l-2.3-1c-0.3-0.1-0.5-0.4-0.4-0.8l2.5-15.7c0-0.2,0.2-0.4,0.4-0.5
				c0.1-0.1,0.2-0.1,0.3-0.1c0.1,0,0.2,0,0.3,0.1l2.3,0.9c0.3,0.1,0.5,0.5,0.4,0.8l-1.7,8.8l5.1-7.4c0.1-0.2,0.4-0.3,0.6-0.3
				c0.1,0,0.2,0,0.3,0.1l2.5,1.1c0.3,0.1,0.5,0.5,0.4,0.8l-1.6,8.8l5-7.4c0.1-0.2,0.4-0.3,0.6-0.3c0.1,0,0.2,0,0.3,0.1l2.3,0.9
				c0.2,0.1,0.4,0.3,0.4,0.5c0.1,0.2,0,0.4-0.1,0.6l-9.3,12.9C88.1,253,87.9,253.1,87.7,253.1z"/>
			<path d="M80.6,232.7l2.3,0.9l-2.1,10.8l-0.4,1.6l0.9-1.4l6.3-9.1l2.5,1.1l-2,10.9l-0.4,1.6l0.9-1.4l6.2-9.1l2.3,0.9l-9.3,12.9
				l-2.3-1l2-11.1l0.4-1.6l-0.9,1.4l-6.4,9.2l-2.3-1L80.6,232.7 M80.6,231.3c-0.2,0-0.5,0.1-0.7,0.2c-0.4,0.2-0.6,0.6-0.7,1
				l-2.5,15.7c-0.1,0.6,0.3,1.3,0.9,1.5l2.3,1c0.2,0.1,0.4,0.1,0.5,0.1c0.5,0,0.9-0.2,1.2-0.6l3.4-4.9l-1.1,5.9
				c-0.1,0.7,0.2,1.3,0.9,1.6l2.3,1c0.2,0.1,0.4,0.1,0.5,0.1c0.4,0,0.9-0.2,1.1-0.6l9.3-12.9c0.3-0.4,0.3-0.8,0.2-1.2
				c-0.1-0.4-0.4-0.8-0.8-0.9l-2.3-0.9c-0.2-0.1-0.4-0.1-0.5-0.1c-0.5,0-0.9,0.2-1.2,0.6l-3.1,4.6l1-5.5c0.1-0.7-0.2-1.3-0.9-1.6
				l-2.5-1.1c-0.2-0.1-0.4-0.1-0.5-0.1c-0.5,0-0.9,0.2-1.2,0.6l-3.2,4.6l1.1-5.5c0.1-0.7-0.2-1.3-0.8-1.6l-2.3-0.9
				C81,231.3,80.8,231.3,80.6,231.3L80.6,231.3z"/>
		</g>
		<g class="st19">
			<path class="st17" d="M99.3,257.1c-0.8,0-1.7-0.2-2.6-0.5c-0.8-0.3-1.5-0.7-2.1-1.2c-0.6-0.5-1.1-1.2-1.4-1.9
				c-0.3-0.7-0.5-1.5-0.5-2.4c0-0.8,0.2-1.7,0.5-2.7c0.3-0.9,0.7-1.7,1.3-2.4c0.5-0.7,1.1-1.2,1.8-1.6c0.7-0.4,1.4-0.6,2.2-0.7
				c0.2,0,0.3,0,0.5,0c0.6,0,1.3,0.1,1.9,0.3c1.6,0.6,2.7,1.6,3.2,3c0.5,1.3,0.4,3-0.3,4.8l-0.3,0.8c-0.1,0.2-0.2,0.3-0.4,0.4
				c-0.1,0-0.2,0.1-0.3,0.1c-0.1,0-0.2,0-0.2,0l-6.3-2.2c-0.1,0.6,0,1.1,0.2,1.5c0.3,0.5,0.7,0.9,1.4,1.2c0.4,0.1,0.8,0.2,1.3,0.2
				c0.1,0,0.3,0,0.4,0c0.6-0.1,1.2-0.2,1.7-0.5c0.1,0,0.3-0.1,0.4-0.1c0.2,0,0.4,0.1,0.6,0.3c0.2,0.3,0.3,0.6,0.2,0.9l-0.7,1.9
				c-0.1,0.2-0.2,0.3-0.3,0.4c-0.6,0.4-1.3,0.6-2.2,0.6L99.3,257.1z M100.8,248.9c0.1-0.4,0-0.7-0.1-0.9c-0.1-0.4-0.4-0.6-0.9-0.8
				c-0.2-0.1-0.4-0.1-0.5-0.1c-0.3,0-0.5,0.1-0.8,0.2c-0.3,0.1-0.5,0.3-0.8,0.6L100.8,248.9z"/>
			<path d="M99.1,244.5c0.5,0,1.1,0.1,1.7,0.3c1.4,0.5,2.4,1.4,2.8,2.5c0.4,1.2,0.3,2.6-0.3,4.4l-0.3,0.8l-7.1-2.5l0,0.1
				c-0.3,1.1-0.3,1.9,0.1,2.7c0.3,0.7,1,1.2,1.8,1.5c0.5,0.2,1,0.3,1.5,0.3c0.2,0,0.3,0,0.5,0c0.7-0.1,1.3-0.2,1.9-0.5
				c0,0,0,0,0.1,0c0,0,0.1,0,0.1,0c0,0.1,0.1,0.1,0,0.2l-0.7,1.9c-0.5,0.3-1.1,0.5-1.8,0.5c0,0-0.1,0-0.1,0c-0.8,0-1.6-0.2-2.4-0.5
				c-0.7-0.3-1.3-0.6-1.9-1.1c-0.5-0.5-0.9-1-1.2-1.6c-0.3-0.6-0.4-1.3-0.4-2.1c0-0.8,0.1-1.6,0.5-2.4c0.3-0.8,0.7-1.5,1.2-2.1
				c0.5-0.6,1-1.1,1.6-1.4c0.6-0.3,1.2-0.6,1.9-0.6C98.8,244.5,98.9,244.5,99.1,244.5 M101.3,249.8L101.3,249.8
				c0.3-0.9,0.3-1.6,0.1-2.1c-0.2-0.6-0.7-1-1.3-1.2c-0.3-0.1-0.5-0.1-0.8-0.1c-0.4,0-0.7,0.1-1.1,0.3c-0.6,0.3-1.1,0.8-1.6,1.6l0,0
				L101.3,249.8 M99.1,243.1c-0.2,0-0.4,0-0.6,0c-0.9,0.1-1.7,0.4-2.5,0.8c-0.8,0.4-1.4,1-2,1.8c-0.6,0.7-1,1.6-1.4,2.6
				c-0.4,1-0.5,2-0.5,2.9c0,0.9,0.2,1.8,0.5,2.6c0.3,0.8,0.9,1.5,1.5,2.1c0.7,0.6,1.4,1,2.3,1.4c1,0.3,1.9,0.5,2.9,0.5l0.2,0
				c1,0,1.9-0.2,2.6-0.7c0.3-0.2,0.5-0.4,0.6-0.7l0.7-1.9c0.1-0.2,0.1-0.5,0.1-0.7c0.1,0,0.2-0.1,0.3-0.1c0.3-0.2,0.6-0.5,0.7-0.8
				l0.3-0.8c0.7-2,0.8-3.8,0.3-5.3c-0.6-1.6-1.8-2.8-3.7-3.4C100.5,243.2,99.8,243.1,99.1,243.1L99.1,243.1z M99.3,253
				c-0.3,0-0.7-0.1-1-0.2c-0.7-0.2-0.9-0.6-1-0.8c0,0,0-0.1-0.1-0.1l2.9,1c-0.2,0-0.3,0.1-0.5,0.1C99.5,253,99.4,253,99.3,253
				L99.3,253z"/>
		</g>
		<g class="st19">
			<path class="st17" d="M109.2,260.4c-0.5,0-1-0.1-1.5-0.2c-0.6-0.2-1.2-0.5-1.7-1c-0.1-0.1-0.1-0.1-0.2-0.2
				c-0.1,0.2-0.3,0.2-0.5,0.2c-0.1,0-0.1,0-0.2,0l-2.2-0.7c-0.4-0.1-0.6-0.5-0.5-0.9l4.8-15.8c0.1-0.3,0.4-0.5,0.7-0.5
				c0.1,0,0.1,0,0.2,0l2.3,0.7c0.2,0.1,0.3,0.2,0.4,0.3c0.1,0.2,0.1,0.4,0.1,0.5l-1.4,4.7c0.1,0,0.3-0.1,0.4-0.1c0.2,0,0.4,0,0.5,0
				c0.5,0,1,0.1,1.4,0.2c0.6,0.2,1.2,0.5,1.7,0.9c0.5,0.4,0.9,1,1.2,1.6c0.3,0.6,0.4,1.4,0.4,2.2c0,0.8-0.1,1.7-0.4,2.7
				c-0.3,1-0.7,1.9-1.2,2.7c-0.5,0.7-1.1,1.3-1.7,1.7c-0.6,0.4-1.3,0.7-2,0.8C109.6,260.3,109.4,260.4,109.2,260.4z M110,250.7
				c-0.1,0-0.2,0-0.3,0c-0.3,0-0.5,0.1-0.7,0.3c-0.2,0.2-0.5,0.4-0.6,0.6c-0.2,0.3-0.4,0.6-0.5,1l-0.5,1.7c-0.2,0.7-0.2,1.2,0,1.6
				c0.2,0.4,0.5,0.7,1,0.8c0.2,0,0.3,0.1,0.5,0.1c0.3,0,0.6-0.1,0.9-0.4c0.5-0.4,0.9-1.2,1.3-2.4c0.3-1,0.4-1.8,0.2-2.4
				c-0.1-0.5-0.4-0.8-0.8-0.9C110.3,250.7,110.2,250.7,110,250.7z"/>
			<path d="M107.9,242l2.3,0.7l-1.9,6.1l0,0c0.5-0.4,1-0.6,1.6-0.7c0.2,0,0.3,0,0.5,0c0.4,0,0.8,0.1,1.2,0.2c0.5,0.2,1,0.4,1.4,0.8
				c0.4,0.4,0.7,0.8,1,1.4c0.2,0.6,0.4,1.2,0.4,1.9c0,0.7-0.1,1.6-0.4,2.5c-0.3,1-0.7,1.8-1.1,2.5c-0.4,0.7-0.9,1.2-1.5,1.5
				c-0.5,0.4-1.1,0.6-1.7,0.7c-0.2,0-0.4,0-0.5,0c-0.4,0-0.9-0.1-1.3-0.2c-0.5-0.2-1-0.4-1.4-0.8c-0.4-0.4-0.6-0.8-0.7-1.4l0,0
				l-0.5,1.2l-2.2-0.7L107.9,242 M108.9,257.6c0.5,0,0.9-0.2,1.4-0.5c0.6-0.5,1.1-1.4,1.5-2.8c0.4-1.2,0.4-2.1,0.2-2.8
				c-0.2-0.7-0.6-1.2-1.3-1.4c-0.2-0.1-0.4-0.1-0.6-0.1c-0.1,0-0.3,0-0.4,0c-0.4,0.1-0.7,0.2-1,0.4c-0.3,0.2-0.6,0.5-0.8,0.8
				c-0.2,0.3-0.4,0.7-0.6,1.2l-0.5,1.7c-0.3,0.9-0.2,1.6,0.1,2.2c0.3,0.6,0.8,0.9,1.4,1.1C108.4,257.5,108.7,257.6,108.9,257.6
				 M107.9,240.6c-0.6,0-1.2,0.4-1.4,1l-4.8,15.8c-0.2,0.7,0.2,1.5,0.9,1.8l2.2,0.7c0.1,0,0.3,0.1,0.4,0.1c0.1,0,0.3,0,0.4-0.1
				c0.5,0.4,1.1,0.8,1.8,1c0.6,0.2,1.1,0.3,1.7,0.3c0.2,0,0.5,0,0.7,0c0.8-0.1,1.6-0.4,2.4-0.9c0.7-0.5,1.3-1.1,1.8-1.9
				c0.5-0.8,1-1.7,1.3-2.8c0.3-1,0.5-2,0.5-2.9c0-0.9-0.2-1.8-0.5-2.5c-0.3-0.7-0.8-1.4-1.3-1.9c-0.6-0.5-1.2-0.9-2-1.1
				c-0.5-0.2-1.1-0.2-1.6-0.2l1.1-3.6c0.1-0.4,0.1-0.7-0.1-1.1s-0.5-0.6-0.8-0.7l-2.3-0.7C108.2,240.6,108.1,240.6,107.9,240.6
				L107.9,240.6z M108.9,256.1c-0.1,0-0.2,0-0.3,0c-0.4-0.1-0.5-0.3-0.6-0.5c-0.1-0.2-0.1-0.6,0.1-1.1l0.5-1.7
				c0.1-0.3,0.2-0.6,0.4-0.8c0.1-0.2,0.3-0.4,0.5-0.5c0.2-0.1,0.3-0.2,0.5-0.2c0.1,0,0.1,0,0.1,0c0.1,0,0.1,0,0.2,0
				c0.1,0,0.3,0.1,0.3,0.4c0.1,0.3,0.1,0.8-0.2,2c-0.4,1.4-0.9,1.9-1.1,2.1C109.1,256.1,109,256.1,108.9,256.1L108.9,256.1z"/>
		</g>
		<g class="st19">
			<path class="st17" d="M127,265c-0.1,0-0.1,0-0.2,0l-2.5-0.6c-0.3-0.1-0.5-0.4-0.5-0.7l0.2-9.2l-4,8.3c-0.1,0.2-0.4,0.4-0.6,0.4
				c-0.1,0-0.1,0-0.2,0l-2.5-0.6c-0.3-0.1-0.5-0.4-0.5-0.7l0.1-15.9c0-0.2,0.1-0.4,0.3-0.6c0.1-0.1,0.3-0.2,0.4-0.2
				c0.1,0,0.1,0,0.2,0l2.4,0.6c0.3,0.1,0.6,0.4,0.5,0.7l-0.3,8.9l3.9-8.1c0.1-0.2,0.4-0.4,0.6-0.4c0.1,0,0.1,0,0.2,0l2.7,0.7
				c0.3,0.1,0.5,0.4,0.5,0.7l-0.2,9l3.8-8.1c0.1-0.3,0.4-0.4,0.6-0.4c0.1,0,0.1,0,0.2,0l2.4,0.6c0.2,0.1,0.4,0.2,0.5,0.4
				c0.1,0.2,0.1,0.4,0,0.6l-7.3,14.1C127.5,264.9,127.3,265,127,265z"/>
			<path d="M117,246l2.4,0.6l-0.4,11l-0.1,1.6l0.6-1.5l4.8-9.9l2.7,0.7l-0.3,11l-0.1,1.6l0.6-1.5l4.7-10l2.4,0.6l-7.3,14.1l-2.5-0.6
				l0.3-11.3l0.1-1.6l-0.6,1.5l-4.9,10.1l-2.5-0.6L117,246 M117,244.6c-0.3,0-0.6,0.1-0.9,0.3c-0.3,0.3-0.5,0.7-0.5,1.1l-0.1,15.9
				c0,0.7,0.4,1.2,1.1,1.4l2.5,0.6c0.1,0,0.2,0,0.3,0c0.5,0,1-0.3,1.3-0.8l2.6-5.4l-0.2,6c0,0.7,0.4,1.3,1.1,1.4l2.5,0.6
				c0.1,0,0.2,0,0.3,0c0.5,0,1-0.3,1.3-0.8l7.3-14.1c0.2-0.4,0.2-0.8,0-1.2c-0.2-0.4-0.5-0.7-1-0.8l-2.4-0.6c-0.1,0-0.2,0-0.3,0
				c-0.5,0-1,0.3-1.3,0.8l-2.4,5l0.1-5.6c0-0.7-0.4-1.3-1.1-1.4l-2.7-0.7c-0.1,0-0.2,0-0.3,0c-0.5,0-1,0.3-1.3,0.8l-2.4,5l0.2-5.6
				c0-0.7-0.4-1.3-1.1-1.4l-2.4-0.6C117.2,244.6,117.1,244.6,117,244.6L117,244.6z"/>
		</g>
		<g class="st19">
			<path class="st17" d="M140.1,267.6c0,0-0.1,0-0.1,0l-2.1-0.4c-0.3-0.1-0.6-0.4-0.6-0.7c-0.2,0.1-0.3,0.1-0.5,0.2
				c-0.4,0.1-0.9,0.2-1.3,0.2c-0.3,0-0.6,0-0.9-0.1c-1.3-0.3-2.3-0.8-2.9-1.7c-0.6-0.8-0.8-1.9-0.5-3.2c0.2-1.2,0.8-2.2,1.7-2.8
				c0.8-0.6,1.9-0.9,3.1-0.9l2.6,0c0-0.4,0-0.6-0.1-0.6c-0.1-0.1-0.4-0.3-0.8-0.4c-0.2,0-0.5-0.1-0.7-0.1c-0.3,0-0.5,0-0.8,0.1
				c-0.5,0.1-1.1,0.4-1.8,0.8c-0.2,0.1-0.3,0.1-0.5,0.1c-0.2,0-0.4-0.1-0.5-0.2c-0.2-0.2-0.3-0.5-0.3-0.9l0.4-2.1
				c0-0.2,0.2-0.4,0.4-0.5c0.7-0.3,1.5-0.6,2.3-0.7c0.3,0,0.7-0.1,1-0.1c0.5,0,1,0.1,1.6,0.2c1.5,0.3,2.5,0.9,3.1,1.8
				c0.5,0.9,0.7,2.2,0.4,3.7l-1.4,7.5C140.7,267.4,140.4,267.6,140.1,267.6z M136.4,261.4c-0.4,0-0.8,0.1-1,0.3
				c-0.3,0.2-0.4,0.5-0.5,0.8c-0.1,0.3,0,0.5,0.1,0.7c0.1,0.2,0.3,0.3,0.7,0.3c0.1,0,0.2,0,0.3,0c0.1,0,0.3,0,0.4-0.1
				c0.3-0.1,0.5-0.2,0.7-0.3c0.2-0.2,0.4-0.4,0.6-0.6c0.1-0.2,0.2-0.4,0.3-0.7l0.1-0.4L136.4,261.4z"/>
			<path d="M137.2,254.5c0.5,0,0.9,0,1.4,0.1c1.3,0.2,2.1,0.7,2.6,1.5c0.5,0.8,0.6,1.8,0.3,3.2l-1.4,7.5l-2.1-0.4l0.1-1.4l0,0
				c-0.4,0.4-0.9,0.7-1.5,0.9c-0.4,0.1-0.7,0.2-1.1,0.2c-0.2,0-0.5,0-0.7-0.1c-1.1-0.2-1.9-0.7-2.4-1.4c-0.5-0.7-0.6-1.6-0.4-2.6
				c0.2-1,0.7-1.8,1.4-2.4c0.7-0.5,1.6-0.8,2.7-0.8c0.1,0,0.2,0,0.3,0l2.9,0.1l0-0.1c0.1-0.7,0.1-1.2-0.1-1.6
				c-0.2-0.4-0.6-0.6-1.3-0.7c-0.3-0.1-0.5-0.1-0.8-0.1c-0.3,0-0.6,0-0.9,0.1c-0.6,0.1-1.3,0.4-2,0.9c0,0-0.1,0-0.1,0
				c0,0-0.1,0-0.1,0c-0.1,0-0.1-0.1-0.1-0.2l0.4-2.1c0.7-0.3,1.4-0.5,2.1-0.6C136.6,254.6,136.9,254.5,137.2,254.5 M135.9,264.3
				c0.2,0,0.4,0,0.6-0.1c0.3-0.1,0.7-0.2,1-0.4c0.3-0.2,0.5-0.5,0.8-0.7c0.2-0.3,0.3-0.6,0.4-0.9l0.2-1.2l-2.3-0.1
				c-0.1,0-0.1,0-0.2,0c-0.6,0-1,0.1-1.4,0.4c-0.4,0.3-0.7,0.7-0.8,1.3c-0.1,0.5,0,0.9,0.2,1.2c0.2,0.3,0.6,0.5,1.1,0.6
				C135.7,264.3,135.8,264.3,135.9,264.3 M137.2,253.1c-0.4,0-0.7,0-1.1,0.1c-0.8,0.1-1.7,0.4-2.5,0.7c-0.4,0.2-0.7,0.6-0.8,1
				l-0.4,2.1c-0.1,0.5,0,1,0.3,1.3c-0.1,0.1-0.2,0.1-0.3,0.2c-1,0.8-1.7,1.9-2,3.3c-0.3,1.4-0.1,2.7,0.7,3.7c0.7,1,1.8,1.7,3.3,1.9
				c0.3,0.1,0.7,0.1,1,0.1c0.5,0,1-0.1,1.4-0.2c0.2,0.2,0.5,0.4,0.8,0.5l2.1,0.4c0.1,0,0.2,0,0.3,0c0.7,0,1.3-0.5,1.4-1.2l1.4-7.5
				c0.3-1.7,0.2-3.2-0.5-4.2c-0.7-1.1-1.9-1.8-3.5-2.2C138.3,253.2,137.7,253.1,137.2,253.1L137.2,253.1z M135.6,262.8
				c0,0,0-0.1,0-0.1c0.1-0.3,0.2-0.4,0.2-0.4c0.1-0.1,0.3-0.1,0.6-0.1l0.1,0l0.6,0c-0.1,0.2-0.3,0.3-0.4,0.4
				c-0.2,0.1-0.3,0.2-0.5,0.2c-0.1,0-0.2,0-0.2,0c-0.1,0-0.1,0-0.2,0C135.7,262.8,135.6,262.8,135.6,262.8L135.6,262.8z"/>
		</g>
		<g class="st19">
			<path class="st17" d="M146.3,268.8c-0.3,0-0.6,0-0.9-0.1c-1.1-0.2-2-0.7-2.4-1.4c-0.5-0.7-0.6-1.6-0.4-2.7l1-6l-1-0.2
				c-0.2,0-0.4-0.1-0.5-0.3s-0.2-0.3-0.1-0.5l0.3-1.9c0.1-0.3,0.4-0.6,0.7-0.6c0,0,0.1,0,0.1,0l1,0.2l0.3-1.9c0-0.2,0.1-0.4,0.3-0.5
				c0.1-0.1,0.3-0.1,0.4-0.1c0,0,0.1,0,0.1,0l2.3,0.4c0.4,0.1,0.6,0.4,0.6,0.8l-0.3,1.9l1.9,0.3c0.4,0.1,0.6,0.4,0.6,0.8L150,259
				c0,0.2-0.1,0.4-0.3,0.5c-0.1,0.1-0.3,0.1-0.4,0.1c0,0-0.1,0-0.1,0l-1.9-0.3l-0.9,5.7c0,0.2,0,0.4,0,0.4c0,0,0,0,0,0
				c0,0,0,0,0.1,0c0.1,0,0.2,0,0.3,0h0c0.1,0,0.2,0,0.3,0c0.2,0,0.4-0.1,0.5-0.2c0.1-0.1,0.3-0.1,0.5-0.1c0.1,0,0.4,0.1,0.5,0.2
				c0.3,0.2,0.4,0.5,0.4,0.9l-0.3,1.7c0,0.2-0.2,0.4-0.3,0.5c-0.4,0.2-0.9,0.4-1.4,0.4C146.7,268.8,146.5,268.8,146.3,268.8z"/>
			<path d="M145.1,253.6l2.3,0.4l-0.4,2.6l2.6,0.4l-0.3,1.9l-2.6-0.4l-1,6.4c-0.1,0.4,0,0.7,0.1,0.9c0.1,0.2,0.3,0.3,0.6,0.4
				c0.2,0,0.3,0,0.5,0c0.1,0,0.3,0,0.4,0c0.3-0.1,0.5-0.1,0.7-0.3c0,0,0.1,0,0.1,0c0,0,0.1,0,0.1,0c0.1,0,0.1,0.1,0.1,0.2l-0.3,1.7
				c-0.3,0.2-0.7,0.3-1.1,0.4c-0.2,0-0.3,0-0.5,0c-0.2,0-0.5,0-0.8-0.1c-0.9-0.2-1.6-0.5-1.9-1.1c-0.4-0.5-0.4-1.3-0.3-2.2l1.1-6.7
				l-1.7-0.3l0.3-1.9l1.7,0.3L145.1,253.6 M145.1,252.2c-0.3,0-0.6,0.1-0.8,0.3c-0.3,0.2-0.5,0.6-0.6,0.9l-0.2,1.2l-0.3,0
				c-0.1,0-0.2,0-0.2,0c-0.7,0-1.3,0.5-1.4,1.2l-0.3,1.9c-0.1,0.4,0,0.8,0.2,1.1c0.2,0.3,0.6,0.5,0.9,0.6l0.3,0l-0.9,5.3
				c-0.2,1.3,0,2.4,0.5,3.2c0.6,0.9,1.5,1.4,2.9,1.7c0.3,0.1,0.7,0.1,1,0.1c0.2,0,0.5,0,0.7,0c0.6-0.1,1.2-0.3,1.7-0.5
				c0.4-0.2,0.6-0.6,0.7-1l0.3-1.7c0.1-0.6-0.2-1.2-0.7-1.6c-0.2-0.2-0.6-0.3-0.9-0.3c-0.3,0-0.6,0.1-0.8,0.2c0,0-0.1,0-0.1,0.1
				l0.7-4.6l1.2,0.2c0.1,0,0.2,0,0.2,0c0.3,0,0.6-0.1,0.8-0.3c0.3-0.2,0.5-0.6,0.6-0.9l0.3-1.9c0.1-0.8-0.4-1.5-1.2-1.6l-1.2-0.2
				l0.2-1.2c0.1-0.8-0.4-1.5-1.2-1.6l-2.3-0.4C145.2,252.2,145.2,252.2,145.1,252.2L145.1,252.2z"/>
		</g>
		<g class="st19">
			<path class="st17" d="M154.8,270.1c-0.3,0-0.6,0-1-0.1c-0.9-0.1-1.7-0.4-2.4-0.7c-0.7-0.4-1.3-0.9-1.8-1.5
				c-0.5-0.6-0.8-1.4-1-2.2c-0.2-0.8-0.2-1.8-0.1-2.8c0.1-1,0.4-1.9,0.8-2.6c0.4-0.8,0.9-1.4,1.5-2c0.6-0.5,1.3-0.9,2.1-1.1
				c0.5-0.1,1-0.2,1.6-0.2c0.3,0,0.6,0,1,0.1c0.7,0.1,1.4,0.3,2,0.6c0.6,0.3,1.1,0.7,1.6,1.3c0.1,0.2,0.2,0.4,0.2,0.6l-0.3,2.1
				c0,0.4-0.3,0.6-0.6,0.7c-0.1,0-0.2,0-0.2,0c-0.3,0-0.6-0.2-0.7-0.4c-0.3-0.4-0.6-0.7-1-1c-0.4-0.2-0.8-0.4-1.3-0.5
				c-0.1,0-0.3,0-0.4,0c-0.2,0-0.5,0-0.7,0.1c-0.3,0.1-0.6,0.3-0.8,0.5c-0.2,0.3-0.4,0.6-0.6,1c-0.2,0.4-0.3,0.9-0.3,1.3
				c-0.1,1,0,1.8,0.3,2.5c0.3,0.5,0.9,0.9,1.7,1c0.2,0,0.3,0,0.5,0c0.3,0,0.6-0.1,0.9-0.2c0.4-0.2,0.8-0.4,1.2-0.8
				c0.2-0.2,0.4-0.3,0.6-0.3c0.1,0,0.3,0.1,0.4,0.1c0.3,0.2,0.5,0.5,0.4,0.9l-0.3,2.2c0,0.2-0.1,0.4-0.3,0.5
				c-0.6,0.5-1.3,0.8-1.9,0.9C155.6,270.1,155.2,270.1,154.8,270.1z"/>
			<path d="M154.6,257.5c0.3,0,0.6,0,0.9,0.1c0.6,0.1,1.2,0.3,1.7,0.5c0.5,0.3,1,0.6,1.4,1.1l-0.3,2.1c0,0.1,0,0.1-0.1,0.1
				c0,0,0,0,0,0c0,0-0.1,0-0.1-0.1c-0.3-0.5-0.7-0.9-1.2-1.2c-0.4-0.3-1-0.5-1.6-0.6c-0.2,0-0.3,0-0.5,0c-0.3,0-0.6,0.1-0.9,0.2
				c-0.4,0.1-0.8,0.4-1,0.7c-0.3,0.3-0.5,0.7-0.7,1.2c-0.2,0.5-0.3,1-0.4,1.5c-0.2,1.2,0,2.1,0.4,2.9c0.4,0.8,1.1,1.2,2.2,1.3
				c0.2,0,0.4,0,0.6,0c0.4,0,0.8-0.1,1.1-0.2c0.5-0.2,1-0.5,1.5-1c0,0,0.1-0.1,0.1-0.1c0,0,0,0,0.1,0c0.1,0,0.1,0.1,0.1,0.2
				l-0.3,2.2c-0.5,0.4-1.1,0.7-1.6,0.8c-0.3,0.1-0.6,0.1-1,0.1c-0.3,0-0.6,0-0.9-0.1c-0.8-0.1-1.5-0.3-2.1-0.7
				c-0.6-0.3-1.2-0.8-1.6-1.3c-0.4-0.5-0.7-1.2-0.9-2c-0.2-0.8-0.2-1.6-0.1-2.6c0.1-0.9,0.4-1.7,0.7-2.4c0.4-0.7,0.8-1.3,1.3-1.7
				s1.2-0.8,1.9-1C153.6,257.6,154.1,257.5,154.6,257.5 M154.6,256.1C154.6,256.1,154.6,256.1,154.6,256.1c-0.6,0-1.2,0.1-1.8,0.2
				c-0.9,0.2-1.7,0.7-2.4,1.2c-0.7,0.6-1.2,1.3-1.7,2.2c-0.4,0.8-0.7,1.8-0.8,2.9c-0.2,1.1-0.1,2.2,0.1,3.1c0.2,1,0.6,1.8,1.1,2.5
				c0.5,0.7,1.2,1.3,2,1.7c0.8,0.4,1.7,0.7,2.6,0.8c0.4,0,0.7,0.1,1.1,0.1c0.4,0,0.9,0,1.3-0.1c0.8-0.2,1.5-0.5,2.2-1
				c0.3-0.2,0.5-0.6,0.5-0.9l0.3-2.2c0.1-0.6-0.2-1.3-0.8-1.6c-0.3-0.1-0.5-0.2-0.8-0.2c-0.4,0-0.8,0.2-1.1,0.5
				c-0.3,0.3-0.6,0.5-1,0.6c-0.2,0.1-0.4,0.1-0.6,0.1c-0.1,0-0.2,0-0.4,0c-0.9-0.1-1.1-0.5-1.2-0.6c-0.3-0.5-0.3-1.2-0.2-2
				c0.1-0.4,0.2-0.8,0.3-1.2c0.1-0.3,0.3-0.6,0.5-0.7c0.1-0.2,0.3-0.3,0.5-0.3c0.1,0,0.3-0.1,0.4-0.1c0.1,0,0.2,0,0.3,0
				c0.4,0.1,0.8,0.2,1,0.3c0.3,0.2,0.5,0.5,0.8,0.8c0.3,0.5,0.8,0.7,1.3,0.7c0.1,0,0.3,0,0.4-0.1c0.6-0.2,1.1-0.7,1.2-1.3l0.3-2.1
				c0.1-0.4-0.1-0.8-0.3-1.1c-0.5-0.6-1.2-1.1-1.8-1.4c-0.7-0.3-1.4-0.5-2.2-0.7C155.3,256.1,154.9,256.1,154.6,256.1L154.6,256.1z"
				/>
		</g>
		<g class="st19">
			<path class="st17" d="M165.6,271.1c-0.4,0-0.7-0.4-0.6-0.8l0.7-7.1c0.1-1-0.1-1.4-0.2-1.5c-0.1-0.1-0.3-0.3-0.8-0.4
				c0,0-0.1,0-0.1,0c-0.2,0-0.3,0-0.5,0.1c-0.2,0.1-0.4,0.2-0.6,0.4c-0.2,0.2-0.4,0.5-0.5,0.8c-0.1,0.4-0.2,0.8-0.3,1.2L162,270
				c0,0.4-0.3,0.6-0.7,0.6c0,0-2.4-0.2-2.4-0.2c-0.2,0-0.4-0.1-0.5-0.3c-0.1-0.1-0.2-0.3-0.2-0.5l1.6-16.5c0-0.2,0.1-0.4,0.3-0.5
				c0.1-0.1,0.3-0.2,0.4-0.2c0,0,2.4,0.2,2.4,0.2c0.4,0,0.7,0.4,0.6,0.8l-0.5,5c0.1,0,0.2-0.1,0.2-0.1c0.5-0.3,1.1-0.4,1.7-0.4
				c0.1,0,0.3,0,0.4,0c1.4,0.1,2.5,0.7,3.1,1.7c0.6,0.9,0.9,2.3,0.7,4l-0.7,7c0,0.2-0.1,0.4-0.3,0.5c-0.1,0.1-0.3,0.2-0.4,0.2
				C168,271.3,165.6,271.1,165.6,271.1z"/>
			<path d="M160.6,253.2l2.4,0.2l-0.7,6.6l0,0c0.4-0.4,0.8-0.8,1.4-1c0.4-0.2,0.9-0.3,1.4-0.3c0.1,0,0.3,0,0.4,0
				c1.2,0.1,2.1,0.6,2.6,1.4c0.5,0.8,0.7,2,0.6,3.5l-0.7,7l-2.3-0.2l0.7-7.1c0.1-0.9,0-1.6-0.3-2c-0.3-0.4-0.7-0.6-1.3-0.7
				c-0.1,0-0.1,0-0.2,0c-0.3,0-0.5,0.1-0.8,0.2c-0.3,0.1-0.6,0.3-0.9,0.6c-0.3,0.3-0.5,0.6-0.6,1c-0.2,0.4-0.3,0.9-0.3,1.4l-0.6,6.1
				l-2.3-0.2L160.6,253.2 M160.6,251.8c-0.3,0-0.6,0.1-0.9,0.3c-0.3,0.2-0.5,0.6-0.5,1l-1.6,16.5c0,0.4,0.1,0.7,0.3,1
				c0.2,0.3,0.6,0.5,1,0.5l2.3,0.2c0,0,0.1,0,0.1,0c0.7,0,1.3-0.5,1.4-1.3l0.6-6.1c0-0.4,0.1-0.7,0.2-1c0.1-0.3,0.2-0.5,0.4-0.6
				c0.1-0.1,0.2-0.2,0.4-0.3c0.1,0,0.2,0,0.2,0c0,0,0,0,0.1,0c0.2,0,0.3,0.1,0.3,0.1c0,0,0,0,0,0c0,0,0.1,0.3,0,1l-0.7,7.1
				c-0.1,0.8,0.5,1.5,1.3,1.5l2.3,0.2c0,0,0.1,0,0.1,0c0.3,0,0.6-0.1,0.9-0.3c0.3-0.2,0.5-0.6,0.5-1l0.7-7c0.2-1.9-0.1-3.3-0.8-4.4
				c-0.5-0.8-1.6-1.8-3.6-2c-0.2,0-0.3,0-0.5,0c-0.4,0-0.8,0-1.2,0.1l0.4-3.8c0.1-0.8-0.5-1.5-1.3-1.5l-2.4-0.2
				C160.7,251.8,160.6,251.8,160.6,251.8L160.6,251.8z"/>
		</g>
		<g class="st19">
			<path class="st17" d="M169.3,273.6c-0.3,0-0.5-0.2-0.6-0.4c-0.1-0.2-0.1-0.5,0.1-0.7c1.3-1.6,2.2-3.2,2.8-4.6
				c0.6-1.4,0.9-2.9,1-4.2c0-0.7,0-1.4,0-2.1c-0.1-0.7-0.2-1.5-0.4-2.2c-0.2-0.8-0.5-1.6-0.8-2.4c-0.4-0.8-0.8-1.7-1.4-2.6
				c-0.1-0.2-0.1-0.5,0-0.7c0.1-0.2,0.4-0.3,0.6-0.3c0,0,2,0.1,2,0.1c0.2,0,0.4,0.1,0.5,0.3c0.5,0.7,1,1.5,1.5,2.3
				c0.4,0.8,0.8,1.6,1.1,2.5c0.3,0.9,0.5,1.8,0.7,2.7c0.1,0.9,0.2,1.8,0.1,2.7c-0.1,0.9-0.2,1.8-0.5,2.7c-0.3,0.9-0.6,1.8-1,2.6
				c-0.4,0.8-0.9,1.6-1.4,2.4c-0.5,0.7-1.1,1.4-1.7,2c-0.1,0.1-0.3,0.2-0.5,0.2C171.2,273.8,169.3,273.6,169.3,273.6z"/>
			<path d="M170.6,254l1.9,0.1c0.5,0.7,1,1.4,1.4,2.2c0.4,0.8,0.8,1.6,1.1,2.4c0.3,0.8,0.5,1.7,0.6,2.5c0.1,0.9,0.2,1.7,0.1,2.6
				c-0.1,0.8-0.2,1.7-0.5,2.5c-0.3,0.9-0.6,1.7-1,2.5c-0.4,0.8-0.9,1.5-1.4,2.3c-0.5,0.7-1.1,1.4-1.6,1.9l-1.9-0.1
				c1.3-1.7,2.3-3.3,2.9-4.8c0.6-1.5,1-3,1-4.4c0-0.7,0-1.5,0-2.2c-0.1-0.8-0.2-1.5-0.4-2.3c-0.2-0.8-0.5-1.6-0.9-2.5
				C171.6,255.8,171.2,254.9,170.6,254 M170.6,252.6c-0.5,0-1,0.3-1.2,0.7c-0.3,0.5-0.3,1,0,1.5c0.5,0.9,1,1.7,1.3,2.5
				c0.3,0.8,0.6,1.6,0.8,2.3c0.2,0.7,0.3,1.4,0.4,2.1c0.1,0.7,0.1,1.4,0,2c-0.1,1.3-0.4,2.6-0.9,4c-0.6,1.4-1.5,2.9-2.7,4.4
				c-0.3,0.4-0.4,1-0.2,1.5s0.7,0.8,1.2,0.8l1.9,0.1c0,0,0.1,0,0.1,0c0.4,0,0.7-0.1,1-0.4c0.6-0.6,1.2-1.3,1.8-2.1
				c0.6-0.8,1.1-1.6,1.5-2.5c0.4-0.9,0.8-1.8,1.1-2.7c0.3-0.9,0.5-1.9,0.5-2.8c0.1-1,0-1.9-0.1-2.9c-0.1-1-0.4-1.9-0.7-2.8
				c-0.3-0.9-0.7-1.8-1.2-2.6c-0.5-0.8-1-1.6-1.5-2.4c-0.2-0.3-0.6-0.5-1-0.6L170.6,252.6C170.6,252.6,170.6,252.6,170.6,252.6
				L170.6,252.6z"/>
		</g>
		<g class="st19">
			<path class="st17" d="M183.4,272.2c-0.4,0-0.7-0.3-0.7-0.7l0-1.9c0-0.2,0.1-0.3,0.2-0.5l4.5-5c0.4-0.5,0.8-0.9,1.1-1.3
				c0.3-0.4,0.5-0.8,0.7-1.1c0.2-0.3,0.3-0.6,0.3-0.8c0.1-0.3,0.1-0.5,0.1-0.8c0-0.5-0.1-0.8-0.3-1.1c-0.2-0.3-0.6-0.4-1.1-0.4
				c0,0,0,0,0,0c-0.6,0-1.1,0.1-1.6,0.4c-0.6,0.3-1.2,0.7-1.7,1.2c-0.3,0.2-0.5,0.2-0.6,0.2c-0.1,0-0.3,0-0.4-0.1
				c-0.3-0.1-0.4-0.4-0.4-0.8l0-2c0-0.2,0.1-0.4,0.2-0.5c0.6-0.6,1.3-1,2.1-1.4c0.8-0.3,1.6-0.5,2.5-0.5l0.1,0
				c1.6,0,2.9,0.5,3.7,1.3c0.9,0.8,1.4,2.1,1.3,3.7c0,0.5-0.1,1.1-0.3,1.6c-0.2,0.5-0.4,1-0.7,1.5c-0.3,0.5-0.6,1-1,1.4
				c-0.4,0.5-0.7,0.9-1.1,1.3l-2.6,2.8l5.1,0.1c0.4,0,0.7,0.3,0.7,0.7l0,2c0,0.2-0.1,0.4-0.2,0.5c-0.1,0.1-0.3,0.2-0.5,0.2
				C192.7,272.4,183.4,272.2,183.4,272.2z"/>
			<path d="M188.3,255.8c0,0,0.1,0,0.1,0c1.4,0,2.5,0.4,3.3,1.1c0.8,0.7,1.1,1.8,1.1,3.2c0,0.5-0.1,0.9-0.2,1.4
				c-0.2,0.5-0.4,0.9-0.6,1.4c-0.3,0.5-0.6,0.9-0.9,1.3c-0.4,0.4-0.7,0.9-1.1,1.3l-3.7,3.9l0,0l6.6,0.1l0,2l-9.3-0.2l0-1.9l4.5-5
				c0.5-0.5,0.9-1,1.2-1.4c0.3-0.4,0.5-0.8,0.7-1.2c0.2-0.4,0.3-0.7,0.4-1c0.1-0.3,0.1-0.6,0.1-0.9c0-0.6-0.2-1.2-0.5-1.6
				c-0.3-0.4-0.9-0.6-1.6-0.7c0,0-0.1,0-0.1,0c-0.6,0-1.2,0.1-1.8,0.4c-0.6,0.3-1.3,0.7-1.9,1.4c0,0-0.1,0.1-0.1,0.1c0,0,0,0-0.1,0
				c-0.1,0-0.1-0.1-0.1-0.2l0-2c0.6-0.5,1.2-0.9,1.9-1.2C186.8,256,187.5,255.8,188.3,255.8 M188.3,254.4c-1,0-1.9,0.2-2.7,0.5
				c-0.9,0.4-1.7,0.9-2.3,1.5c-0.3,0.3-0.5,0.6-0.5,1l0,2c0,0.6,0.3,1.2,0.8,1.4c0.2,0.1,0.5,0.2,0.7,0.2c0.3,0,0.6-0.1,1-0.4
				c0,0,0.1-0.1,0.1-0.1c0.5-0.5,1-0.9,1.5-1.1c0.4-0.2,0.9-0.3,1.3-0.3l0.1,0c0.4,0,0.5,0.1,0.6,0.1c0.1,0.1,0.2,0.3,0.2,0.7
				c0,0.2,0,0.4-0.1,0.7c0,0.2-0.1,0.4-0.3,0.7c-0.1,0.3-0.3,0.6-0.6,1c-0.3,0.4-0.6,0.8-1,1.3l-4.6,5c-0.2,0.3-0.4,0.6-0.4,0.9
				l0,1.9c0,0.8,0.6,1.4,1.4,1.4l9.3,0.2c0,0,0,0,0,0c0.4,0,0.7-0.1,1-0.4c0.3-0.3,0.4-0.6,0.4-1l0-2c0-0.8-0.6-1.4-1.4-1.4
				l-3.5-0.1l1.5-1.7c0.4-0.4,0.8-0.9,1.2-1.4c0.4-0.5,0.7-1,1-1.5c0.3-0.5,0.6-1.1,0.8-1.7c0.2-0.6,0.3-1.2,0.3-1.8
				c0-1.8-0.5-3.3-1.6-4.2c-1-0.9-2.4-1.4-4.2-1.5L188.3,254.4L188.3,254.4z"/>
		</g>
		<g class="st19">
			<path class="st17" d="M199.4,272.6c-1.8,0-3.2-0.7-4.2-2.2c-1-1.4-1.5-3.5-1.5-6.5s0.4-5.1,1.3-6.5c1-1.5,2.4-2.3,4.2-2.3
				c0,0,0.1,0,0.1,0c1.8,0,3.2,0.7,4.2,2.2c1,1.4,1.5,3.5,1.5,6.5c0,3-0.4,5.1-1.3,6.5c-1,1.5-2.4,2.3-4.2,2.3
				C199.5,272.6,199.4,272.6,199.4,272.6z M199.2,258.5c-0.3,0-0.8,0.1-1.2,1c-0.4,0.9-0.6,2.3-0.5,4.3c0,2,0.3,3.5,0.7,4.3
				c0.4,0.9,0.9,1,1.2,1c0.3,0,0.8-0.1,1.2-1c0.4-0.9,0.6-2.3,0.5-4.3c0-2-0.3-3.4-0.7-4.3C200,258.6,199.6,258.5,199.2,258.5l0-0.7
				L199.2,258.5z"/>
			<path d="M199.3,255.9c1.5,0,2.7,0.6,3.6,1.9c0.9,1.3,1.3,3.3,1.4,6.1c0,2.8-0.3,4.8-1.2,6.1c-0.8,1.3-2,1.9-3.6,2
				c0,0-0.1,0-0.1,0c-1.5,0-2.7-0.6-3.6-1.9c-0.9-1.3-1.3-3.3-1.4-6.1c0-2.8,0.3-4.8,1.2-6.1C196.4,256.5,197.6,255.9,199.3,255.9
				C199.2,255.9,199.3,255.9,199.3,255.9 M199.4,269.9C199.4,269.9,199.4,269.9,199.4,269.9c0.8,0,1.5-0.5,1.9-1.5
				c0.4-1,0.6-2.5,0.6-4.6c0-2.1-0.3-3.7-0.8-4.6c-0.5-0.9-1.1-1.4-1.9-1.4c0,0,0,0,0,0c-0.8,0-1.4,0.5-1.9,1.5
				c-0.4,1-0.6,2.5-0.6,4.6c0,2.1,0.3,3.7,0.8,4.6C198,269.4,198.6,269.9,199.4,269.9 M199.3,254.4l-0.1,0c-2,0-3.7,0.9-4.8,2.6
				c-1,1.5-1.5,3.8-1.4,6.9c0.1,3.1,0.6,5.4,1.6,6.9c1.1,1.6,2.8,2.5,4.7,2.5l0.1,0c2,0,3.7-0.9,4.8-2.6c1-1.5,1.5-3.8,1.4-6.9
				c-0.1-3.1-0.6-5.4-1.6-6.9C202.9,255.3,201.3,254.4,199.3,254.4L199.3,254.4z M199.4,269.9v-1.4c-0.1,0-0.3,0-0.6-0.6
				c-0.3-0.5-0.6-1.6-0.6-4c0-2.4,0.2-3.5,0.5-4c0.3-0.6,0.5-0.6,0.6-0.6c0,0,0,0,0,0c0.1,0,0.3,0,0.6,0.6c0.3,0.5,0.6,1.6,0.6,4
				c0,2.4-0.2,3.5-0.5,4c-0.3,0.6-0.5,0.6-0.6,0.6L199.4,269.9L199.4,269.9z"/>
		</g>
		<g class="st19">
			<path class="st17" d="M206.3,272.1c-0.2,0-0.3-0.1-0.5-0.2c-0.1-0.1-0.2-0.3-0.2-0.5l-0.1-1.9c0-0.2,0-0.3,0.1-0.5l4.2-5.3
				c0.4-0.5,0.7-1,1-1.4c0.3-0.4,0.4-0.8,0.6-1.1c0.1-0.3,0.2-0.6,0.3-0.9c0-0.3,0.1-0.5,0-0.8c0-0.5-0.2-0.8-0.4-1.1
				c-0.2-0.2-0.5-0.3-1-0.3l-0.2,0c-0.5,0-1.1,0.2-1.6,0.5c-0.6,0.3-1.1,0.7-1.7,1.3c-0.3,0.2-0.5,0.3-0.6,0.3c-0.1,0-0.3,0-0.4-0.1
				c-0.3-0.1-0.5-0.4-0.5-0.8l-0.1-2c0-0.2,0.1-0.4,0.2-0.5c0.6-0.6,1.3-1.1,2-1.5c0.8-0.4,1.7-0.6,2.6-0.7c0.2,0,0.3,0,0.5,0
				c1.4,0,2.5,0.3,3.4,1c1,0.8,1.5,2,1.6,3.6c0,0.5,0,1.1-0.2,1.6c-0.1,0.5-0.3,1.1-0.6,1.6c-0.3,0.5-0.5,1-0.9,1.5
				c-0.3,0.5-0.7,0.9-1,1.4l-2.4,3c0,0,5.1-0.3,5.1-0.3c0.2,0,0.3,0.1,0.5,0.2c0.1,0.1,0.2,0.3,0.2,0.5l0.1,2c0,0.4-0.3,0.7-0.7,0.7
				C215.7,271.6,206.3,272.1,206.3,272.1z"/>
			<path d="M210.6,255.5c1.2,0,2.2,0.3,2.9,0.9c0.8,0.6,1.3,1.7,1.3,3.1c0,0.5,0,0.9-0.1,1.4c-0.1,0.5-0.3,1-0.5,1.4
				c-0.2,0.5-0.5,0.9-0.8,1.4c-0.3,0.5-0.7,0.9-1,1.4l-3.4,4.2l0,0l6.6-0.3l0.1,2l-9.3,0.5l-0.1-1.9l4.2-5.3c0.4-0.5,0.8-1,1-1.5
				c0.3-0.4,0.5-0.8,0.6-1.2c0.2-0.4,0.3-0.7,0.3-1c0-0.3,0.1-0.6,0-0.9c0-0.6-0.2-1.2-0.6-1.5c-0.3-0.4-0.8-0.5-1.5-0.5
				c-0.1,0-0.1,0-0.2,0c-0.6,0-1.3,0.2-1.9,0.6c-0.6,0.3-1.2,0.8-1.8,1.5c0,0-0.1,0.1-0.1,0.1c0,0,0,0,0,0c-0.1,0-0.1-0.1-0.1-0.2
				l-0.1-2c0.5-0.5,1.1-1,1.8-1.4c0.7-0.4,1.5-0.6,2.3-0.6C210.3,255.5,210.4,255.5,210.6,255.5 M210.6,254.1c-0.2,0-0.3,0-0.5,0
				c-1,0.1-2,0.3-2.8,0.8c-0.9,0.4-1.6,1-2.2,1.7c-0.3,0.3-0.4,0.7-0.4,1l0.1,2c0,0.6,0.4,1.1,0.9,1.4c0.2,0.1,0.4,0.1,0.6,0.1
				c0.4,0,0.8-0.2,1.1-0.4c0,0,0.1-0.1,0.1-0.1c0.5-0.5,1-0.9,1.5-1.2c0.4-0.2,0.9-0.4,1.3-0.4c0,0,0.1,0,0.1,0c0.2,0,0.4,0,0.5,0.1
				c0.1,0.1,0.2,0.3,0.2,0.6c0,0.2,0,0.4,0,0.7c0,0.2-0.1,0.4-0.2,0.7c-0.1,0.3-0.3,0.6-0.5,1c-0.2,0.4-0.6,0.8-1,1.3l-4.2,5.3
				c-0.2,0.3-0.3,0.6-0.3,0.9l0.1,1.9c0,0.4,0.2,0.7,0.5,1c0.3,0.2,0.6,0.4,0.9,0.4c0,0,0,0,0.1,0l9.3-0.5c0.8,0,1.4-0.7,1.3-1.5
				l-0.1-2c0-0.4-0.2-0.7-0.5-1c-0.3-0.2-0.6-0.4-0.9-0.4c0,0,0,0-0.1,0l-3.5,0.2l1.4-1.8c0.4-0.5,0.7-1,1.1-1.4
				c0.4-0.5,0.7-1,0.9-1.6c0.3-0.6,0.5-1.1,0.6-1.7c0.2-0.6,0.2-1.2,0.2-1.8c-0.1-1.8-0.7-3.2-1.9-4.1
				C213.4,254.4,212.1,254.1,210.6,254.1L210.6,254.1z"/>
		</g>
		<g class="st19">
			<path class="st17" d="M221.7,271.1c-0.4,0-0.7-0.3-0.7-0.6l-1-11.7c-0.1,0-0.1,0.1-0.2,0.1c-0.4,0.3-0.9,0.5-1.3,0.8
				c-0.1,0.1-0.3,0.1-0.4,0.1c-0.4,0-0.8-0.3-0.8-0.8l-0.1-1.5c0-0.3,0.1-0.5,0.4-0.7c0.5-0.3,0.9-0.6,1.2-0.9
				c0.4-0.4,0.7-0.8,1-1.3c0.1-0.2,0.3-0.3,0.5-0.3c0,0,2.4-0.2,2.4-0.2c0.4,0,0.7,0.3,0.7,0.6l1.4,15.4c0,0.2,0,0.4-0.2,0.5
				c-0.1,0.1-0.3,0.2-0.5,0.3C224.1,270.9,221.7,271.1,221.7,271.1z"/>
			<path d="M222.7,254.8l1.4,15.4l-2.4,0.2l-1.2-13l0,0c-0.3,0.3-0.7,0.6-1.1,0.9c-0.4,0.3-0.8,0.5-1.2,0.7c0,0-0.1,0-0.1,0
				c-0.1,0-0.1-0.1-0.1-0.2l-0.1-1.5c0.5-0.3,1-0.6,1.4-1.1c0.4-0.4,0.8-0.9,1.1-1.4L222.7,254.8 M222.7,253.4c0,0-0.1,0-0.1,0
				l-2.4,0.2c-0.4,0-0.8,0.3-1.1,0.6c-0.3,0.4-0.6,0.8-0.9,1.1c-0.3,0.3-0.7,0.6-1.1,0.8c-0.5,0.3-0.8,0.8-0.7,1.4l0.1,1.5
				c0.1,1,0.8,1.5,1.5,1.5c0.3,0,0.5-0.1,0.8-0.2c0.2-0.1,0.3-0.2,0.5-0.3l0.9,10.5c0.1,0.7,0.7,1.3,1.4,1.3c0,0,0.1,0,0.1,0
				l2.4-0.2c0.4,0,0.7-0.2,1-0.5c0.2-0.3,0.4-0.7,0.3-1l-1.4-15.4C224,253.9,223.4,253.4,222.7,253.4L222.7,253.4z"/>
		</g>
		<g class="st19">
			<path class="st17" d="M230.6,270.5c-0.5,0-1-0.2-1.4-0.5c-0.5-0.4-0.8-0.9-0.9-1.5c-0.1-0.6,0.1-1.2,0.5-1.7
				c0.4-0.5,0.9-0.8,1.6-0.9c0.1,0,0.2,0,0.3,0c0.5,0,1,0.2,1.5,0.5c0.5,0.4,0.8,0.9,0.9,1.5c0.1,0.6-0.1,1.2-0.5,1.7
				c-0.4,0.5-0.9,0.8-1.6,0.9C230.8,270.5,230.7,270.5,230.6,270.5z"/>
			<path d="M230.7,266.5c0.4,0,0.7,0.1,1,0.4c0.3,0.3,0.5,0.7,0.6,1.1c0.1,0.4-0.1,0.8-0.3,1.2c-0.3,0.4-0.6,0.6-1.1,0.6
				c-0.1,0-0.1,0-0.2,0c-0.4,0-0.7-0.1-1-0.4c-0.3-0.3-0.5-0.6-0.6-1.1c-0.1-0.4,0.1-0.8,0.3-1.2c0.3-0.4,0.6-0.6,1.1-0.6
				C230.5,266.5,230.6,266.5,230.7,266.5 M230.7,265.1c-0.1,0-0.3,0-0.4,0c-0.8,0.1-1.6,0.5-2.1,1.2c-0.5,0.6-0.7,1.4-0.6,2.2
				c0.1,0.8,0.5,1.5,1.1,2c0.5,0.4,1.2,0.7,1.9,0.7c0.1,0,0.3,0,0.4,0c0.8-0.1,1.6-0.5,2.1-1.2c0.5-0.6,0.7-1.4,0.6-2.2
				c-0.1-0.8-0.5-1.5-1.1-2C232,265.4,231.4,265.1,230.7,265.1L230.7,265.1z"/>
		</g>
		<g class="st19">
			<path class="st17" d="M238.9,269.1c-0.2,0-0.3,0-0.4-0.1c-0.2-0.1-0.3-0.3-0.3-0.5l-1.7-11.6c-0.1,0-0.1,0.1-0.2,0.1
				c-0.4,0.3-0.8,0.6-1.2,0.8c-0.1,0.1-0.3,0.1-0.5,0.1c-0.4,0-0.7-0.2-0.8-0.8l-0.2-1.4c0-0.3,0.1-0.6,0.3-0.7
				c0.4-0.3,0.8-0.6,1.2-1c0.4-0.4,0.7-0.8,1-1.3c0.1-0.2,0.3-0.3,0.5-0.3l2.3-0.3c0,0,0.1,0,0.1,0c0.2,0,0.3,0,0.4,0.1
				c0.2,0.1,0.3,0.3,0.3,0.5l2.3,15.3c0.1,0.4-0.2,0.7-0.6,0.8l-2.3,0.3C239,269.1,238.9,269.1,238.9,269.1z"/>
			<path d="M239,252.8l2.3,15.3l-2.3,0.3l-1.9-12.9l0,0c-0.3,0.4-0.7,0.7-1.1,1c-0.4,0.3-0.8,0.6-1.2,0.8c0,0-0.1,0-0.1,0
				c-0.1,0-0.1-0.1-0.1-0.2l-0.2-1.4c0.5-0.3,0.9-0.7,1.3-1.1c0.4-0.4,0.7-0.9,1-1.4L239,252.8 M239,251.4c-0.1,0-0.1,0-0.2,0
				l-2.3,0.3c-0.4,0.1-0.8,0.3-1,0.7c-0.2,0.4-0.5,0.8-0.9,1.2c-0.3,0.3-0.7,0.6-1,0.9c-0.5,0.3-0.7,0.8-0.6,1.4l0.2,1.4
				c0.1,0.8,0.7,1.4,1.5,1.4c0.3,0,0.6-0.1,0.8-0.2c0.2-0.1,0.3-0.2,0.5-0.3l1.5,10.5c0.1,0.4,0.3,0.7,0.6,0.9
				c0.2,0.2,0.5,0.3,0.8,0.3c0.1,0,0.1,0,0.2,0l2.3-0.3c0.8-0.1,1.3-0.8,1.2-1.6l-2.3-15.3c-0.1-0.4-0.3-0.7-0.6-0.9
				C239.6,251.5,239.3,251.4,239,251.4L239,251.4z"/>
		</g>
		<g class="st19">
			<path class="st17" d="M247.7,268c-0.5,0-0.9-0.1-1.3-0.4c-0.5-0.4-0.8-0.9-0.9-1.5c-0.1-0.6,0-1.2,0.4-1.7c0.4-0.5,0.9-0.9,1.5-1
				c0.2,0,0.3,0,0.4,0c0.5,0,0.9,0.1,1.3,0.4c0.5,0.4,0.8,0.9,0.9,1.5c0.1,0.6,0,1.2-0.4,1.7c-0.4,0.5-0.9,0.9-1.5,1
				C248,268,247.8,268,247.7,268z"/>
			<path d="M247.8,264c0.3,0,0.6,0.1,0.9,0.3c0.4,0.3,0.6,0.6,0.7,1.1c0.1,0.4,0,0.8-0.3,1.2c-0.3,0.4-0.6,0.6-1.1,0.7
				c-0.1,0-0.2,0-0.3,0c-0.3,0-0.6-0.1-0.9-0.3c-0.4-0.3-0.6-0.6-0.7-1c-0.1-0.4,0-0.8,0.3-1.2s0.6-0.6,1.1-0.7
				C247.5,264,247.7,264,247.8,264 M247.8,262.6c-0.2,0-0.4,0-0.6,0c-0.8,0.1-1.5,0.6-2,1.3c-0.5,0.7-0.6,1.5-0.5,2.2
				c0.1,0.8,0.6,1.5,1.2,1.9c0.5,0.4,1.1,0.6,1.7,0.6c0.2,0,0.4,0,0.6,0c0.8-0.1,1.5-0.6,2-1.3c0.5-0.7,0.6-1.5,0.5-2.2
				c-0.1-0.8-0.6-1.5-1.2-1.9C249,262.8,248.4,262.6,247.8,262.6L247.8,262.6z"/>
		</g>
		<g class="st19">
			<path class="st17" d="M256,266.2c-0.3,0-0.6-0.2-0.7-0.6l-2.4-11.5c-0.1,0-0.1,0.1-0.2,0.1c-0.4,0.3-0.8,0.6-1.2,0.9
				c-0.1,0.1-0.3,0.2-0.5,0.2c-0.3,0-0.7-0.2-0.8-0.7l-0.3-1.4c-0.1-0.3,0.1-0.6,0.3-0.7c0.4-0.3,0.8-0.7,1.1-1.1
				c0.3-0.4,0.6-0.9,0.9-1.4c0.1-0.2,0.3-0.3,0.5-0.4l2.3-0.5c0,0,0.1,0,0.1,0c0.1,0,0.3,0,0.4,0.1c0.2,0.1,0.3,0.3,0.3,0.4
				l3.1,15.2c0,0.2,0,0.4-0.1,0.5c-0.1,0.2-0.3,0.3-0.4,0.3l-2.3,0.5C256.1,266.2,256,266.2,256,266.2z"/>
			<path d="M255.2,249.8l3.1,15.2l-2.3,0.5l-2.7-12.8l0,0c-0.3,0.4-0.6,0.7-1,1c-0.4,0.3-0.8,0.6-1.1,0.8c0,0-0.1,0.1-0.1,0.1
				c-0.1,0-0.1-0.1-0.1-0.2l-0.3-1.4c0.5-0.3,0.9-0.7,1.3-1.2c0.4-0.5,0.7-1,1-1.5L255.2,249.8 M255.2,248.4c-0.1,0-0.2,0-0.3,0
				l-2.3,0.5c-0.4,0.1-0.8,0.4-1,0.8c-0.2,0.4-0.5,0.9-0.8,1.2c-0.3,0.4-0.6,0.7-1,1c-0.5,0.3-0.7,0.9-0.6,1.4l0.3,1.4
				c0.2,0.9,0.9,1.3,1.5,1.3c0.2,0,0.6-0.1,0.9-0.3c0.2-0.1,0.3-0.2,0.5-0.3l2.2,10.4c0.1,0.7,0.7,1.1,1.4,1.1c0.1,0,0.2,0,0.3,0
				l2.3-0.5c0.4-0.1,0.7-0.3,0.9-0.6s0.3-0.7,0.2-1.1l-3.1-15.2c-0.1-0.4-0.3-0.7-0.6-0.9C255.7,248.5,255.4,248.4,255.2,248.4
				L255.2,248.4z"/>
		</g>
		<g class="st19">
			<path class="st17" d="M263.1,258.3c-0.4,0-0.8-0.3-0.9-0.7l-0.5-2c0-0.1,0-0.2,0-0.3c0.2-0.7,0.5-1.3,1-1.7
				c0.5-0.5,1-0.8,1.6-0.9c0.3-0.1,0.7-0.1,1-0.1c0.6,0,1.2,0.1,1.8,0.4c0.3,0.2,0.6,0.3,0.8,0.3c0.1,0,0.1,0,0.2,0
				c0.1,0,0.2,0,0.3,0c0.3-0.1,0.5-0.2,0.7-0.4c0.2-0.3,0.3-0.6,0.4-0.9c0.1-0.6,0.5-0.8,0.9-0.8c0,0,0,0,0,0c0.4,0,0.8,0.3,0.9,0.7
				l0.5,2c0,0.1,0,0.2,0,0.3c-0.2,0.7-0.5,1.3-1,1.7c-0.5,0.5-1,0.8-1.6,0.9c-0.3,0.1-0.7,0.1-1,0.1c-0.1,0-0.3,0-0.4,0
				c-0.5,0-1-0.2-1.4-0.4c-0.4-0.2-0.6-0.3-0.8-0.4c-0.1,0-0.1,0-0.2,0c-0.1,0-0.2,0-0.3,0c-0.3,0.1-0.5,0.2-0.7,0.4
				c-0.2,0.3-0.3,0.6-0.4,1C263.8,258.1,263.4,258.3,263.1,258.3C263.1,258.3,263.1,258.3,263.1,258.3z"/>
			<path d="M270.3,251.8c0.1,0,0.1,0.1,0.2,0.2l0.5,2c-0.1,0.6-0.4,1-0.8,1.4c-0.4,0.4-0.8,0.6-1.3,0.7c-0.3,0.1-0.6,0.1-0.9,0.1
				c-0.1,0-0.2,0-0.4,0c-0.4,0-0.8-0.2-1.1-0.3c-0.4-0.2-0.7-0.3-0.9-0.4c-0.1,0-0.2,0-0.4,0c-0.1,0-0.3,0-0.4,0.1
				c-0.4,0.1-0.8,0.4-1.1,0.7c-0.3,0.4-0.5,0.8-0.5,1.2c0,0.1-0.1,0.2-0.2,0.2c0,0,0,0,0,0c-0.1,0-0.1-0.1-0.2-0.2l-0.5-2
				c0.1-0.6,0.4-1,0.8-1.4c0.4-0.4,0.8-0.6,1.3-0.7c0.3-0.1,0.6-0.1,0.8-0.1c0.5,0,1,0.1,1.5,0.4c0.4,0.2,0.7,0.3,0.9,0.4
				c0.1,0,0.2,0.1,0.4,0.1c0.1,0,0.3,0,0.4-0.1c0.4-0.1,0.8-0.3,1.1-0.7c0.3-0.4,0.5-0.8,0.5-1.2
				C270.2,251.8,270.2,251.8,270.3,251.8C270.3,251.8,270.3,251.8,270.3,251.8 M270.3,250.4C270.3,250.4,270.3,250.4,270.3,250.4
				c-0.8,0-1.4,0.5-1.6,1.3c0,0,0,0,0,0.1c-0.1,0.3-0.1,0.5-0.3,0.7c-0.1,0.1-0.1,0.1-0.3,0.2c-0.1,0-0.1,0-0.1,0
				c-0.1,0-0.3-0.1-0.7-0.3c-0.7-0.3-1.4-0.5-2.1-0.5c-0.4,0-0.8,0.1-1.2,0.1c-0.8,0.2-1.4,0.6-2,1.1c-0.6,0.6-0.9,1.2-1.1,2.1
				c-0.1,0.2-0.1,0.5,0,0.7l0.5,2c0.2,0.7,0.8,1.2,1.5,1.2c0,0,0,0,0.1,0c0.7,0,1.3-0.5,1.5-1.3c0,0,0,0,0-0.1
				c0.1-0.3,0.1-0.5,0.3-0.7c0.1-0.1,0.2-0.2,0.3-0.2c0.1,0,0.1,0,0.1,0c0.1,0,0.2,0.1,0.6,0.3c0.5,0.3,1.1,0.5,1.7,0.5
				c0.2,0,0.3,0,0.5,0c0.4,0,0.8-0.1,1.2-0.1c0.8-0.2,1.4-0.6,2-1.1c0.6-0.6,0.9-1.2,1.1-2.1c0.1-0.2,0.1-0.5,0-0.7l-0.5-2
				C271.7,250.9,271.1,250.4,270.3,250.4L270.3,250.4z"/>
		</g>
		<g class="st19">
			<path class="st17" d="M276.2,261.3c-0.1,0-0.2,0-0.3-0.1c-0.2-0.1-0.3-0.2-0.3-0.4L275,259c0-0.2,0-0.3,0-0.5l2.8-6.2
				c0.3-0.6,0.5-1.1,0.6-1.6c0.1-0.5,0.2-0.9,0.3-1.2c0.1-0.3,0.1-0.6,0-0.9c0-0.3-0.1-0.5-0.2-0.8c-0.1-0.4-0.4-0.8-0.7-1
				c-0.1-0.1-0.3-0.1-0.5-0.1c-0.2,0-0.4,0-0.6,0.1c-0.5,0.2-1,0.4-1.4,0.8c-0.5,0.4-0.9,1-1.3,1.7c-0.2,0.3-0.5,0.5-0.8,0.5
				c0,0-0.1,0-0.2,0c-0.3-0.1-0.6-0.3-0.7-0.6l-0.6-1.9c-0.1-0.2,0-0.4,0.1-0.6c0.4-0.7,1-1.4,1.6-1.9c0.7-0.6,1.5-1,2.3-1.3
				c0.7-0.2,1.4-0.3,2-0.3c0.7,0,1.3,0.1,1.9,0.4c1.1,0.5,1.9,1.6,2.4,3.1c0.2,0.5,0.2,1.1,0.2,1.6c0,0.5-0.1,1.1-0.2,1.7
				c-0.1,0.5-0.3,1.1-0.5,1.7c-0.2,0.5-0.4,1.1-0.7,1.6l-1.6,3.5l4.9-1.5c0.1,0,0.1,0,0.2,0c0.1,0,0.2,0,0.3,0.1
				c0.2,0.1,0.3,0.2,0.3,0.4l0.6,1.9c0.1,0.4-0.1,0.8-0.5,0.9l-8.9,2.7C276.4,261.3,276.3,261.3,276.2,261.3z"/>
			<path d="M278,243.9c0.6,0,1.1,0.1,1.6,0.3c0.9,0.4,1.6,1.3,2,2.7c0.1,0.4,0.2,0.9,0.2,1.4c0,0.5-0.1,1-0.2,1.5
				c-0.1,0.5-0.3,1-0.5,1.6c-0.2,0.5-0.4,1-0.7,1.6l-2.3,4.9l0,0l6.3-1.9l0.6,1.9l-8.9,2.7l-0.5-1.8l2.8-6.2
				c0.3-0.6,0.5-1.2,0.7-1.7c0.2-0.5,0.3-0.9,0.3-1.3c0.1-0.4,0.1-0.8,0-1.1c0-0.3-0.1-0.6-0.2-0.9c-0.2-0.6-0.5-1.1-1-1.4
				c-0.3-0.2-0.6-0.3-0.9-0.3c-0.3,0-0.5,0-0.8,0.1c-0.6,0.2-1.2,0.5-1.7,1c-0.5,0.5-1,1.1-1.4,1.9c0,0.1-0.1,0.1-0.1,0.1
				c0,0,0,0,0,0c-0.1,0-0.1-0.1-0.1-0.1l-0.6-1.9c0.4-0.7,0.9-1.2,1.5-1.8c0.6-0.5,1.3-0.9,2.1-1.1C276.8,244,277.4,243.9,278,243.9
				 M278,242.5c-0.7,0-1.5,0.1-2.2,0.4c-1,0.3-1.8,0.8-2.6,1.4c-0.7,0.6-1.3,1.3-1.8,2.1c-0.2,0.3-0.2,0.7-0.1,1.1l0.6,1.9
				c0.2,0.6,0.6,1,1.2,1.1c0.1,0,0.2,0,0.3,0c0.5,0,1-0.3,1.3-0.7c0,0,0-0.1,0.1-0.1c0.3-0.6,0.7-1.1,1.1-1.5
				c0.4-0.3,0.8-0.6,1.2-0.7c0.2-0.1,0.4-0.1,0.4-0.1c0.1,0,0.2,0,0.2,0c0.1,0.1,0.3,0.2,0.4,0.6c0.1,0.2,0.1,0.4,0.1,0.7
				c0,0.2,0,0.5,0,0.7c0,0.3-0.1,0.7-0.3,1.1c-0.1,0.4-0.3,0.9-0.6,1.5l-2.8,6.2c-0.1,0.3-0.2,0.7-0.1,1l0.5,1.8
				c0.1,0.4,0.4,0.7,0.7,0.8c0.2,0.1,0.4,0.2,0.7,0.2c0.1,0,0.3,0,0.4-0.1l8.9-2.7c0.7-0.2,1.2-1,0.9-1.8l-0.6-1.9
				c-0.1-0.4-0.4-0.7-0.7-0.8c-0.2-0.1-0.4-0.2-0.7-0.2c-0.1,0-0.3,0-0.4,0.1l-3.3,1l1-2.1c0.3-0.6,0.5-1.1,0.7-1.7
				c0.2-0.6,0.4-1.2,0.5-1.8c0.1-0.6,0.2-1.2,0.2-1.8c0-0.6-0.1-1.3-0.3-1.8c-0.5-1.8-1.5-2.9-2.8-3.6
				C279.5,242.6,278.8,242.5,278,242.5L278,242.5z"/>
		</g>
		<g class="st19">
			<path class="st17" d="M290.2,257c-1,0-2-0.3-2.9-1c-1.4-1-2.5-2.9-3.5-5.7c-1-2.8-1.2-5-0.8-6.6c0.5-1.7,1.5-2.9,3.3-3.5
				c0.6-0.2,1.2-0.3,1.8-0.3c1,0,2,0.3,2.9,1c1.4,1,2.5,2.9,3.5,5.7c1,2.8,1.2,5,0.8,6.6c-0.5,1.7-1.6,2.9-3.3,3.5
				C291.3,256.9,290.7,257,290.2,257z M287.7,243.3c-0.1,0-0.2,0-0.4,0.1c-0.3,0.1-0.7,0.4-0.8,1.4c-0.1,0.9,0.2,2.4,0.8,4.3
				c0.7,1.9,1.3,3.2,2,3.9c0.4,0.4,0.8,0.6,1.2,0.6l0,0c0.1,0,0.2,0,0.4-0.1c0.3-0.1,0.7-0.4,0.8-1.4c0.1-0.9-0.2-2.4-0.8-4.3
				c-0.7-1.9-1.3-3.2-2-3.9C288.4,243.5,288,243.3,287.7,243.3z"/>
			<path d="M288,240.6c0.9,0,1.7,0.3,2.5,0.9c1.2,0.9,2.3,2.7,3.2,5.3c0.9,2.6,1.2,4.7,0.8,6.2c-0.4,1.5-1.3,2.5-2.8,3
				c-0.5,0.2-1,0.3-1.5,0.3c-0.9,0-1.7-0.3-2.5-0.9c-1.2-0.9-2.3-2.7-3.2-5.3c-0.9-2.6-1.2-4.7-0.8-6.2c0.4-1.5,1.3-2.5,2.8-3
				C286.9,240.7,287.5,240.6,288,240.6 M290.5,254.2c0.2,0,0.4,0,0.6-0.1c0.8-0.3,1.2-0.9,1.3-2c0.1-1-0.2-2.6-0.9-4.6
				c-0.7-2-1.4-3.4-2.2-4.1c-0.5-0.6-1.1-0.8-1.7-0.8c-0.2,0-0.4,0-0.6,0.1c-0.8,0.3-1.2,0.9-1.3,2c-0.1,1,0.2,2.6,0.9,4.6
				c0.7,2,1.4,3.4,2.2,4.1C289.3,253.9,289.9,254.2,290.5,254.2 M288,239.1C288,239.1,288,239.1,288,239.1c-0.7,0-1.3,0.1-2,0.4
				c-1.9,0.7-3.2,2-3.7,4c-0.5,1.8-0.2,4.1,0.8,7c1,2.9,2.2,4.9,3.7,6c1,0.8,2.2,1.2,3.4,1.2c0.7,0,1.3-0.1,2-0.4
				c1.9-0.7,3.2-2,3.7-4c0.5-1.8,0.2-4.1-0.8-7c-1-2.9-2.2-4.9-3.7-6C290.3,239.5,289.2,239.1,288,239.1L288,239.1z M290.5,252.8
				c-0.2,0-0.4-0.2-0.6-0.4c-0.4-0.4-1.1-1.4-1.8-3.6c-0.8-2.2-0.9-3.4-0.8-4c0.1-0.7,0.3-0.8,0.4-0.8c0,0,0.1,0,0.1,0
				c0.2,0,0.4,0.2,0.6,0.4c0.4,0.4,1.1,1.4,1.8,3.6c0.8,2.2,0.9,3.4,0.8,4c-0.1,0.7-0.3,0.8-0.4,0.8
				C290.5,252.8,290.5,252.8,290.5,252.8L290.5,252.8z"/>
		</g>
		<g class="st19">
			<path class="st17" d="M298.1,254c-0.1,0-0.2,0-0.3-0.1c-0.2-0.1-0.3-0.2-0.4-0.4l-0.7-1.7c-0.1-0.2-0.1-0.3,0-0.5l2.2-6.4
				c0.2-0.6,0.4-1.2,0.5-1.7c0.1-0.5,0.2-0.9,0.2-1.2c0-0.3,0-0.6,0-0.9c-0.1-0.3-0.1-0.5-0.2-0.8c-0.2-0.4-0.4-0.7-0.8-0.9
				c-0.1-0.1-0.3-0.1-0.4-0.1c-0.2,0-0.5,0.1-0.7,0.2c-0.5,0.2-1,0.5-1.4,1c-0.4,0.5-0.8,1.1-1.1,1.8c-0.2,0.4-0.5,0.5-0.8,0.5
				c-0.4,0-0.7-0.2-0.8-0.6l-0.7-1.8c-0.1-0.2-0.1-0.4,0-0.6c0.3-0.8,0.8-1.5,1.4-2.1c0.6-0.6,1.4-1.1,2.2-1.5
				c0.9-0.4,1.7-0.5,2.5-0.5c0.5,0,1,0.1,1.5,0.3c1.2,0.4,2.1,1.4,2.7,2.9c0.2,0.5,0.3,1,0.4,1.6c0,0.5,0,1.1-0.1,1.7
				c-0.1,0.6-0.2,1.1-0.4,1.7c-0.2,0.6-0.3,1.1-0.5,1.7l-1.3,3.6l4.7-1.9c0.1,0,0.2-0.1,0.3-0.1c0.3,0,0.5,0.2,0.7,0.4l0.7,1.9
				c0.1,0.2,0.1,0.4,0,0.5s-0.2,0.3-0.4,0.4l-8.7,3.5C298.3,254,298.2,254,298.1,254z"/>
			<path d="M298.8,236.5c0.4,0,0.9,0.1,1.2,0.2c1,0.3,1.7,1.2,2.3,2.5c0.2,0.4,0.3,0.9,0.3,1.4c0,0.5,0,1,0,1.5
				c-0.1,0.5-0.2,1.1-0.3,1.6c-0.2,0.5-0.3,1.1-0.5,1.6l-1.8,5.1l0,0l6.2-2.5l0.7,1.9l-8.7,3.5l-0.7-1.7l2.2-6.4
				c0.2-0.7,0.4-1.2,0.5-1.7c0.1-0.5,0.2-1,0.2-1.4c0-0.4,0-0.8-0.1-1.1c-0.1-0.3-0.1-0.6-0.3-0.9c-0.2-0.6-0.6-1-1.1-1.3
				c-0.2-0.1-0.5-0.2-0.8-0.2c-0.3,0-0.6,0.1-1,0.2c-0.6,0.2-1.1,0.6-1.6,1.1c-0.5,0.5-0.9,1.2-1.3,2c0,0.1-0.1,0.1-0.1,0.1
				c0,0,0,0,0,0c-0.1,0-0.1,0-0.1-0.1l-0.7-1.8c0.3-0.7,0.8-1.3,1.3-1.9c0.6-0.6,1.2-1,2-1.3C297.4,236.7,298.2,236.5,298.8,236.5
				 M298.8,235.1c-0.8,0-1.8,0.2-2.7,0.6c-0.9,0.4-1.8,0.9-2.5,1.6c-0.7,0.7-1.2,1.4-1.6,2.3c-0.2,0.4-0.2,0.8,0,1.1l0.7,1.8
				c0.2,0.6,0.7,1,1.3,1c0,0,0.1,0,0.1,0c0.6,0,1.1-0.3,1.4-0.8c0,0,0-0.1,0.1-0.1c0.3-0.7,0.6-1.2,1-1.6c0.3-0.4,0.7-0.6,1.1-0.8
				c0.3-0.1,0.4-0.1,0.5-0.1c0.1,0,0.1,0,0.1,0c0.1,0.1,0.3,0.2,0.4,0.5c0.1,0.2,0.1,0.4,0.2,0.6c0,0.2,0,0.4,0,0.7
				c0,0.3-0.1,0.7-0.2,1.1c-0.1,0.4-0.3,1-0.5,1.6l-2.2,6.4c-0.1,0.3-0.1,0.7,0,1l0.7,1.7c0.1,0.3,0.4,0.6,0.8,0.8
				c0.2,0.1,0.4,0.1,0.6,0.1c0.2,0,0.4,0,0.5-0.1l8.7-3.5c0.3-0.1,0.6-0.4,0.8-0.8c0.1-0.3,0.2-0.7,0-1.1l-0.7-1.9
				c-0.2-0.6-0.8-0.9-1.3-0.9c-0.2,0-0.4,0-0.5,0.1l-3.2,1.3l0.8-2.1c0.2-0.6,0.4-1.1,0.6-1.7c0.2-0.6,0.3-1.2,0.4-1.8
				c0.1-0.6,0.1-1.2,0.1-1.8c-0.1-0.6-0.2-1.2-0.4-1.8c-0.7-1.7-1.7-2.8-3.1-3.3C300,235.2,299.4,235.1,298.8,235.1L298.8,235.1z"/>
		</g>
		<g class="st19">
			<path class="st17" d="M312.4,248.1c-0.1,0-0.2,0-0.2,0c-0.2-0.1-0.3-0.2-0.4-0.4l-4.9-10.7c0,0.1-0.1,0.1-0.1,0.2
				c-0.3,0.4-0.6,0.8-1,1.1c-0.2,0.2-0.5,0.3-0.6,0.3c-0.1,0-0.6,0-0.8-0.5l-0.6-1.3c-0.1-0.3-0.1-0.6,0.1-0.8
				c0.3-0.4,0.6-0.8,0.9-1.3c0.2-0.5,0.4-1,0.6-1.5c0.1-0.2,0.2-0.4,0.4-0.5l2.2-1c0.1,0,0.2-0.1,0.3-0.1c0.1,0,0.2,0,0.2,0
				c0.2,0.1,0.3,0.2,0.4,0.4l6.4,14.1c0.2,0.4,0,0.8-0.4,0.9l-2.2,1C312.6,248.1,312.5,248.1,312.4,248.1z"/>
			<path d="M308.2,232.3l6.4,14.1l-2.2,1l-5.4-11.9l0,0c-0.2,0.4-0.5,0.8-0.8,1.2c-0.3,0.4-0.6,0.8-0.9,1.1c0,0.1-0.1,0.1-0.1,0.1
				c-0.1,0-0.1,0-0.1-0.1l-0.6-1.3c0.4-0.4,0.7-0.9,1-1.5c0.3-0.5,0.5-1.1,0.6-1.7L308.2,232.3 M308.2,230.9c-0.2,0-0.4,0-0.6,0.1
				l-2.2,1c-0.4,0.2-0.7,0.5-0.8,0.9c-0.1,0.5-0.3,0.9-0.5,1.4c-0.2,0.4-0.5,0.8-0.8,1.1c-0.4,0.4-0.5,1-0.2,1.5l0.6,1.3
				c0.3,0.6,0.8,1,1.4,1c0.4,0,0.9-0.2,1.2-0.5c0.1-0.1,0.3-0.3,0.4-0.4l4.4,9.6c0.2,0.3,0.4,0.6,0.8,0.7c0.2,0.1,0.3,0.1,0.5,0.1
				c0.2,0,0.4,0,0.6-0.1l2.2-1c0.7-0.3,1-1.2,0.7-1.9l-6.4-14.1c-0.2-0.3-0.4-0.6-0.8-0.7C308.5,230.9,308.3,230.9,308.2,230.9
				L308.2,230.9z"/>
		</g>
		<g class="st19">
			<path class="st17" d="M320.2,244.5c-0.3,0-0.5,0-0.8-0.1c-0.6-0.2-1.1-0.6-1.3-1.2c-0.3-0.6-0.3-1.2-0.1-1.8
				c0.2-0.6,0.6-1.1,1.2-1.4c0.3-0.2,0.7-0.3,1.1-0.3c0.3,0,0.5,0,0.8,0.1c0.6,0.2,1,0.6,1.3,1.2c0.3,0.6,0.3,1.2,0.1,1.8
				c-0.2,0.6-0.6,1.1-1.2,1.4C320.9,244.5,320.6,244.5,320.2,244.5z"/>
			<path d="M320.2,240.6c0.2,0,0.4,0,0.5,0.1c0.4,0.2,0.7,0.4,0.9,0.8c0.2,0.4,0.2,0.8,0.1,1.2c-0.1,0.4-0.4,0.7-0.8,1
				c-0.2,0.1-0.5,0.2-0.7,0.2c-0.2,0-0.3,0-0.5-0.1c-0.4-0.1-0.7-0.4-0.9-0.8c-0.2-0.4-0.2-0.8-0.1-1.2c0.1-0.4,0.4-0.8,0.8-1
				C319.7,240.6,320,240.6,320.2,240.6 M320.2,239.1C320.2,239.1,320.2,239.1,320.2,239.1c-0.5,0-0.9,0.1-1.4,0.3
				c-0.8,0.4-1.3,1-1.5,1.8c-0.2,0.8-0.2,1.6,0.2,2.3c0.4,0.7,1,1.2,1.7,1.5c0.3,0.1,0.7,0.2,1,0.2c0.5,0,0.9-0.1,1.4-0.3
				c0.8-0.4,1.3-1,1.6-1.8c0.2-0.8,0.2-1.6-0.2-2.3c-0.4-0.7-1-1.2-1.7-1.5C320.9,239.2,320.5,239.1,320.2,239.1L320.2,239.1z"/>
		</g>
		<g class="st19">
			<path class="st17" d="M328.1,240.3c-0.3,0-0.5-0.1-0.6-0.4l-5.7-10.3c0,0.1-0.1,0.1-0.1,0.2c-0.3,0.4-0.6,0.9-0.9,1.2
				c-0.2,0.3-0.5,0.3-0.7,0.3c-0.1,0-0.5,0-0.8-0.5l-0.7-1.3c-0.1-0.2-0.1-0.5,0.1-0.8c0.3-0.4,0.6-0.9,0.8-1.4
				c0.2-0.5,0.3-1,0.4-1.6c0-0.2,0.2-0.4,0.4-0.5l2.1-1.1c0.1-0.1,0.2-0.1,0.3-0.1c0.1,0,0.1,0,0.2,0c0.2,0.1,0.3,0.2,0.4,0.3
				l7.5,13.6c0.1,0.2,0.1,0.4,0.1,0.5c-0.1,0.2-0.2,0.3-0.3,0.4l-2.1,1.1C328.4,240.2,328.2,240.3,328.1,240.3z"/>
			<path d="M322.7,224.9l7.5,13.6l-2.1,1.1l-6.3-11.5l0,0c-0.2,0.4-0.4,0.9-0.7,1.3c-0.3,0.4-0.5,0.8-0.8,1.1c0,0.1-0.1,0.1-0.1,0.1
				c0,0-0.1,0-0.1-0.1l-0.7-1.3c0.4-0.5,0.6-1,0.9-1.5c0.2-0.6,0.4-1.1,0.5-1.7L322.7,224.9 M322.7,223.4c-0.2,0-0.5,0.1-0.7,0.2
				l-2.1,1.1c-0.4,0.2-0.6,0.6-0.7,1c-0.1,0.5-0.2,1-0.4,1.4c-0.2,0.4-0.4,0.8-0.7,1.2c-0.3,0.4-0.4,1-0.1,1.5l0.7,1.3
				c0.3,0.5,0.8,0.9,1.4,0.9c0.5,0,0.9-0.2,1.2-0.6c0.1-0.1,0.2-0.3,0.4-0.5l5.1,9.3c0.3,0.5,0.7,0.7,1.2,0.7c0.2,0,0.5-0.1,0.7-0.2
				l2.1-1.1c0.3-0.2,0.6-0.5,0.7-0.8c0.1-0.4,0.1-0.7-0.1-1.1l-7.5-13.6c-0.2-0.3-0.5-0.6-0.8-0.7
				C323,223.5,322.9,223.4,322.7,223.4L322.7,223.4z"/>
		</g>
		<g class="st19">
			<path class="st17" d="M334.8,236.5c-0.2,0-0.5-0.1-0.6-0.3l-1-1.6c-0.1-0.1-0.1-0.3-0.1-0.5l1.1-6.7c0.1-0.7,0.2-1.2,0.2-1.7
				c0-0.5,0-0.9,0-1.3c0-0.3-0.1-0.6-0.2-0.9c-0.1-0.3-0.2-0.5-0.4-0.7c-0.2-0.4-0.5-0.6-0.9-0.8c-0.1,0-0.2,0-0.3,0
				c-0.3,0-0.6,0.1-0.9,0.3c-0.4,0.3-0.8,0.7-1.2,1.2c-0.3,0.5-0.6,1.2-0.8,2c-0.1,0.4-0.4,0.6-0.8,0.7c0,0,0,0,0,0
				c-0.4,0-0.6-0.2-0.8-0.4l-1-1.7c-0.1-0.2-0.1-0.4-0.1-0.6c0.2-0.8,0.6-1.6,1.1-2.3c0.5-0.7,1.1-1.3,1.9-1.8c1.1-0.7,2.2-1,3.1-1
				c0.2,0,0.5,0,0.7,0.1c1.2,0.2,2.3,1,3.1,2.4c0.3,0.5,0.5,1,0.6,1.5c0.1,0.5,0.2,1.1,0.2,1.7c0,0.6,0,1.1-0.1,1.7
				c-0.1,0.6-0.1,1.2-0.2,1.7l-0.7,3.8l4.3-2.7c0.1-0.1,0.2-0.1,0.4-0.1c0.2,0,0.5,0.1,0.6,0.3l1.1,1.7c0.1,0.2,0.1,0.4,0.1,0.5
				c0,0.2-0.2,0.3-0.3,0.4l-7.9,4.9C335.1,236.5,335,236.5,334.8,236.5z"/>
			<path d="M333.3,219.1c0.2,0,0.4,0,0.6,0c1,0.2,1.9,0.9,2.7,2.1c0.2,0.4,0.4,0.8,0.6,1.3c0.1,0.5,0.2,1,0.2,1.5
				c0,0.5,0,1.1-0.1,1.6c-0.1,0.6-0.1,1.1-0.2,1.7l-0.9,5.3l0,0l5.6-3.5l1.1,1.7l-7.9,4.9l-1-1.6l1.1-6.7c0.1-0.7,0.2-1.3,0.2-1.8
				c0-0.5,0-1,0-1.4c0-0.4-0.1-0.7-0.2-1.1c-0.1-0.3-0.3-0.6-0.4-0.8c-0.3-0.5-0.8-0.9-1.3-1.1c-0.2,0-0.3-0.1-0.5-0.1
				c-0.4,0-0.8,0.1-1.3,0.4c-0.5,0.3-1,0.8-1.4,1.4c-0.4,0.6-0.7,1.3-0.9,2.2c0,0.1-0.1,0.1-0.1,0.1c0,0,0,0,0,0
				c-0.1,0-0.1,0-0.1-0.1l-1-1.7c0.2-0.7,0.5-1.4,1-2.1s1-1.2,1.7-1.6C331.5,219.4,332.4,219.1,333.3,219.1 M333.3,217.7
				c-1.1,0-2.3,0.4-3.5,1.1c-0.9,0.5-1.6,1.2-2.1,2c-0.5,0.8-0.9,1.6-1.2,2.5c-0.1,0.4,0,0.8,0.2,1.1l1,1.7c0.3,0.5,0.8,0.8,1.3,0.8
				c0,0,0.1,0,0.1,0c0.6,0,1.1-0.5,1.4-1.1c0,0,0-0.1,0-0.1c0.2-0.7,0.4-1.3,0.7-1.8c0.3-0.4,0.6-0.7,1-1c0.3-0.2,0.5-0.2,0.5-0.2
				c0.2,0,0.3,0.1,0.6,0.5c0.1,0.2,0.2,0.4,0.3,0.6c0.1,0.2,0.1,0.4,0.2,0.7c0,0.3,0,0.7,0,1.2c0,0.5-0.1,1-0.2,1.6l-1.1,6.7
				c-0.1,0.3,0,0.7,0.2,1l1,1.6c0.3,0.4,0.7,0.7,1.2,0.7c0.3,0,0.5-0.1,0.7-0.2l7.9-4.9c0.3-0.2,0.5-0.5,0.6-0.9
				c0.1-0.4,0-0.8-0.2-1.1l-1.1-1.7c-0.3-0.4-0.7-0.7-1.2-0.7c-0.3,0-0.5,0.1-0.7,0.2l-3,1.8l0.4-2.2c0.1-0.6,0.2-1.2,0.2-1.8
				c0.1-0.6,0.1-1.2,0.1-1.8c0-0.6-0.1-1.2-0.3-1.8c-0.2-0.6-0.4-1.2-0.7-1.7c-1-1.6-2.2-2.5-3.6-2.7
				C333.8,217.7,333.5,217.7,333.3,217.7L333.3,217.7z"/>
		</g>
		<g class="st19">
			<path class="st17" d="M345.3,229.9c-0.2,0-0.3,0-0.5,0c-0.6-0.1-1.1-0.5-1.5-1c-0.4-0.5-0.5-1.1-0.4-1.7c0.1-0.6,0.4-1.2,1-1.5
				c0.4-0.3,0.8-0.4,1.3-0.4c0.2,0,0.3,0,0.5,0.1c0.6,0.1,1.1,0.5,1.5,1c0.4,0.5,0.5,1.1,0.4,1.7c-0.1,0.6-0.5,1.2-1,1.5
				C346.2,229.7,345.7,229.9,345.3,229.9z"/>
			<path d="M345.2,225.9c0.1,0,0.2,0,0.3,0c0.4,0.1,0.8,0.3,1,0.7c0.2,0.4,0.3,0.8,0.3,1.2c-0.1,0.4-0.3,0.8-0.7,1.1
				c-0.3,0.2-0.6,0.3-0.9,0.3c-0.1,0-0.2,0-0.3,0c-0.4-0.1-0.8-0.3-1-0.7c-0.2-0.4-0.3-0.8-0.3-1.2c0.1-0.4,0.3-0.8,0.7-1.1
				C344.6,226,344.9,225.9,345.2,225.9 M345.2,224.5C345.2,224.5,345.2,224.5,345.2,224.5c-0.6,0-1.2,0.2-1.7,0.5
				c-0.7,0.5-1.1,1.2-1.3,2c-0.1,0.8,0,1.6,0.5,2.2c0.5,0.7,1.1,1.1,1.9,1.3c0.2,0,0.4,0.1,0.6,0.1c0.6,0,1.2-0.2,1.7-0.5
				c0.7-0.5,1.2-1.2,1.3-2c0.1-0.8,0-1.6-0.5-2.2c-0.5-0.7-1.1-1.1-1.9-1.3C345.7,224.5,345.4,224.5,345.2,224.5L345.2,224.5z"/>
		</g>
		<g class="st19">
			<path class="st17" d="M349.5,225.7c-0.3,0-0.6,0-0.8-0.1c-0.2,0-0.3-0.1-0.5-0.3l-1.3-1.7c-0.2-0.3-0.2-0.6-0.1-0.9
				c0.1-0.3,0.4-0.5,0.8-0.5c0.5,0,0.8,0.1,1.1,0.1c0.5,0,0.9,0,1.2-0.1c0.6-0.1,1.2-0.4,1.7-0.8c0.2-0.2,0.4-0.3,0.5-0.6
				c0.1-0.2,0.2-0.4,0.3-0.6c0-0.2,0-0.4,0-0.7c-0.1-0.2-0.2-0.5-0.3-0.7c-0.4-0.6-0.9-0.9-1.3-0.9c0,0,0,0,0,0c-0.4,0-1,0.2-2,0.9
				l-0.4,0.3c-0.1,0.1-0.3,0.1-0.4,0.1c0,0-0.1,0-0.1,0c-0.2,0-0.4-0.1-0.5-0.3l-1.2-1.6c-0.2-0.3-0.2-0.8,0.1-1l0.4-0.3
				c0.3-0.2,0.5-0.5,0.7-0.7c0.2-0.2,0.3-0.4,0.4-0.6c0.1-0.2,0.1-0.4,0-0.6c-0.1-0.2-0.2-0.5-0.4-0.8c-0.5-0.6-0.9-0.6-1-0.6
				c0,0,0,0,0,0c-0.4,0-0.8,0.1-1.2,0.4c-0.2,0.2-0.4,0.3-0.6,0.5c-0.2,0.2-0.3,0.4-0.5,0.6c-0.1,0.2-0.3,0.5-0.4,0.8
				c-0.1,0.3-0.2,0.7-0.3,1.1c-0.1,0.4-0.4,0.7-0.7,0.7c0,0-0.1,0-0.1,0c-0.3,0-0.5-0.1-0.7-0.4l-1.2-1.6c-0.1-0.2-0.2-0.4-0.1-0.5
				c0.1-0.6,0.4-1.3,0.8-2.1c0.4-0.7,1-1.4,1.8-2c1.2-0.9,2.5-1.4,3.6-1.4l0.2,0c1.3,0.1,2.4,0.7,3.3,1.9c0.3,0.4,0.6,0.9,0.7,1.4
				c0.1,0.5,0.2,1,0.2,1.4c0,0.4-0.1,0.7-0.2,1.1c0.2,0,0.3,0,0.5,0c0.3,0,0.5,0,0.8,0.1c1,0.2,1.9,0.8,2.7,1.7
				c0.4,0.6,0.7,1.2,0.9,1.8c0.2,0.7,0.2,1.3,0.1,2c-0.1,0.7-0.3,1.4-0.7,2c-0.4,0.7-0.9,1.3-1.6,1.8c-0.8,0.6-1.6,1-2.5,1.3
				C350.7,225.6,350.1,225.7,349.5,225.7z"/>
			<path d="M346.9,209.6c0.1,0,0.1,0,0.2,0c1.1,0.1,2,0.6,2.8,1.6c0.3,0.4,0.5,0.7,0.6,1.2c0.1,0.4,0.2,0.8,0.2,1.2
				c0,0.4-0.1,0.8-0.2,1.2c-0.1,0.4-0.4,0.7-0.6,1l0,0c0.6-0.3,1.3-0.4,1.9-0.4c0.2,0,0.5,0,0.7,0.1c0.9,0.1,1.6,0.6,2.2,1.5
				c0.4,0.5,0.6,1,0.8,1.6c0.2,0.6,0.2,1.2,0.1,1.8c-0.1,0.6-0.3,1.2-0.6,1.8c-0.3,0.6-0.8,1.1-1.5,1.6c-0.7,0.5-1.5,0.9-2.2,1.2
				c-0.5,0.2-1.1,0.2-1.6,0.2c-0.2,0-0.5,0-0.7-0.1l-1.3-1.7c0-0.1-0.1-0.1,0-0.2c0-0.1,0.1-0.1,0.1-0.1c0,0,0,0,0,0
				c0.4,0,0.8,0.1,1.1,0.1c0.5,0,1,0,1.4-0.1c0.7-0.2,1.4-0.5,2-0.9c0.3-0.2,0.5-0.5,0.7-0.7c0.2-0.3,0.3-0.6,0.3-0.9
				c0.1-0.3,0-0.6,0-1c-0.1-0.3-0.2-0.6-0.5-1c-0.6-0.7-1.2-1.1-1.8-1.2c0,0-0.1,0-0.1,0c-0.6,0-1.4,0.3-2.4,1l-0.4,0.3l-1.2-1.6
				l0.4-0.3c0.3-0.3,0.6-0.5,0.8-0.8c0.2-0.3,0.4-0.6,0.5-0.9c0.1-0.3,0.1-0.6,0-1c-0.1-0.3-0.3-0.7-0.6-1.1c-0.5-0.6-1-0.9-1.5-0.9
				c0,0,0,0-0.1,0c-0.5,0-1.1,0.2-1.6,0.6c-0.3,0.2-0.5,0.4-0.7,0.6c-0.2,0.2-0.4,0.5-0.5,0.8c-0.2,0.3-0.3,0.6-0.4,1
				c-0.1,0.4-0.2,0.8-0.3,1.2c0,0.1-0.1,0.1-0.1,0.1c0,0,0,0,0,0c-0.1,0-0.1,0-0.1-0.1l-1.2-1.6c0.1-0.6,0.3-1.2,0.7-1.9
				c0.4-0.7,0.9-1.3,1.6-1.8C344.8,210.1,345.9,209.6,346.9,209.6 M346.9,208.2c-1.3,0-2.7,0.5-4.1,1.5c-0.9,0.7-1.5,1.4-2,2.2
				c-0.4,0.8-0.7,1.6-0.9,2.3c-0.1,0.4,0,0.8,0.3,1.1l1.2,1.6c0.3,0.4,0.8,0.6,1.3,0.6c0.1,0,0.1,0,0.2,0c0.7-0.1,1.2-0.6,1.3-1.2
				c0,0,0,0,0-0.1c0.1-0.4,0.2-0.7,0.2-1c0.1-0.3,0.2-0.5,0.3-0.7c0.1-0.2,0.2-0.4,0.4-0.5c0.1-0.2,0.3-0.3,0.5-0.4
				c0.3-0.2,0.5-0.3,0.8-0.3c0.1,0,0.3,0.1,0.5,0.4c0.2,0.3,0.3,0.5,0.3,0.6c0,0.1,0,0.2,0,0.2c0,0.1-0.1,0.3-0.3,0.4
				c-0.2,0.2-0.4,0.4-0.7,0.6l-0.4,0.3c-0.6,0.5-0.7,1.4-0.3,2l1.2,1.6c0.2,0.3,0.6,0.5,0.9,0.6c0.1,0,0.1,0,0.2,0
				c0.3,0,0.6-0.1,0.9-0.3l0.4-0.3c0.9-0.7,1.4-0.8,1.5-0.8c0.3,0,0.6,0.4,0.8,0.6c0.1,0.2,0.2,0.3,0.2,0.4c0,0.1,0,0.3,0,0.4
				c0,0.1-0.1,0.3-0.2,0.4c-0.1,0.1-0.2,0.3-0.3,0.4c-0.5,0.3-0.9,0.6-1.4,0.7c-0.3,0.1-0.7,0.1-1.1,0.1c-0.3,0-0.6,0-1-0.1
				c0,0-0.1,0-0.1,0c0,0-0.1,0-0.1,0c-0.7,0-1.2,0.4-1.5,1c-0.2,0.5-0.1,1.1,0.2,1.6l1.3,1.7c0.2,0.3,0.6,0.5,0.9,0.5
				c0.3,0,0.6,0.1,0.9,0.1c0.7,0,1.3-0.1,2-0.3c1-0.3,1.9-0.8,2.7-1.4c0.8-0.6,1.4-1.2,1.8-2c0.4-0.7,0.7-1.5,0.8-2.3
				c0.1-0.8,0.1-1.6-0.1-2.3c-0.2-0.7-0.5-1.4-1-2.1c-0.8-1.1-1.9-1.8-3.1-2c-0.2,0-0.4-0.1-0.6-0.1c0-0.1,0-0.2,0-0.3
				c0-0.6-0.1-1.1-0.2-1.7c-0.2-0.6-0.4-1.1-0.8-1.6c-1-1.3-2.3-2.1-3.8-2.2C347.1,208.2,347,208.2,346.9,208.2L346.9,208.2z"/>
		</g>
		<g class="st19">
			<path class="st17" d="M361.9,217.2c-0.2,0-0.4-0.1-0.5-0.2l-7.7-8.9c0,0.1,0,0.1-0.1,0.2c-0.2,0.5-0.4,1-0.6,1.4
				c-0.1,0.3-0.4,0.5-0.8,0.5c-0.2,0-0.4-0.1-0.7-0.3l-1-1.1c-0.2-0.2-0.2-0.5-0.1-0.8c0.2-0.5,0.4-1,0.5-1.5
				c0.1-0.5,0.1-1.1,0.1-1.6c0-0.2,0.1-0.4,0.2-0.6l1.8-1.5c0.1-0.1,0.3-0.2,0.5-0.2c0.2,0,0.4,0.1,0.5,0.2l10.1,11.7
				c0.1,0.1,0.2,0.3,0.2,0.5c0,0.2-0.1,0.4-0.2,0.5l-1.8,1.5C362.3,217.1,362.1,217.2,361.9,217.2z"/>
			<path d="M353.6,203.2l10.1,11.7l-1.8,1.5l-8.5-9.9l0,0c-0.1,0.5-0.2,0.9-0.4,1.4c-0.2,0.5-0.4,0.9-0.6,1.3c0,0.1-0.1,0.1-0.1,0.1
				c0,0-0.1,0-0.1-0.1l-1-1.1c0.2-0.5,0.4-1.1,0.5-1.7c0.1-0.6,0.1-1.2,0.1-1.8L353.6,203.2 M353.6,201.8c-0.3,0-0.7,0.1-0.9,0.3
				l-1.8,1.5c-0.3,0.3-0.5,0.7-0.5,1.1c0,0.5,0,1-0.1,1.5c-0.1,0.5-0.2,0.9-0.4,1.3c-0.2,0.5-0.2,1.1,0.2,1.5l1,1.1
				c0.4,0.5,1,0.6,1.2,0.6c0.6,0,1.1-0.3,1.4-0.9c0.1-0.2,0.2-0.4,0.3-0.5l6.9,8c0.3,0.3,0.7,0.5,1.1,0.5c0.3,0,0.7-0.1,0.9-0.3
				l1.8-1.5c0.3-0.2,0.5-0.6,0.5-1s-0.1-0.7-0.3-1l-10.1-11.7C354.4,201.9,354,201.8,353.6,201.8L353.6,201.8z"/>
		</g>
	</g>
</g>
</svg>
